<svg width="110" height="91" viewBox="0 0 110 91" fill="none" xmlns="http://www.w3.org/2000/svg">
<rect y="45.2549" width="64" height="64" transform="rotate(-45 0 45.2549)" fill="#E80800" fill-opacity="0.2"/>
<rect x="19.2549" y="45.2549" width="64" height="64" transform="rotate(-45 19.2549 45.2549)" fill="#E80800"/>
<path fill-rule="evenodd" clip-rule="evenodd" d="M58.6754 30.1214L58.6594 30.0842L58.702 29.93L58.75 29.7438L58.8086 29.563V29.5098L58.8565 29.3981L58.8405 29.3343L58.8778 29.1747L58.9258 28.9886L58.9897 28.8078L58.9684 28.7599L59.0164 28.6057L59.059 28.4249L59.0963 28.2387L59.1656 28.0526L59.1443 28.01L59.1869 27.8558L59.2348 27.6697L59.2988 27.4888L59.2775 27.441L59.3254 27.2867L59.3627 27.1006L59.4053 26.9145L59.4746 26.7336L59.4533 26.6911L59.5012 26.5315L59.5439 26.3507L59.6078 26.1646V26.1167C59.6078 26.0476 59.5865 26.0582 59.6504 26.0582H69.63C69.694 26.0582 69.6726 26.0476 69.6726 26.1167V26.1646L69.7366 26.3507L69.7792 26.5315L69.8272 26.6911L69.8059 26.7336L69.8751 26.9145L69.9177 27.1006L69.955 27.2867L70.003 27.441L69.9817 27.4888L70.0456 27.6697L70.0936 27.8558L70.1362 28.01L70.1149 28.0526L70.1842 28.2387L70.2214 28.4249L70.2641 28.6057L70.312 28.7599L70.2907 28.8078L70.36 28.9886L70.4026 29.1747L70.4452 29.3343L70.4239 29.3981L70.4719 29.5098V29.563L70.5305 29.7438L70.5731 29.93L70.6211 30.0842L70.5997 30.1214L70.6477 30.2171L58.6434 30.2012L58.6754 30.1214ZM57.9934 24.0585L57.9294 24.2181L57.9454 24.2659L57.9028 24.4201L57.8602 24.601L57.8175 24.7871L57.7483 24.9679L57.7696 25.0158L57.7216 25.17L57.679 25.3509L57.6417 25.5317L57.5725 25.7178L57.5938 25.7657L57.5458 25.9199L57.5032 26.1007L57.4659 26.2816L57.3966 26.4677L57.4179 26.5103L57.37 26.6698L57.3274 26.8506L57.2634 27.0315L57.2794 27.0846L57.2208 27.2229L57.2421 27.2601L57.1942 27.4197L57.1515 27.6005L57.0876 27.7813L57.0929 27.8345L57.045 27.9462L57.0663 28.01L57.0183 28.1696L56.9757 28.3504L56.9118 28.5312V28.5844L56.8691 28.6961L56.8905 28.7599L56.8425 28.9195L56.7999 29.1003L56.7359 29.2811V29.3343L56.688 29.446L56.7093 29.5098L56.6667 29.6694L56.6187 29.8502L56.5601 30.0363L56.5761 30.0842L56.5388 30.2171L44.7689 30.2384L44.721 30.2171L44.5452 30.281L44.4812 30.2597L44.3747 30.3182L44.2788 30.3554L44.2468 30.3501L44.1562 30.4139L44.071 30.4511L44.0017 30.4777L43.9378 30.5469L43.8685 30.5682L43.8099 30.6426L43.7513 30.6586L43.7086 30.7011L43.666 30.7437C43.666 30.8075 43.6767 30.7915 43.6127 30.7915L43.5754 30.8288C43.5754 30.8926 43.5914 30.8766 43.5275 30.8766L43.4902 30.9192L43.4476 30.9723L43.4316 31.0255L43.3517 31.0893L43.3303 31.1585L43.2824 31.2223L43.2291 31.3074L43.1918 31.3978L43.1332 31.4989L43.1439 31.5361L43.1172 31.6265L43.0639 31.7914L43 32.0307V45.0287H86.2805V32.0307L86.2165 31.7914L86.1686 31.6265L86.1366 31.5361L86.1472 31.4989L86.0886 31.3978L86.046 31.3074L85.9981 31.2276L85.9501 31.1532L85.9288 31.0893L85.8489 31.0255L85.8329 30.9723L85.7903 30.9245L85.7476 30.8766L85.705 30.8288L85.6677 30.7862L85.6198 30.7437L85.5771 30.7011L85.5292 30.6586L85.4706 30.6213C85.4013 30.6213 85.4226 30.6373 85.4226 30.5682H85.396L85.3427 30.5309C85.2681 30.5309 85.2894 30.5522 85.2894 30.4777H85.2628L85.2042 30.4565L85.1242 30.4086L85.0337 30.3501L85.0017 30.3607L84.9058 30.3182L84.7992 30.2597L84.7353 30.281L84.5595 30.2171L84.5115 30.2384L72.7363 30.1959L72.7044 30.0842L72.7203 30.031L72.6617 29.8502L72.6138 29.6694L72.5658 29.5098L72.5871 29.446L72.5445 29.3343V29.2811L72.4806 29.1003L72.438 28.9195L72.39 28.7599L72.4113 28.6961L72.3634 28.5844L72.3687 28.5312L72.3047 28.3504L72.2621 28.1696L72.2142 28.01L72.2355 27.9462L72.1875 27.8345L72.1929 27.7813L72.1289 27.6005L72.0863 27.4197L72.0383 27.2601L72.0597 27.1963L72.0117 27.0846L72.017 27.0315L71.9531 26.8506L71.9105 26.6698L71.8625 26.5103L71.8838 26.4677L71.8146 26.2816L71.7773 26.1007L71.7346 25.9199L71.6867 25.7657L71.708 25.7178L71.6387 25.5317L71.6014 25.3509L71.5588 25.17L71.5109 25.0158L71.5268 24.9679L71.4629 24.7871L71.4203 24.601L71.3777 24.4201L71.335 24.2659L71.351 24.2181L71.2871 24.0585C71.2231 24.0585 71.2444 24.0691 71.2444 24H58.036L57.9934 24.0585Z" fill="white"/>
<path fill-rule="evenodd" clip-rule="evenodd" d="M43 57.1439L43.0586 57.3938L43.1119 57.5481L43.0906 57.5747L43.1439 57.6863L43.1865 57.7661L43.1758 57.7874C43.2451 57.7874 43.2238 57.7714 43.2238 57.8565L43.2185 57.8778C43.2877 57.8778 43.2664 57.8672 43.2664 57.9416V57.9629C43.341 57.9629 43.3144 57.9523 43.3144 58.0374L43.3783 58.1065L43.4049 58.1597L43.4422 58.2182L43.5222 58.2767L43.5488 58.3245L43.5861 58.3671L43.634 58.415L43.6767 58.4575L43.7246 58.4788L43.7832 58.5586L43.8472 58.5958L43.9005 58.6224L43.975 58.6702L44.0496 58.7394C44.1349 58.7394 44.1242 58.7075 44.1242 58.7819L44.1509 58.766L44.2255 58.8138L44.3267 58.8457L44.4439 58.8883L44.6198 58.9468L44.8329 59H84.4476L84.6607 58.9468L84.8312 58.8883L84.9537 58.8457L85.0443 58.8138L85.0656 58.8245C85.0656 58.7553 85.055 58.7819 85.1296 58.7819H85.1562C85.1562 58.7075 85.1402 58.7394 85.2361 58.7394L85.3107 58.6702L85.38 58.6224L85.4333 58.5958L85.4972 58.5586L85.5558 58.4788L85.6038 58.4575L85.6464 58.415C85.6464 58.3565 85.6304 58.3671 85.6944 58.3671L85.737 58.3245L85.7583 58.2767L85.8382 58.2182L85.8755 58.1544L85.9021 58.1012L85.9501 58.0374L86.014 57.9576C86.014 57.8618 85.9821 57.8778 86.0567 57.8778L86.062 57.8565L86.1046 57.7927L86.094 57.7661L86.1366 57.6863L86.1899 57.5747L86.1686 57.5481L86.2272 57.3938L86.2805 57.1758V47.4539H78.2882L78.2616 50.9214L73.5675 50.9055V47.4539H55.7129L55.6916 50.9214L50.9975 50.9108L50.9922 47.4539H43V57.1439H43Z" fill="white"/>
<path fill-rule="evenodd" clip-rule="evenodd" d="M86.2805 47.454C86.1153 47.3423 82.4868 47.4061 82.3057 47.4061C80.9523 47.4061 79.599 47.4061 78.2403 47.4061V50.8896H73.6048V47.4061H55.6756V50.8896H51.0402V47.4061L43.0906 47.4114C42.9947 47.4327 43.0533 47.4167 43 47.454H50.9922L50.9975 50.9109L55.6916 50.9215L55.7129 47.454H73.5675V50.9056L78.2616 50.9215L78.2882 47.454H86.2805Z" fill="white"/>
<path fill-rule="evenodd" clip-rule="evenodd" d="M86.2805 45.0287H43C43.1705 45.1351 48.1736 45.0712 48.3441 45.0712H85.6198C85.737 45.0712 85.8542 45.0712 85.9714 45.0712C86.2911 45.0766 86.2059 45.0766 86.2805 45.0287Z" fill="white"/>
<path fill-rule="evenodd" clip-rule="evenodd" d="M84.5117 30.2384C84.3945 30.1267 84.1494 30.1693 83.8511 30.1693H72.7685C72.7685 29.9938 72.7792 30.1533 72.7046 30.0842L72.7366 30.1959L84.5117 30.2384Z" fill="white"/>
<path fill-rule="evenodd" clip-rule="evenodd" d="M44.769 30.2384L56.5389 30.2172L56.5762 30.0842C56.4963 30.1267 56.5123 30.0097 56.5123 30.1693C52.8199 30.1693 48.8078 30.2225 45.1207 30.1693C44.6145 30.164 44.849 30.1587 44.769 30.2384Z" fill="white"/>
<path fill-rule="evenodd" clip-rule="evenodd" d="M70.5999 30.1215C70.5146 30.2385 70.0351 30.1693 69.8966 30.1693H59.3842C59.2669 30.1693 59.1497 30.1693 59.0325 30.1693H58.7714C58.6595 30.1427 58.7395 30.1746 58.6755 30.1215L58.6436 30.2012L70.6478 30.2172L70.5999 30.1215Z" fill="white"/>
<path fill-rule="evenodd" clip-rule="evenodd" d="M57.8173 24.7871L57.86 24.601C57.7427 24.6275 57.796 24.6914 57.8173 24.7871Z" fill="white"/>
<path fill-rule="evenodd" clip-rule="evenodd" d="M43.0639 31.7913L43.1172 31.6265C42.9947 31.6265 43.0426 31.6796 43.0639 31.7913Z" fill="white"/>
<path fill-rule="evenodd" clip-rule="evenodd" d="M59.3628 27.1007C59.48 27.0741 59.4267 27.0103 59.4054 26.9146L59.3628 27.1007Z" fill="white"/>
<path fill-rule="evenodd" clip-rule="evenodd" d="M58.8779 29.1747C58.9898 29.1428 58.9419 29.0896 58.9259 28.9885L58.8779 29.1747Z" fill="white"/>
<path fill-rule="evenodd" clip-rule="evenodd" d="M56.6187 29.8501L56.6667 29.6693C56.5548 29.7012 56.6027 29.7544 56.6187 29.8501Z" fill="white"/>
<path fill-rule="evenodd" clip-rule="evenodd" d="M56.8001 29.1004L56.8428 28.9196C56.7309 28.9515 56.7788 29.0047 56.8001 29.1004Z" fill="white"/>
<path fill-rule="evenodd" clip-rule="evenodd" d="M44.6202 58.9468L44.4443 58.8883C44.4656 59 44.5029 58.9628 44.6202 58.9468Z" fill="white"/>
<path fill-rule="evenodd" clip-rule="evenodd" d="M43 32.0307L43.0639 31.7914C43.0266 31.818 43.0107 31.8339 43 31.8499V32.0307Z" fill="white"/>
<path fill-rule="evenodd" clip-rule="evenodd" d="M57.466 26.2815L57.5033 26.1007C57.3915 26.1273 57.4447 26.1964 57.466 26.2815Z" fill="white"/>
<path fill-rule="evenodd" clip-rule="evenodd" d="M57.6418 25.5317L57.6791 25.3508C57.5672 25.3774 57.6205 25.4466 57.6418 25.5317Z" fill="white"/>
<path fill-rule="evenodd" clip-rule="evenodd" d="M59.187 27.8558C59.2989 27.8239 59.2509 27.7654 59.235 27.6697L59.187 27.8558Z" fill="white"/>
<path fill-rule="evenodd" clip-rule="evenodd" d="M57.8602 24.601L57.9028 24.4202C57.7909 24.4574 57.8389 24.5159 57.8602 24.601Z" fill="white"/>
<path fill-rule="evenodd" clip-rule="evenodd" d="M59.0591 28.4249C59.171 28.393 59.1177 28.3239 59.0964 28.2388L59.0591 28.4249Z" fill="white"/>
<path fill-rule="evenodd" clip-rule="evenodd" d="M56.9754 28.3504L57.018 28.1696C56.9114 28.2015 56.9541 28.2546 56.9754 28.3504Z" fill="white"/>
<path fill-rule="evenodd" clip-rule="evenodd" d="M56.6668 29.6693L56.7095 29.5098C56.5976 29.5098 56.6455 29.5789 56.6668 29.6693Z" fill="white"/>
<path fill-rule="evenodd" clip-rule="evenodd" d="M56.8424 28.9194L56.8904 28.7599C56.7732 28.7599 56.8211 28.829 56.8424 28.9194Z" fill="white"/>
<path fill-rule="evenodd" clip-rule="evenodd" d="M57.1516 27.6005L57.1943 27.4197C57.0877 27.4516 57.1303 27.5048 57.1516 27.6005Z" fill="white"/>
<path fill-rule="evenodd" clip-rule="evenodd" d="M71.463 24.7871C71.5163 24.6116 71.495 24.6648 71.4204 24.601L71.463 24.7871Z" fill="white"/>
<path fill-rule="evenodd" clip-rule="evenodd" d="M69.9179 27.1007L69.8753 26.9146C69.822 27.0901 69.838 27.0369 69.9179 27.1007Z" fill="white"/>
<path fill-rule="evenodd" clip-rule="evenodd" d="M59.0962 28.2386C59.2028 28.228 59.1655 28.1801 59.1655 28.0525L59.0962 28.2386Z" fill="white"/>
<path fill-rule="evenodd" clip-rule="evenodd" d="M59.144 28.0101C59.2559 28.0101 59.208 27.9462 59.1867 27.8558L59.144 28.0101Z" fill="white"/>
<path fill-rule="evenodd" clip-rule="evenodd" d="M57.3965 26.4678L57.4657 26.2816C57.3592 26.2976 57.3965 26.3454 57.3965 26.4678Z" fill="white"/>
<path fill-rule="evenodd" clip-rule="evenodd" d="M57.0182 28.1696L57.0662 28.01C56.9489 28.01 56.9969 28.0738 57.0182 28.1696Z" fill="white"/>
<path fill-rule="evenodd" clip-rule="evenodd" d="M59.501 26.5315C59.6075 26.4996 59.5596 26.4464 59.5436 26.3507L59.501 26.5315Z" fill="white"/>
<path fill-rule="evenodd" clip-rule="evenodd" d="M58.7021 29.9299C58.8087 29.8927 58.7661 29.8395 58.7501 29.7438L58.7021 29.9299Z" fill="white"/>
<path fill-rule="evenodd" clip-rule="evenodd" d="M57.5722 25.7179L57.6415 25.5317C57.5349 25.5477 57.5722 25.5956 57.5722 25.7179Z" fill="white"/>
<path fill-rule="evenodd" clip-rule="evenodd" d="M57.9298 24.218L57.9937 24.0584C57.8872 24.0372 57.9298 24.085 57.9298 24.218Z" fill="white"/>
<path fill-rule="evenodd" clip-rule="evenodd" d="M57.3274 26.8506L57.37 26.6698C57.2635 26.7017 57.3061 26.7549 57.3274 26.8506Z" fill="white"/>
<path fill-rule="evenodd" clip-rule="evenodd" d="M57.748 24.9679L57.8173 24.7871C57.7107 24.7977 57.748 24.8456 57.748 24.9679Z" fill="white"/>
<path fill-rule="evenodd" clip-rule="evenodd" d="M59.4053 26.9145C59.5118 26.9038 59.4745 26.856 59.4745 26.7336L59.4053 26.9145Z" fill="white"/>
<path fill-rule="evenodd" clip-rule="evenodd" d="M43.1119 57.5482L43.0586 57.3939C43 57.6014 43.0639 57.5216 43.1119 57.5482Z" fill="white"/>
<path fill-rule="evenodd" clip-rule="evenodd" d="M84.7354 30.281C84.7354 30.1746 84.6821 30.2171 84.5596 30.2171L84.7354 30.281Z" fill="white"/>
<path fill-rule="evenodd" clip-rule="evenodd" d="M57.1945 27.4197L57.2424 27.2601C57.1305 27.2601 57.1731 27.324 57.1945 27.4197Z" fill="white"/>
<path fill-rule="evenodd" clip-rule="evenodd" d="M59.3252 27.2867C59.4318 27.2442 59.3838 27.1857 59.3625 27.1006L59.3252 27.2867Z" fill="white"/>
<path fill-rule="evenodd" clip-rule="evenodd" d="M57.3697 26.6698L57.4177 26.5103C57.3058 26.5103 57.3484 26.5741 57.3697 26.6698Z" fill="white"/>
<path fill-rule="evenodd" clip-rule="evenodd" d="M57.5032 26.1007L57.5458 25.9199C57.4446 25.9518 57.4819 26.005 57.5032 26.1007Z" fill="white"/>
<path fill-rule="evenodd" clip-rule="evenodd" d="M57.5455 25.9199L57.5935 25.7656C57.4816 25.7656 57.5242 25.8241 57.5455 25.9199Z" fill="white"/>
<path fill-rule="evenodd" clip-rule="evenodd" d="M59.4536 26.691C59.5655 26.691 59.5176 26.6272 59.5016 26.5315L59.4536 26.691Z" fill="white"/>
<path fill-rule="evenodd" clip-rule="evenodd" d="M58.6592 30.0842C58.7711 30.0842 58.7231 30.0203 58.7018 29.9299L58.6592 30.0842Z" fill="white"/>
<path fill-rule="evenodd" clip-rule="evenodd" d="M70.4028 29.1747L70.3602 28.9885C70.3069 29.164 70.3282 29.1108 70.4028 29.1747Z" fill="white"/>
<path fill-rule="evenodd" clip-rule="evenodd" d="M57.6794 25.3507L57.7221 25.1699C57.6208 25.2072 57.6581 25.255 57.6794 25.3507Z" fill="white"/>
<path fill-rule="evenodd" clip-rule="evenodd" d="M57.7217 25.1701L57.7697 25.0159C57.6578 25.0159 57.7057 25.0744 57.7217 25.1701Z" fill="white"/>
<path fill-rule="evenodd" clip-rule="evenodd" d="M84.8312 58.8883L84.6606 58.9468C84.8685 58.984 84.7832 58.9574 84.8312 58.8883Z" fill="white"/>
<path fill-rule="evenodd" clip-rule="evenodd" d="M70.4454 29.3342L70.4028 29.1747C70.3388 29.3661 70.3921 29.3023 70.4454 29.3342Z" fill="white"/>
<path fill-rule="evenodd" clip-rule="evenodd" d="M86.1685 57.5482C86.2803 57.5482 86.2377 57.5056 86.2271 57.3939L86.1685 57.5482Z" fill="white"/>
<path fill-rule="evenodd" clip-rule="evenodd" d="M59.0161 28.6056C59.1173 28.5684 59.0747 28.5205 59.0587 28.4248L59.0161 28.6056Z" fill="white"/>
<path fill-rule="evenodd" clip-rule="evenodd" d="M57.9027 24.4201L57.9453 24.2659C57.8334 24.2659 57.8814 24.3244 57.9027 24.4201Z" fill="white"/>
<path fill-rule="evenodd" clip-rule="evenodd" d="M58.9683 28.7599C59.0802 28.7599 59.0322 28.7014 59.0162 28.6057L58.9683 28.7599Z" fill="white"/>
<path fill-rule="evenodd" clip-rule="evenodd" d="M86.2164 31.7913C86.2697 31.5892 86.2271 31.6584 86.1685 31.6265L86.2164 31.7913Z" fill="white"/>
<path fill-rule="evenodd" clip-rule="evenodd" d="M70.1362 28.0101L70.0935 27.8558C70.0296 28.0473 70.0882 27.9835 70.1362 28.0101Z" fill="white"/>
<path fill-rule="evenodd" clip-rule="evenodd" d="M72.6139 29.6693C72.6725 29.4725 72.6192 29.5364 72.5659 29.5098L72.6139 29.6693Z" fill="white"/>
<path fill-rule="evenodd" clip-rule="evenodd" d="M58.9258 28.9886C59.027 28.9779 58.9897 28.9301 58.9897 28.8077L58.9258 28.9886Z" fill="white"/>
<path fill-rule="evenodd" clip-rule="evenodd" d="M72.4381 28.9194C72.4967 28.7227 72.4434 28.7918 72.3901 28.7599L72.4381 28.9194Z" fill="white"/>
<path fill-rule="evenodd" clip-rule="evenodd" d="M58.8403 29.3342C58.9469 29.3342 58.8989 29.2545 58.8776 29.1747L58.8403 29.3342Z" fill="white"/>
<path fill-rule="evenodd" clip-rule="evenodd" d="M72.2623 28.1696C72.3209 27.9675 72.2623 28.0419 72.2144 28.01L72.2623 28.1696Z" fill="white"/>
<path fill-rule="evenodd" clip-rule="evenodd" d="M70.0937 27.8558L70.0457 27.6697C70.0031 27.8399 70.0191 27.792 70.0937 27.8558Z" fill="white"/>
<path fill-rule="evenodd" clip-rule="evenodd" d="M72.0865 27.4197C72.1451 27.2176 72.0865 27.292 72.0386 27.2601L72.0865 27.4197Z" fill="white"/>
<path fill-rule="evenodd" clip-rule="evenodd" d="M69.8269 26.691L69.7789 26.5315C69.7203 26.7336 69.7789 26.6591 69.8269 26.691Z" fill="white"/>
<path fill-rule="evenodd" clip-rule="evenodd" d="M70.621 30.0842L70.573 29.9299C70.5197 30.1267 70.573 30.0576 70.621 30.0842Z" fill="white"/>
<path fill-rule="evenodd" clip-rule="evenodd" d="M44.8332 59L44.6201 58.9468C44.6308 58.9787 44.6414 58.9946 44.6627 59H44.8332Z" fill="white"/>
<path fill-rule="evenodd" clip-rule="evenodd" d="M59.2778 27.441C59.3844 27.441 59.3418 27.3825 59.3258 27.2867L59.2778 27.441Z" fill="white"/>
<path fill-rule="evenodd" clip-rule="evenodd" d="M71.9103 26.6698C71.9689 26.473 71.9103 26.5422 71.8623 26.5103L71.9103 26.6698Z" fill="white"/>
<path fill-rule="evenodd" clip-rule="evenodd" d="M71.7345 25.9199C71.7878 25.7231 71.7345 25.7922 71.6865 25.7656L71.7345 25.9199Z" fill="white"/>
<path fill-rule="evenodd" clip-rule="evenodd" d="M56.5602 30.0362L56.6188 29.8501C56.5175 29.8714 56.5602 29.9139 56.5602 30.0362Z" fill="white"/>
<path fill-rule="evenodd" clip-rule="evenodd" d="M71.5587 25.1701C71.612 24.968 71.5587 25.0425 71.5107 25.0159L71.5587 25.1701Z" fill="white"/>
<path fill-rule="evenodd" clip-rule="evenodd" d="M70.2215 28.4249L70.1842 28.2388C70.1309 28.3983 70.1469 28.3611 70.2215 28.4249Z" fill="white"/>
<path fill-rule="evenodd" clip-rule="evenodd" d="M70.3119 28.7599L70.2639 28.6057C70.2106 28.8025 70.2639 28.7334 70.3119 28.7599Z" fill="white"/>
<path fill-rule="evenodd" clip-rule="evenodd" d="M56.7362 29.2812L56.8001 29.1003C56.6989 29.1216 56.7362 29.1642 56.7362 29.2812Z" fill="white"/>
<path fill-rule="evenodd" clip-rule="evenodd" d="M59.2349 27.6696C59.3361 27.6536 59.2988 27.6058 59.2988 27.4888L59.2349 27.6696Z" fill="white"/>
<path fill-rule="evenodd" clip-rule="evenodd" d="M72.6617 29.8501C72.7043 29.6799 72.6884 29.7331 72.6138 29.6693L72.6617 29.8501Z" fill="white"/>
<path fill-rule="evenodd" clip-rule="evenodd" d="M72.4806 29.1004C72.5286 28.9355 72.5126 28.9834 72.438 28.9196L72.4806 29.1004Z" fill="white"/>
<path fill-rule="evenodd" clip-rule="evenodd" d="M71.3776 24.4201C71.4362 24.2233 71.3829 24.2925 71.335 24.2659L71.3776 24.4201Z" fill="white"/>
<path fill-rule="evenodd" clip-rule="evenodd" d="M71.4206 24.601C71.4738 24.4414 71.4472 24.484 71.3779 24.4202L71.4206 24.601Z" fill="white"/>
<path fill-rule="evenodd" clip-rule="evenodd" d="M71.8146 26.2815C71.8679 26.122 71.8519 26.1645 71.7773 26.1007L71.8146 26.2815Z" fill="white"/>
<path fill-rule="evenodd" clip-rule="evenodd" d="M71.6389 25.5317C71.6868 25.3721 71.6762 25.4147 71.6016 25.3508L71.6389 25.5317Z" fill="white"/>
<path fill-rule="evenodd" clip-rule="evenodd" d="M69.9549 27.2867L69.9176 27.1006C69.8644 27.2601 69.891 27.2176 69.9549 27.2867Z" fill="white"/>
<path fill-rule="evenodd" clip-rule="evenodd" d="M70.0028 27.441L69.9548 27.2867C69.9016 27.4835 69.9602 27.4144 70.0028 27.441Z" fill="white"/>
<path fill-rule="evenodd" clip-rule="evenodd" d="M70.573 29.9299L70.5303 29.7438C70.4877 29.9086 70.5037 29.8608 70.573 29.9299Z" fill="white"/>
<path fill-rule="evenodd" clip-rule="evenodd" d="M69.779 26.5315L69.7364 26.3507C69.6938 26.5156 69.7098 26.4677 69.779 26.5315Z" fill="white"/>
<path fill-rule="evenodd" clip-rule="evenodd" d="M84.9536 58.8457L84.8311 58.8883C84.9696 58.9893 84.9483 58.851 84.9536 58.8457Z" fill="white"/>
<path fill-rule="evenodd" clip-rule="evenodd" d="M72.3048 28.3504C72.3474 28.1855 72.3315 28.2334 72.2622 28.1696L72.3048 28.3504Z" fill="white"/>
<path fill-rule="evenodd" clip-rule="evenodd" d="M72.129 27.6005C72.1717 27.4356 72.1557 27.4835 72.0864 27.4197L72.129 27.6005Z" fill="white"/>
<path fill-rule="evenodd" clip-rule="evenodd" d="M71.9528 26.8506C71.9954 26.6858 71.9794 26.7336 71.9102 26.6698L71.9528 26.8506Z" fill="white"/>
<path fill-rule="evenodd" clip-rule="evenodd" d="M71.777 26.1007C71.8196 25.9306 71.7983 25.9837 71.7344 25.9199L71.777 26.1007Z" fill="white"/>
<path fill-rule="evenodd" clip-rule="evenodd" d="M70.264 28.6056L70.2214 28.4248C70.1788 28.5897 70.2001 28.5418 70.264 28.6056Z" fill="white"/>
<path fill-rule="evenodd" clip-rule="evenodd" d="M71.6012 25.3507C71.6439 25.1806 71.6225 25.2337 71.5586 25.1699L71.6012 25.3507Z" fill="white"/>
<path fill-rule="evenodd" clip-rule="evenodd" d="M70.1842 28.2386L70.115 28.0525C70.115 28.2546 70.0937 28.1801 70.1842 28.2386Z" fill="white"/>
<path fill-rule="evenodd" clip-rule="evenodd" d="M71.351 24.218C71.351 23.984 71.3724 24.0904 71.2871 24.0585L71.351 24.218Z" fill="white"/>
<path fill-rule="evenodd" clip-rule="evenodd" d="M71.8837 26.4678C71.8837 26.271 71.905 26.3454 71.8145 26.2816L71.8837 26.4678Z" fill="white"/>
<path fill-rule="evenodd" clip-rule="evenodd" d="M69.8752 26.9145L69.8059 26.7336C69.8059 26.9411 69.7846 26.856 69.8752 26.9145Z" fill="white"/>
<path fill-rule="evenodd" clip-rule="evenodd" d="M71.7079 25.7179C71.7079 25.5211 71.7292 25.5956 71.6387 25.5317L71.7079 25.7179Z" fill="white"/>
<path fill-rule="evenodd" clip-rule="evenodd" d="M71.5268 24.9679C71.5268 24.7658 71.5535 24.8456 71.4629 24.7871L71.5268 24.9679Z" fill="white"/>
<path fill-rule="evenodd" clip-rule="evenodd" d="M44.7212 30.2171C44.5081 30.2171 44.5934 30.1958 44.5454 30.2809L44.7212 30.2171Z" fill="white"/>
<path fill-rule="evenodd" clip-rule="evenodd" d="M44.4438 58.8882L44.3266 58.8457C44.3212 58.968 44.3692 58.9148 44.4438 58.8882Z" fill="white"/>
<path fill-rule="evenodd" clip-rule="evenodd" d="M86.2807 31.935C86.2807 31.919 86.2807 31.9031 86.2754 31.8924C86.2434 31.7807 86.2914 31.8765 86.2168 31.7914L86.2807 32.0307V31.935Z" fill="white"/>
<path fill-rule="evenodd" clip-rule="evenodd" d="M84.6609 58.9468L84.4478 59H84.6076C84.6183 58.9946 84.6289 58.9787 84.6609 58.9468Z" fill="white"/>
<path fill-rule="evenodd" clip-rule="evenodd" d="M70.36 28.9886L70.2908 28.8077C70.2908 29.0045 70.2694 28.9301 70.36 28.9886Z" fill="white"/>
<path fill-rule="evenodd" clip-rule="evenodd" d="M43.0586 57.3939L43 57.1439V57.2397C43 57.2556 43 57.2716 43.0053 57.2822C43.032 57.3833 42.9947 57.3035 43.0586 57.3939Z" fill="white"/>
<path fill-rule="evenodd" clip-rule="evenodd" d="M70.0453 27.6696L69.9814 27.4888C69.9814 27.6802 69.9601 27.6058 70.0453 27.6696Z" fill="white"/>
<path fill-rule="evenodd" clip-rule="evenodd" d="M72.7202 30.0309C72.7202 29.8448 72.7469 29.9192 72.6616 29.8501L72.7202 30.0309Z" fill="white"/>
<path fill-rule="evenodd" clip-rule="evenodd" d="M72.5444 29.2812C72.5444 29.0206 72.5444 29.1801 72.4805 29.1003L72.5444 29.2812Z" fill="white"/>
<path fill-rule="evenodd" clip-rule="evenodd" d="M69.7368 26.3507L69.6729 26.1646C69.6729 26.4251 69.6782 26.2709 69.7368 26.3507Z" fill="white"/>
<path fill-rule="evenodd" clip-rule="evenodd" d="M56.9116 28.5312L56.9756 28.3503C56.9116 28.4301 56.9116 28.2706 56.9116 28.5312Z" fill="white"/>
<path fill-rule="evenodd" clip-rule="evenodd" d="M70.5308 29.7438L70.4722 29.563C70.4722 29.8236 70.4722 29.664 70.5308 29.7438Z" fill="white"/>
<path fill-rule="evenodd" clip-rule="evenodd" d="M57.0874 27.7814L57.1513 27.6006C57.0927 27.6804 57.0874 27.5261 57.0874 27.7814Z" fill="white"/>
<path fill-rule="evenodd" clip-rule="evenodd" d="M72.3686 28.5312C72.3686 28.2759 72.3633 28.4248 72.3047 28.3503L72.3686 28.5312Z" fill="white"/>
<path fill-rule="evenodd" clip-rule="evenodd" d="M58.75 29.7438C58.8086 29.6694 58.8086 29.8183 58.8086 29.563L58.75 29.7438Z" fill="white"/>
<path fill-rule="evenodd" clip-rule="evenodd" d="M59.5439 26.3507C59.6026 26.2762 59.6079 26.4251 59.6079 26.1646L59.5439 26.3507Z" fill="white"/>
<path fill-rule="evenodd" clip-rule="evenodd" d="M72.1928 27.7814C72.1928 27.5261 72.1875 27.6804 72.1289 27.6006L72.1928 27.7814Z" fill="white"/>
<path fill-rule="evenodd" clip-rule="evenodd" d="M57.2632 27.0314L57.3271 26.8506C57.2685 26.925 57.2632 26.7814 57.2632 27.0314Z" fill="white"/>
<path fill-rule="evenodd" clip-rule="evenodd" d="M72.0171 27.0314C72.0171 26.7814 72.0117 26.925 71.9531 26.8506L72.0171 27.0314Z" fill="white"/>
<path fill-rule="evenodd" clip-rule="evenodd" d="M43.3143 58.0374C43.3143 57.9523 43.3409 57.9629 43.2663 57.9629C43.2663 58.048 43.2397 58.0268 43.3143 58.0374Z" fill="white"/>
<path fill-rule="evenodd" clip-rule="evenodd" d="M57.2208 27.2229L57.2794 27.0846C57.2101 27.1431 57.2208 26.9889 57.2208 27.2229Z" fill="white"/>
<path fill-rule="evenodd" clip-rule="evenodd" d="M85.3427 30.531C85.3587 30.4565 85.3693 30.4778 85.2894 30.4778C85.2894 30.5522 85.2681 30.531 85.3427 30.531Z" fill="white"/>
<path fill-rule="evenodd" clip-rule="evenodd" d="M85.4705 30.6213C85.4918 30.5468 85.5025 30.5681 85.4225 30.5681C85.4225 30.6373 85.4012 30.6213 85.4705 30.6213Z" fill="white"/>
<path fill-rule="evenodd" clip-rule="evenodd" d="M43.2239 57.8566C43.2239 57.7715 43.2452 57.7874 43.1759 57.7874C43.1759 57.8672 43.1546 57.8566 43.2239 57.8566Z" fill="white"/>
<path fill-rule="evenodd" clip-rule="evenodd" d="M71.2872 24.0585C71.3032 24.0213 71.3085 24.0053 71.3085 24H71.2446C71.2446 24.0691 71.2233 24.0585 71.2872 24.0585Z" fill="white"/>
<path fill-rule="evenodd" clip-rule="evenodd" d="M43.2664 57.9415C43.2664 57.8671 43.2877 57.8777 43.2184 57.8777C43.2184 57.9575 43.1971 57.9415 43.2664 57.9415Z" fill="white"/>
<path fill-rule="evenodd" clip-rule="evenodd" d="M85.1294 58.782C85.0548 58.782 85.0655 58.7554 85.0655 58.8246C85.1454 58.8246 85.1294 58.8458 85.1294 58.782Z" fill="white"/>
<path fill-rule="evenodd" clip-rule="evenodd" d="M44.4814 30.2597C44.2949 30.2597 44.4015 30.2438 44.3748 30.3182L44.4814 30.2597Z" fill="white"/>
<path fill-rule="evenodd" clip-rule="evenodd" d="M84.9059 30.3182C84.8792 30.2438 84.9805 30.2597 84.7993 30.2597L84.9059 30.3182Z" fill="white"/>
<path fill-rule="evenodd" clip-rule="evenodd" d="M85.204 30.4565C85.188 30.3767 85.2785 30.3767 85.124 30.4086L85.204 30.4565Z" fill="white"/>
<path fill-rule="evenodd" clip-rule="evenodd" d="M85.6943 58.3671C85.6303 58.3671 85.6463 58.3565 85.6463 58.415C85.7262 58.4309 85.7102 58.4469 85.6943 58.3671Z" fill="white"/>
<path fill-rule="evenodd" clip-rule="evenodd" d="M44.2472 30.3501C44.082 30.3501 44.1779 30.3289 44.1566 30.414L44.2472 30.3501Z" fill="white"/>
<path fill-rule="evenodd" clip-rule="evenodd" d="M85.1243 30.4086C85.0976 30.3288 85.1989 30.3501 85.0337 30.3501L85.1243 30.4086Z" fill="white"/>
<path fill-rule="evenodd" clip-rule="evenodd" d="M85.5557 58.4788L85.4971 58.5585C85.6303 58.5585 85.545 58.5798 85.5557 58.4788Z" fill="white"/>
<path fill-rule="evenodd" clip-rule="evenodd" d="M43.9754 58.6702L43.9008 58.6223C43.9114 58.7074 43.8369 58.7128 43.9754 58.6702Z" fill="white"/>
<path fill-rule="evenodd" clip-rule="evenodd" d="M44.1561 30.4139C44.0016 30.3714 44.0921 30.3767 44.0708 30.4512L44.1561 30.4139Z" fill="white"/>
<path fill-rule="evenodd" clip-rule="evenodd" d="M43.783 58.5585L43.7244 58.4788C43.7351 58.5798 43.6445 58.5585 43.783 58.5585Z" fill="white"/>
<path fill-rule="evenodd" clip-rule="evenodd" d="M85.7583 58.2768C85.8596 58.2661 85.8383 58.3565 85.8383 58.2183L85.7583 58.2768Z" fill="white"/>
<path fill-rule="evenodd" clip-rule="evenodd" d="M43.144 57.6864L43.0907 57.5747C43.0907 57.7502 43.0694 57.6439 43.144 57.6864Z" fill="white"/>
<path fill-rule="evenodd" clip-rule="evenodd" d="M43.5222 58.2768L43.4423 58.2183C43.4423 58.3565 43.421 58.2661 43.5222 58.2768Z" fill="white"/>
<path fill-rule="evenodd" clip-rule="evenodd" d="M86.1367 57.6864C86.206 57.6439 86.19 57.7502 86.19 57.5747L86.1367 57.6864Z" fill="white"/>
<path fill-rule="evenodd" clip-rule="evenodd" d="M59.6505 26.0582C59.5866 26.0582 59.6079 26.0476 59.6079 26.1167C59.6718 26.1167 59.6505 26.1273 59.6505 26.0582Z" fill="white"/>
<path fill-rule="evenodd" clip-rule="evenodd" d="M43.352 31.0894L43.4319 31.0255C43.3307 31.0362 43.352 30.9511 43.352 31.0894Z" fill="white"/>
<path fill-rule="evenodd" clip-rule="evenodd" d="M85.929 31.0894C85.9237 30.9511 85.945 31.0362 85.8491 31.0255L85.929 31.0894Z" fill="white"/>
<path fill-rule="evenodd" clip-rule="evenodd" d="M85.3803 58.6223L85.311 58.6702C85.4442 58.7128 85.3696 58.7074 85.3803 58.6223Z" fill="white"/>
<path fill-rule="evenodd" clip-rule="evenodd" d="M69.6725 26.1167C69.6725 26.0476 69.6938 26.0582 69.6299 26.0582C69.6299 26.1273 69.6086 26.1167 69.6725 26.1167Z" fill="white"/>
<path fill-rule="evenodd" clip-rule="evenodd" d="M44.3268 58.8458L44.2256 58.8138C44.2735 58.883 44.1883 58.8883 44.3268 58.8458Z" fill="white"/>
<path fill-rule="evenodd" clip-rule="evenodd" d="M86.1475 31.4989C86.1475 31.3393 86.1635 31.4404 86.0889 31.3978L86.1475 31.4989Z" fill="white"/>
<path fill-rule="evenodd" clip-rule="evenodd" d="M43.3782 58.1065L43.3142 58.0374C43.3036 58.1809 43.2929 58.0905 43.3782 58.1065Z" fill="white"/>
<path fill-rule="evenodd" clip-rule="evenodd" d="M43.1333 31.4989L43.1919 31.3978C43.1173 31.4404 43.1333 31.3393 43.1333 31.4989Z" fill="white"/>
<path fill-rule="evenodd" clip-rule="evenodd" d="M43.8689 30.5681C43.7357 30.5681 43.8263 30.5468 43.8103 30.6425L43.8689 30.5681Z" fill="white"/>
<path fill-rule="evenodd" clip-rule="evenodd" d="M85.9023 58.1012C85.9823 58.0905 85.9876 58.1703 85.9503 58.0374L85.9023 58.1012Z" fill="white"/>
<path fill-rule="evenodd" clip-rule="evenodd" d="M85.9982 31.2275C86.0301 31.0893 86.0301 31.169 85.9502 31.1531L85.9982 31.2275Z" fill="white"/>
<path fill-rule="evenodd" clip-rule="evenodd" d="M43.2821 31.2223L43.33 31.1584C43.2501 31.1691 43.2448 31.0893 43.2821 31.2223Z" fill="white"/>
<path fill-rule="evenodd" clip-rule="evenodd" d="M85.0442 58.8138L84.9536 58.8457C85.0921 58.8883 85.0122 58.8777 85.0442 58.8138Z" fill="white"/>
<path fill-rule="evenodd" clip-rule="evenodd" d="M58.8086 29.5099C58.8672 29.478 58.8566 29.579 58.8566 29.3982L58.8086 29.5099Z" fill="white"/>
<path fill-rule="evenodd" clip-rule="evenodd" d="M72.5871 29.446C72.5871 29.2652 72.603 29.3662 72.5444 29.3343L72.5871 29.446Z" fill="white"/>
<path fill-rule="evenodd" clip-rule="evenodd" d="M70.4721 29.5099L70.4241 29.3982C70.4241 29.579 70.4134 29.478 70.4721 29.5099Z" fill="white"/>
<path fill-rule="evenodd" clip-rule="evenodd" d="M56.6878 29.446L56.7357 29.3343C56.6771 29.3662 56.6878 29.2652 56.6878 29.446Z" fill="white"/>
<path fill-rule="evenodd" clip-rule="evenodd" d="M72.4112 28.6962C72.4112 28.5153 72.4272 28.6217 72.3633 28.5845L72.4112 28.6962Z" fill="white"/>
<path fill-rule="evenodd" clip-rule="evenodd" d="M56.8692 28.6962L56.9118 28.5845C56.8532 28.6217 56.8692 28.5153 56.8692 28.6962Z" fill="white"/>
<path fill-rule="evenodd" clip-rule="evenodd" d="M72.2355 27.9463C72.2355 27.7655 72.2515 27.8718 72.1875 27.8346L72.2355 27.9463Z" fill="white"/>
<path fill-rule="evenodd" clip-rule="evenodd" d="M57.0452 27.9463L57.0932 27.8346C57.0292 27.8718 57.0452 27.7655 57.0452 27.9463Z" fill="white"/>
<path fill-rule="evenodd" clip-rule="evenodd" d="M72.0597 27.1963C72.0597 27.0155 72.0757 27.1218 72.0117 27.0846L72.0597 27.1963Z" fill="white"/>
<path fill-rule="evenodd" clip-rule="evenodd" d="M85.0017 30.3608C84.9644 30.2916 85.0549 30.2916 84.9058 30.3182L85.0017 30.3608Z" fill="white"/>
<path fill-rule="evenodd" clip-rule="evenodd" d="M43.2291 31.3074L43.2823 31.2223C43.2077 31.2648 43.2077 31.1797 43.2291 31.3074Z" fill="white"/>
<path fill-rule="evenodd" clip-rule="evenodd" d="M86.1687 31.6264C86.2113 31.4881 86.2006 31.5679 86.1367 31.536L86.1687 31.6264Z" fill="white"/>
<path fill-rule="evenodd" clip-rule="evenodd" d="M43.117 31.6264L43.1437 31.536C43.0797 31.5679 43.0638 31.4935 43.117 31.6264Z" fill="white"/>
<path fill-rule="evenodd" clip-rule="evenodd" d="M44.0493 58.7394L43.9747 58.6703C44.0067 58.7554 43.9108 58.7341 44.0493 58.7394Z" fill="white"/>
<path fill-rule="evenodd" clip-rule="evenodd" d="M44.3747 30.3182C44.2309 30.2916 44.3108 30.2916 44.2788 30.3554L44.3747 30.3182Z" fill="white"/>
<path fill-rule="evenodd" clip-rule="evenodd" d="M44.0017 30.4778C43.8685 30.4831 43.9591 30.4618 43.9378 30.5469L44.0017 30.4778Z" fill="white"/>
<path fill-rule="evenodd" clip-rule="evenodd" d="M85.3109 58.6703L85.2363 58.7394C85.3642 58.7341 85.2736 58.7554 85.3109 58.6703Z" fill="white"/>
<path fill-rule="evenodd" clip-rule="evenodd" d="M86.0885 31.3978C86.1152 31.2755 86.1152 31.3499 86.0459 31.3074L86.0885 31.3978Z" fill="white"/>
<path fill-rule="evenodd" clip-rule="evenodd" d="M86.046 31.3074C86.0727 31.1798 86.0727 31.2596 85.998 31.2277L86.046 31.3074Z" fill="white"/>
<path fill-rule="evenodd" clip-rule="evenodd" d="M44.2252 58.8139L44.1506 58.766C44.1772 58.8351 44.0973 58.8351 44.2252 58.8139Z" fill="white"/>
<path fill-rule="evenodd" clip-rule="evenodd" d="M43.1861 57.7661L43.1435 57.6863C43.1169 57.8246 43.1222 57.7341 43.1861 57.7661Z" fill="white"/>
<path fill-rule="evenodd" clip-rule="evenodd" d="M86.0942 57.7661C86.1582 57.7341 86.1582 57.8246 86.1369 57.6863L86.0942 57.7661Z" fill="white"/>
<path fill-rule="evenodd" clip-rule="evenodd" d="M43.1916 31.3978L43.2289 31.3074C43.165 31.3499 43.165 31.2755 43.1916 31.3978Z" fill="white"/>
<path fill-rule="evenodd" clip-rule="evenodd" d="M86.0567 57.8778C85.9822 57.8778 86.0141 57.8619 86.0141 57.9576L86.0567 57.8778Z" fill="white"/>
<path fill-rule="evenodd" clip-rule="evenodd" d="M85.9502 58.0374C86.0301 57.9949 86.0195 58.0853 86.0142 57.9576L85.9502 58.0374Z" fill="white"/>
<path fill-rule="evenodd" clip-rule="evenodd" d="M57.9721 24C57.9668 24.0053 57.9774 24.0213 57.9934 24.0585L58.036 24H57.9721Z" fill="white"/>
<path fill-rule="evenodd" clip-rule="evenodd" d="M85.2362 58.7395C85.1403 58.7395 85.1563 58.7076 85.1563 58.782L85.2362 58.7395Z" fill="white"/>
<path fill-rule="evenodd" clip-rule="evenodd" d="M44.1244 58.782C44.1244 58.7076 44.1351 58.7395 44.0498 58.7395L44.1244 58.782Z" fill="white"/>
<path fill-rule="evenodd" clip-rule="evenodd" d="M43.6338 58.4149L43.5858 58.3671C43.5698 58.4469 43.5538 58.4309 43.6338 58.4149Z" fill="white"/>
<path fill-rule="evenodd" clip-rule="evenodd" d="M85.6036 58.4575L85.5557 58.4788C85.6303 58.5267 85.6249 58.5479 85.6036 58.4575Z" fill="white"/>
<path fill-rule="evenodd" clip-rule="evenodd" d="M43.7249 58.4788L43.6769 58.4575C43.6556 58.5426 43.6503 58.5267 43.7249 58.4788Z" fill="white"/>
<path fill-rule="evenodd" clip-rule="evenodd" d="M43.5491 58.3246L43.5225 58.2767C43.4799 58.3565 43.4586 58.3459 43.5491 58.3246Z" fill="white"/>
<path fill-rule="evenodd" clip-rule="evenodd" d="M85.7581 58.2767L85.7368 58.3246C85.8221 58.3459 85.8007 58.3565 85.7581 58.2767Z" fill="white"/>
<path fill-rule="evenodd" clip-rule="evenodd" d="M43.5863 58.3671L43.549 58.3246C43.5277 58.4044 43.5117 58.3884 43.5863 58.3671Z" fill="white"/>
<path fill-rule="evenodd" clip-rule="evenodd" d="M43.6765 58.4576L43.6339 58.415C43.6126 58.4948 43.6019 58.4789 43.6765 58.4576Z" fill="white"/>
<path fill-rule="evenodd" clip-rule="evenodd" d="M85.737 58.3246L85.6943 58.3671C85.7689 58.3884 85.753 58.4044 85.737 58.3246Z" fill="white"/>
<path fill-rule="evenodd" clip-rule="evenodd" d="M85.6466 58.415L85.604 58.4576C85.6786 58.4789 85.6679 58.4948 85.6466 58.415Z" fill="white"/>
<path fill-rule="evenodd" clip-rule="evenodd" d="M85.4332 58.5958L85.3799 58.6224C85.4545 58.6543 85.4438 58.6756 85.4332 58.5958Z" fill="white"/>
<path fill-rule="evenodd" clip-rule="evenodd" d="M43.4475 30.9724C43.3676 30.9617 43.3889 30.9511 43.4315 31.0256L43.4475 30.9724Z" fill="white"/>
<path fill-rule="evenodd" clip-rule="evenodd" d="M43.9007 58.6224L43.8474 58.5958C43.8367 58.6756 43.8261 58.6543 43.9007 58.6224Z" fill="white"/>
<path fill-rule="evenodd" clip-rule="evenodd" d="M85.849 31.0256C85.8863 30.9511 85.9129 30.9617 85.833 30.9724L85.849 31.0256Z" fill="white"/>
<path fill-rule="evenodd" clip-rule="evenodd" d="M85.9021 58.1012L85.8755 58.1544C85.9501 58.165 85.9341 58.1756 85.9021 58.1012Z" fill="white"/>
<path fill-rule="evenodd" clip-rule="evenodd" d="M43.3518 31.0894C43.2878 31.1 43.3038 31.084 43.3305 31.1585L43.3518 31.0894Z" fill="white"/>
<path fill-rule="evenodd" clip-rule="evenodd" d="M43.4049 58.1596L43.3783 58.1064C43.3463 58.1756 43.3304 58.1649 43.4049 58.1596Z" fill="white"/>
<path fill-rule="evenodd" clip-rule="evenodd" d="M85.95 31.1532C85.9767 31.084 85.9927 31.1 85.9287 31.0894L85.95 31.1532Z" fill="white"/>
<path fill-rule="evenodd" clip-rule="evenodd" d="M85.5293 30.6586C85.5293 30.5894 85.5453 30.6107 85.4707 30.6214L85.5293 30.6586Z" fill="white"/>
<path fill-rule="evenodd" clip-rule="evenodd" d="M43.8097 30.6427C43.7404 30.6055 43.7511 30.5842 43.7511 30.6586L43.8097 30.6427Z" fill="white"/>
<path fill-rule="evenodd" clip-rule="evenodd" d="M43.9379 30.5469C43.8687 30.5203 43.89 30.5043 43.8687 30.5681L43.9379 30.5469Z" fill="white"/>
<path fill-rule="evenodd" clip-rule="evenodd" d="M44.0707 30.4511C44.0015 30.4298 44.0228 30.4139 44.0015 30.4777L44.0707 30.4511Z" fill="white"/>
<path fill-rule="evenodd" clip-rule="evenodd" d="M43.4902 30.9191C43.4209 30.9191 43.4369 30.9085 43.4475 30.9723L43.4902 30.9191Z" fill="white"/>
<path fill-rule="evenodd" clip-rule="evenodd" d="M85.8327 30.9724C85.838 30.9086 85.8593 30.9192 85.79 30.9245L85.8327 30.9724Z" fill="white"/>
<path fill-rule="evenodd" clip-rule="evenodd" d="M85.3961 30.5681C85.3961 30.5043 85.412 30.5203 85.3428 30.5309L85.3961 30.5681Z" fill="white"/>
<path fill-rule="evenodd" clip-rule="evenodd" d="M43.5753 30.8287L43.5273 30.8766C43.5913 30.8766 43.5753 30.8926 43.5753 30.8287Z" fill="white"/>
<path fill-rule="evenodd" clip-rule="evenodd" d="M43.6656 30.7437L43.6123 30.7915C43.6762 30.7915 43.6656 30.8075 43.6656 30.7437Z" fill="white"/>
<path fill-rule="evenodd" clip-rule="evenodd" d="M85.7902 30.9245C85.7955 30.8607 85.8115 30.8767 85.7476 30.8767L85.7902 30.9245Z" fill="white"/>
<path fill-rule="evenodd" clip-rule="evenodd" d="M86.2271 57.3938C86.2537 57.3513 86.2697 57.3247 86.2803 57.3141V57.3726C86.2643 57.4151 86.2377 57.447 86.2643 57.3194C86.275 57.2662 86.2803 57.2609 86.2803 57.229V57.1758L86.2271 57.3938Z" fill="white"/>
<path fill-rule="evenodd" clip-rule="evenodd" d="M85.6676 30.7862L85.6196 30.7437L85.6676 30.7862Z" fill="white"/>
<path fill-rule="evenodd" clip-rule="evenodd" d="M85.8765 58.1544L85.8384 58.2182L85.8765 58.1544Z" fill="white"/>
<path fill-rule="evenodd" clip-rule="evenodd" d="M43.4429 58.2182L43.4048 58.1597L43.4429 58.2182Z" fill="white"/>
<path fill-rule="evenodd" clip-rule="evenodd" d="M43.6138 30.7915L43.5757 30.8287L43.6138 30.7915Z" fill="white"/>
<path fill-rule="evenodd" clip-rule="evenodd" d="M85.6207 30.7437L85.5771 30.7012L85.6207 30.7437Z" fill="white"/>
<path fill-rule="evenodd" clip-rule="evenodd" d="M43.7095 30.7012L43.666 30.7437L43.7095 30.7012Z" fill="white"/>
<path fill-rule="evenodd" clip-rule="evenodd" d="M43.8471 58.5958L43.7832 58.5586L43.8471 58.5958Z" fill="white"/>
<path fill-rule="evenodd" clip-rule="evenodd" d="M85.497 58.5586L85.4331 58.5958L85.497 58.5586Z" fill="white"/>
<path fill-rule="evenodd" clip-rule="evenodd" d="M85.7486 30.8766L85.7051 30.8287L85.7486 30.8766Z" fill="white"/>
<path fill-rule="evenodd" clip-rule="evenodd" d="M85.5772 30.7011L85.5293 30.6586L85.5772 30.7011Z" fill="white"/>
<path fill-rule="evenodd" clip-rule="evenodd" d="M43.5283 30.8766L43.4902 30.9191L43.5283 30.8766Z" fill="white"/>
<path fill-rule="evenodd" clip-rule="evenodd" d="M86.1055 57.7927L86.062 57.8565L86.1055 57.7927Z" fill="white"/>
<path fill-rule="evenodd" clip-rule="evenodd" d="M43.7525 30.6586L43.709 30.7011L43.7525 30.6586Z" fill="white"/>
<path fill-rule="evenodd" clip-rule="evenodd" d="M85.2627 30.4777L85.2041 30.4564L85.2627 30.4777Z" fill="white"/>
<path fill-rule="evenodd" clip-rule="evenodd" d="M85.7056 30.8288L85.6675 30.7863L85.7056 30.8288Z" fill="white"/>
</svg>
