<svg width="110" height="91" viewBox="0 0 110 91" fill="none" xmlns="http://www.w3.org/2000/svg">
<rect y="45.2549" width="64" height="64" transform="rotate(-45 0 45.2549)" fill="black" fill-opacity="0.2"/>
<rect x="19.2549" y="45.2549" width="64" height="64" transform="rotate(-45 19.2549 45.2549)" fill="black"/>
<g clip-path="url(#clip0_54_473)">
<path fill-rule="evenodd" clip-rule="evenodd" d="M64.4043 36.2255C63.6002 36.412 62.8429 36.6427 62.109 37.0061C61.4733 37.3199 60.7813 37.8375 60.3211 38.345L59.6776 39.2122C58.6819 40.6915 58.6657 42.2431 58.6657 43.9794C56.9498 43.9794 57.1008 44.2048 57.1008 42.0543C57.1008 40.6879 57.4644 39.7047 58.0749 38.55C58.1828 38.3468 58.2936 38.1429 58.4254 37.963C58.4931 37.8716 58.5381 37.8142 58.6046 37.7258L59.0408 37.2243C59.4727 36.672 59.4524 36.8208 59.7226 36.5513C60.6878 35.5884 62.6997 34.7164 64.2479 34.7164H64.4564C64.4564 35.2609 64.4043 35.6488 64.4043 36.2255ZM60.6483 56.5334L60.8418 56.7294C61.2174 57.1675 61.8579 57.311 62.4217 57.3552C62.7225 57.3785 65.0316 57.1514 65.5534 57.1472L66.279 57.0904C67.3215 56.9727 69.0554 56.9093 69.7953 56.5394C70.1794 56.3469 70.3771 56.1766 70.6209 55.8538C70.9457 55.4259 71.425 54.2896 71.9576 53.4923L72.9204 52.215C73.483 51.5504 74.0762 50.8906 74.5776 50.1733C74.6867 50.0161 74.7897 49.8805 74.9 49.7143C75.0072 49.5541 75.0719 49.4298 75.1816 49.2666C75.9383 48.1424 76.3942 46.8531 76.6165 45.494C76.7196 44.8634 76.7645 44.0589 76.7675 43.4068L76.6057 41.3304C76.4158 39.8667 75.7915 38.2224 74.9833 37.0163C74.329 36.0391 73.7946 35.442 72.8941 34.6775C72.8 34.598 72.7874 34.6088 72.6856 34.5209C71.6395 33.6136 69.3597 32.4607 67.8355 32.2294C66.9578 32.0961 64.6187 31.961 63.6416 32.1337C63.2042 32.2114 62.7854 32.316 62.4121 32.4164C61.641 32.6238 60.9263 32.9137 60.2654 33.2419C60.0683 33.3399 59.9772 33.408 59.7963 33.5025C59.3973 33.7104 58.7622 34.1163 58.4446 34.3912C56.9845 35.6541 56.6891 35.9679 55.682 37.568C54.8318 38.917 54.2267 41.3035 54.2315 42.8342C54.2351 43.8551 54.2297 44.6273 54.4004 45.632C54.5628 46.5872 54.724 47.0898 55.0595 47.9415C55.528 49.1327 56.2242 50.2116 56.9875 51.2217L57.6226 52.0459C58.3344 53.0112 58.7789 53.4152 59.4997 54.6483C59.7675 55.1061 60.1743 56.1461 60.6483 56.5334Z" fill="white"/>
<path fill-rule="evenodd" clip-rule="evenodd" d="M59.6513 58.8632L59.5003 59.0097C59.2391 59.3498 59.3062 60.8518 59.4045 61.3526C59.4302 61.4835 59.4997 61.5816 59.6381 61.6401C60.1282 61.8493 61.9712 61.6282 62.5799 61.6228L63.5284 61.5278C63.7968 61.4853 64.2365 61.4758 64.5103 61.4668L66.4282 61.2983C67.391 61.1482 69.2411 61.0807 70.2357 60.9337C72.0978 60.6593 72.0199 60.7514 72.0217 58.602C72.0217 58.2446 71.9463 57.9876 71.7587 57.8232C71.6047 57.6876 71.2153 57.6164 70.9271 57.6123C70.5377 57.6069 70.3016 57.6523 69.9319 57.6643L67.0681 57.9296C66.8302 57.9565 66.3808 58.03 66.1274 58.0318C65.5924 58.036 64.215 58.2327 63.7267 58.2392C63.2719 58.2452 60.5135 58.504 59.9916 58.6762C59.843 58.7258 59.7358 58.7586 59.6513 58.8632Z" fill="white"/>
<path fill-rule="evenodd" clip-rule="evenodd" d="M59.344 63.9633C59.344 64.9417 59.1469 66.051 60.4189 65.8161C60.9629 65.7151 61.743 65.8137 62.2972 65.7115L66.8974 65.3571C67.1035 65.3248 67.5582 65.2704 67.7949 65.2639L69.6103 65.0971C69.9764 65.0409 71.0159 64.9608 71.3382 64.8437C71.875 64.6482 71.7247 64.0529 71.7702 63.7654C71.8535 63.2431 71.796 62.8982 71.7618 62.3477C71.7103 61.5259 70.5024 61.768 69.8799 61.7751L65.6554 62.1409C65.4349 62.1439 64.9514 62.2049 64.7585 62.2348C64.2702 62.3113 62.6321 62.389 61.9419 62.4953C60.4956 62.7177 59.344 62.2622 59.344 63.9633Z" fill="white"/>
<path fill-rule="evenodd" clip-rule="evenodd" d="M74.9419 32.4397L75.2474 32.7386C75.2672 32.9197 75.9442 33.4152 75.985 33.4152C76.2061 33.4152 78.4379 31.2581 78.789 30.9043L82.1831 27.6809C82.5024 27.4317 83.1501 26.8298 83.3406 26.5459L82.2322 25.5699C82.0405 25.3786 81.3191 24.6793 81.0974 24.6201C80.9015 24.751 79.8644 25.9494 79.6685 26.213L78.4768 27.6265C78.36 27.7473 78.3654 27.7359 78.2599 27.8781C78.1814 27.9839 78.1353 28.0043 78.0616 28.0975L75.8807 30.7088C75.5955 31.1009 74.9844 31.7141 74.6807 32.166L74.9419 32.4397Z" fill="white"/>
<path fill-rule="evenodd" clip-rule="evenodd" d="M47.6592 26.5459C47.8233 26.7903 49.2259 28.0802 49.6543 28.5105L51.0293 29.7932C51.1342 29.8703 51.1821 29.93 51.2714 30.0197L54.481 33.0105C55.1077 33.6094 55.01 33.463 55.3659 33.1408C55.6601 32.8749 56.0363 32.5868 56.3185 32.166L55.5498 31.2157C55.4462 31.1027 55.457 31.1218 55.3587 30.9897L53.3576 28.6151C53.2467 28.498 53.2527 28.4663 53.1503 28.3539C52.7962 27.966 50.0438 24.6201 49.9024 24.6201C49.698 24.6201 49.4728 24.9429 49.3152 25.0756C49.1894 25.1808 49.1564 25.1802 49.0282 25.3093L48.48 25.8036C48.193 26.0618 48.0522 26.2835 47.6592 26.5459Z" fill="white"/>
<path fill-rule="evenodd" clip-rule="evenodd" d="M64.717 28.9916C67.0076 28.9916 66.291 29.2421 66.5019 27.9098C66.5366 27.6869 66.5372 27.5638 66.5414 27.2727L66.6439 26.0223C66.6684 25.8167 66.6313 25.5573 66.6469 25.3481L66.7523 24.1007C66.7679 23.8879 66.7355 23.6351 66.7511 23.4229L66.853 22.1714C66.8763 21.9717 66.8464 21.7034 66.8542 21.496L67.0645 19H63.9346L64.1443 21.4452C64.1598 21.6579 64.1269 21.9108 64.1425 22.1229L64.46 27.8955C64.4798 28.067 64.4948 27.9493 64.5091 28.1585C64.5175 28.2816 64.4996 28.3844 64.5193 28.5129C64.5481 28.7059 64.5115 28.9916 64.717 28.9916Z" fill="white"/>
<path fill-rule="evenodd" clip-rule="evenodd" d="M79.793 41.7416C79.793 42.4158 79.8451 42.894 79.8451 43.5634L83.9666 43.7194C84.7287 43.7194 85.3326 43.7714 86.0528 43.7714H89.9658C89.9658 43.4887 89.9047 43.2998 89.8717 43.0841C89.8501 42.9442 89.8681 42.8157 89.8633 42.6764C89.8555 42.4481 89.8232 42.5139 89.8082 42.3148C89.7645 41.7213 89.9124 41.1965 89.7045 40.8051C88.9832 40.8051 87.6165 40.985 86.9365 41.0621C86.8215 41.0746 86.6933 41.0555 86.5782 41.0686L85.9695 41.138C85.7826 41.1714 85.5142 41.187 85.3644 41.2109L80.4203 41.6908C80.1315 41.7016 80.0722 41.7416 79.793 41.7416Z" fill="white"/>
<path fill-rule="evenodd" clip-rule="evenodd" d="M41.1901 41.4296C41.1901 42.3674 41.0337 43.3315 41.0337 43.7714L50.6337 43.616C50.9093 43.616 50.9243 43.5682 51.1537 43.5634C51.1537 42.894 51.2059 42.4158 51.2059 41.7416C50.965 41.7416 50.8656 41.7004 50.5786 41.6914L48.1077 41.45C47.9747 41.4261 47.9472 41.4356 47.8141 41.4302L41.1901 40.7531V41.4296Z" fill="white"/>
<path fill-rule="evenodd" clip-rule="evenodd" d="M62.5781 66.9817C62.4631 67.4759 62.5823 67.874 62.7866 68.2828C62.8747 68.458 62.9286 68.5452 63.037 68.709C63.2635 69.0497 63.3911 69.1877 63.6835 69.4179C63.8321 69.5344 63.8836 69.602 64.0729 69.7054C64.3581 69.8608 64.7284 69.9594 65.122 70H65.9369C66.3545 69.957 66.7487 69.847 67.0441 69.6671C68.1531 68.9935 68.8385 67.7664 68.8385 66.4611C68.101 66.4611 66.4336 66.6236 65.6007 66.7175L64.0891 66.8233C63.8596 66.831 63.9268 66.8639 63.7266 66.8777C63.3594 66.904 63.1233 66.8549 62.5781 66.9817Z" fill="white"/>
<path fill-rule="evenodd" clip-rule="evenodd" d="M75.2475 32.7385L74.9419 32.4397C74.9778 32.558 74.9311 32.4941 75.027 32.5981C75.1438 32.7254 75.1127 32.6806 75.2475 32.7385Z" fill="white"/>
<path fill-rule="evenodd" clip-rule="evenodd" d="M60.842 56.7294L60.6484 56.5333C60.6964 56.6929 60.6826 56.6798 60.842 56.7294Z" fill="white"/>
<path fill-rule="evenodd" clip-rule="evenodd" d="M59.5005 59.0096L59.6515 58.8632C59.5065 58.9038 59.5442 58.8626 59.5005 59.0096Z" fill="white"/>
</g>
<defs>
<clipPath id="clip0_54_473">
<rect width="49" height="51" fill="white" transform="translate(41 19)"/>
</clipPath>
</defs>
</svg>
