<svg width="26" height="586" viewBox="0 0 26 586" fill="none" xmlns="http://www.w3.org/2000/svg">
<path d="M13.728 13.728C13.728 13.4519 13.5042 13.228 13.228 13.228C12.9519 13.228 12.728 13.4519 12.728 13.728H13.728ZM12.728 574.728C12.728 575.004 12.9519 575.228 13.228 575.228C13.5042 575.228 13.728 575.004 13.728 574.728H12.728ZM12.728 13.728V15.7316H13.728V13.728H12.728ZM12.728 19.7387V23.7459H13.728V19.7387H12.728ZM12.728 27.753V31.7602H13.728V27.753H12.728ZM12.728 35.7673V39.7745H13.728V35.7673H12.728ZM12.728 43.7816V47.7887H13.728V43.7816H12.728ZM12.728 51.7959V55.803H13.728V51.7959H12.728ZM12.728 59.8102V63.8173H13.728V59.8102H12.728ZM12.728 67.8244V71.8316H13.728V67.8244H12.728ZM12.728 75.8387V79.8459H13.728V75.8387H12.728ZM12.728 83.853V87.8602H13.728V83.853H12.728ZM12.728 91.8673V95.8744H13.728V91.8673H12.728ZM12.728 99.8816V103.889H13.728V99.8816H12.728ZM12.728 107.896V111.903H13.728V107.896H12.728ZM12.728 115.91V119.917H13.728V115.91H12.728ZM12.728 123.924V127.932H13.728V123.924H12.728ZM12.728 131.939V135.946H13.728V131.939H12.728ZM12.728 139.953V143.96H13.728V139.953H12.728ZM12.728 147.967V151.974H13.728V147.967H12.728ZM12.728 155.982V159.989H13.728V155.982H12.728ZM12.728 163.996V168.003H13.728V163.996H12.728ZM12.728 172.01V176.017H13.728V172.01H12.728ZM12.728 180.024V184.032H13.728V180.024H12.728ZM12.728 188.039V192.046H13.728V188.039H12.728ZM12.728 196.053V200.06H13.728V196.053H12.728ZM12.728 204.067V208.074H13.728V204.067H12.728ZM12.728 212.082V216.089H13.728V212.082H12.728ZM12.728 220.096V224.103H13.728V220.096H12.728ZM12.728 228.11V232.117H13.728V228.11H12.728ZM12.728 236.124V240.132H13.728V236.124H12.728ZM12.728 244.139V248.146H13.728V244.139H12.728ZM12.728 252.153V256.16H13.728V252.153H12.728ZM12.728 260.167V264.174H13.728V260.167H12.728ZM12.728 268.182V272.189H13.728V268.182H12.728ZM12.728 276.196V280.203H13.728V276.196H12.728ZM12.728 284.21V288.217H13.728V284.21H12.728ZM12.728 292.224V296.232H13.728V292.224H12.728ZM12.728 300.239V304.246H13.728V300.239H12.728ZM12.728 308.253V312.26H13.728V308.253H12.728ZM12.728 316.267V320.274H13.728V316.267H12.728ZM12.728 324.281V328.289H13.728V324.281H12.728ZM12.728 332.296V336.303H13.728V332.296H12.728ZM12.728 340.31V344.317H13.728V340.31H12.728ZM12.728 348.324V352.331H13.728V348.324H12.728ZM12.728 356.339V360.346H13.728V356.339H12.728ZM12.728 364.353V368.36H13.728V364.353H12.728ZM12.728 372.367V376.374H13.728V372.367H12.728ZM12.728 380.381V384.389H13.728V380.381H12.728ZM12.728 388.396V392.403H13.728V388.396H12.728ZM12.728 396.41V400.417H13.728V396.41H12.728ZM12.728 404.424V408.431H13.728V404.424H12.728ZM12.728 412.439V416.446H13.728V412.439H12.728ZM12.728 420.453V424.46H13.728V420.453H12.728ZM12.728 428.467V432.474H13.728V428.467H12.728ZM12.728 436.481V440.489H13.728V436.481H12.728ZM12.728 444.496V448.503H13.728V444.496H12.728ZM12.728 452.51V456.517H13.728V452.51H12.728ZM12.728 460.524V464.531H13.728V460.524H12.728ZM12.728 468.539V472.546H13.728V468.539H12.728ZM12.728 476.553V480.56H13.728V476.553H12.728ZM12.728 484.567V488.574H13.728V484.567H12.728ZM12.728 492.581V496.589H13.728V492.581H12.728ZM12.728 500.596V504.603H13.728V500.596H12.728ZM12.728 508.61V512.617H13.728V508.61H12.728ZM12.728 516.624V520.631H13.728V516.624H12.728ZM12.728 524.639V528.646H13.728V524.639H12.728ZM12.728 532.653V536.66H13.728V532.653H12.728ZM12.728 540.667V544.674H13.728V540.667H12.728ZM12.728 548.681V552.689H13.728V548.681H12.728ZM12.728 556.696V560.703H13.728V556.696H12.728ZM12.728 564.71V568.717H13.728V564.71H12.728ZM12.728 572.724V574.728H13.728V572.724H12.728Z" fill="black"/>
<rect y="12.728" width="18" height="18" transform="rotate(-45 0 12.728)" fill="#0048FF"/>
<rect y="149.728" width="18" height="18" transform="rotate(-45 0 149.728)" fill="#0048FF"/>
<rect y="285.456" width="18" height="18" transform="rotate(-45 0 285.456)" fill="#0048FF"/>
<rect y="572.456" width="18" height="18" transform="rotate(-45 0 572.456)" fill="#E80800"/>
<rect y="447.456" width="18" height="18" transform="rotate(-45 0 447.456)" fill="#0048FF"/>
</svg>
