<svg width="110" height="91" viewBox="0 0 110 91" fill="none" xmlns="http://www.w3.org/2000/svg">
<rect y="45.2549" width="64" height="64" transform="rotate(-45 0 45.2549)" fill="#FF00D6" fill-opacity="0.2"/>
<path d="M19.2549 45.2549L64.5097 4.95911e-05L109.765 45.2549L64.5097 90.5097L19.2549 45.2549Z" fill="#FF00D6"/>
<g clip-path="url(#clip0_19_98)">
<path fill-rule="evenodd" clip-rule="evenodd" d="M73.2248 53.173C75.1227 52.6095 75.9489 55.5536 74.049 56.0884C72.1456 56.6246 71.2107 53.771 73.2248 53.173ZM51.915 32.0691C50.8007 32.3821 51.0446 33.317 51.0446 34.5508C51.0446 37.3904 50.9359 57.5988 51.0873 58.1616C51.3592 59.173 52.4763 58.9708 53.5689 58.9708C56.3862 58.9708 76.6091 59.0747 77.1459 58.9273C78.1579 58.6508 77.9533 57.5398 77.9533 56.4421C77.9533 53.6194 78.0577 33.3717 77.9112 32.8313C77.6372 31.8214 76.5215 32.0228 75.4289 32.0228C72.6256 32.0228 52.449 31.9189 51.915 32.0691Z" fill="white"/>
<path fill-rule="evenodd" clip-rule="evenodd" d="M79.31 34.9782L79.3184 38.4319C79.9695 38.5337 81.2849 38.4586 82.0039 38.4586C83.332 38.4586 83.7686 38.7997 83.7707 37.4241C84.8002 37.4241 87.0723 37.5469 87.8481 37.3223C87.9497 36.9202 87.9392 36.7616 87.9413 36.2598C87.9448 34.9782 87.7149 35.2386 83.7847 35.3109C83.7735 35.1298 83.7868 34.894 83.7658 34.7319C83.7209 34.3733 83.709 34.4863 83.5317 34.3662C83.2248 34.1859 79.7929 34.195 79.3086 34.3206L79.31 34.9782Z" fill="white"/>
<path fill-rule="evenodd" clip-rule="evenodd" d="M72.5607 64.7947C72.5614 65.7955 72.4451 68.1382 72.6609 68.8765C73.2012 69.0183 74.2364 69.1123 74.6225 68.7249C74.7746 68.0631 74.6835 65.6404 74.673 64.8129C75.3899 64.7575 75.3976 64.8985 75.6149 64.5581C75.795 64.2444 75.7866 60.8146 75.6597 60.3275L71.5543 60.331C71.4534 60.9928 71.5277 62.3025 71.5277 63.0268C71.5277 64.342 71.1892 64.801 72.5607 64.7947Z" fill="white"/>
<path fill-rule="evenodd" clip-rule="evenodd" d="M45.2272 53.5697C44.9798 53.569 41.5458 53.5247 41.3439 53.609C40.9914 53.7557 41.2963 53.6048 41.1505 53.7697C40.9578 54.1725 40.9935 55.0147 41.1246 55.4857C41.3832 55.831 44.6168 55.6927 45.2139 55.6822C45.2258 55.8647 45.2125 56.097 45.2328 56.2605C45.2783 56.6247 45.291 56.5089 45.4669 56.6282C45.7731 56.8072 49.2057 56.7981 49.69 56.6732L49.6865 52.5625C49.0424 52.4594 47.7032 52.5352 46.994 52.5352C45.6645 52.5352 45.2321 52.1941 45.2272 53.5697Z" fill="white"/>
<path fill-rule="evenodd" clip-rule="evenodd" d="M54.3258 26.1801C54.1422 26.1941 53.9137 26.1815 53.7511 26.2025C53.4028 26.2475 53.5065 26.2622 53.3839 26.4334C53.2031 26.7472 53.2122 30.1763 53.3383 30.6662L57.4445 30.6634C57.5454 30.0015 57.4704 28.6898 57.4704 27.9662C57.4704 26.6482 57.8103 26.1934 56.4381 26.1983C56.4367 25.1989 56.553 22.8548 56.3386 22.1179C55.9118 22.007 55.4801 22.0014 54.9348 22.0182C54.2915 22.0386 54.3188 22.3993 54.3223 23.0064C54.3286 24.0634 54.3118 25.1231 54.3258 26.1801Z" fill="white"/>
<path fill-rule="evenodd" clip-rule="evenodd" d="M79.3096 56.6724C79.7889 56.798 83.2299 56.8065 83.532 56.6275C83.7044 56.5082 83.7212 56.6135 83.7661 56.2611C83.7864 56.1011 83.7731 55.8569 83.7829 55.6786L87.6402 55.6821C88.1447 55.4997 87.9415 54.0497 87.849 53.67C87.0774 53.4538 84.7956 53.5689 83.771 53.5696C83.7689 52.2186 83.3883 52.5352 82.0897 52.5352C81.3609 52.5352 79.9725 52.4565 79.325 52.5625L79.3096 56.6724Z" fill="white"/>
<path fill-rule="evenodd" clip-rule="evenodd" d="M72.6599 22.1165C72.4447 22.8702 72.5618 25.187 72.5603 26.1983C71.9478 26.1955 71.5273 26.1758 71.5273 26.8545L71.5407 30.6521L75.6594 30.6654C75.7883 30.17 75.7974 26.7591 75.6159 26.4313C75.4022 26.0951 75.3692 26.2341 74.6726 26.1801C74.6859 25.1231 74.6698 24.0633 74.6761 23.0064C74.6789 22.4555 74.7154 22.061 74.1407 22.0196C73.758 21.9923 72.9066 22.007 72.6599 22.1165Z" fill="white"/>
<path fill-rule="evenodd" clip-rule="evenodd" d="M45.2147 35.3115L41.7856 35.3059C41.2207 35.3059 41.0588 35.4393 41.0546 36.0007C41.0504 36.5461 41.0399 36.8836 41.1506 37.3223C41.9278 37.5476 44.1964 37.424 45.2273 37.424C45.2385 38.7456 45.3261 38.4901 49.0439 38.4585L49.674 38.4473L49.6894 34.3205C48.451 34.2054 47.2015 34.2686 45.9589 34.27C45.1039 34.27 45.2609 34.5543 45.2147 35.3115Z" fill="white"/>
<path fill-rule="evenodd" clip-rule="evenodd" d="M66.4843 64.7911C66.4801 65.5835 66.347 68.3333 66.5831 68.8035C66.766 69.047 67.1228 68.9705 67.5734 68.9719C68.8776 68.9747 68.544 69.1186 68.5966 64.8038C69.9331 64.7575 69.5785 65.0564 69.6275 60.331L65.48 60.3303C65.3756 60.9886 65.4506 62.3018 65.4506 63.0267C65.4506 64.3413 65.1051 64.8178 66.4843 64.7911Z" fill="white"/>
<path fill-rule="evenodd" clip-rule="evenodd" d="M54.3261 64.8129C54.3156 65.6439 54.2245 68.0575 54.3766 68.7249C54.7628 69.1123 55.7972 69.0183 56.3382 68.8765C56.5533 68.1361 56.437 65.7969 56.4384 64.7947C57.7854 64.8003 57.4707 64.4003 57.4707 63.1124C57.4707 62.3685 57.5485 61.009 57.4448 60.3416L53.3394 60.3282L53.3022 64.3946C53.4004 64.8936 53.8019 64.7722 54.3261 64.8129Z" fill="white"/>
<path fill-rule="evenodd" clip-rule="evenodd" d="M45.2259 41.3964L41.3483 41.4021C40.8269 41.5951 41.103 43.2563 41.1416 43.311C41.5656 43.6886 42.4878 43.5089 43.066 43.5089C43.7879 43.5089 44.5104 43.5117 45.2316 43.5089C45.2105 44.8515 45.0774 44.5041 49.6811 44.542L49.6888 40.4013C49.1526 40.2855 47.6354 40.3605 46.9941 40.3605C45.6275 40.3605 45.2393 40.0223 45.2259 41.3964Z" fill="white"/>
<path fill-rule="evenodd" clip-rule="evenodd" d="M60.4021 64.8038C60.4112 68.9495 60.0664 68.9776 61.3384 68.972L62.2123 68.9404C62.4751 68.8506 62.3419 68.8702 62.4148 68.8028C62.6517 68.3319 62.5179 65.585 62.5144 64.7912C63.8557 64.8165 63.5081 64.933 63.5467 60.3353L59.4111 60.329L59.3838 64.3883C59.4812 64.8663 59.8884 64.7856 60.4021 64.8038Z" fill="white"/>
<path fill-rule="evenodd" clip-rule="evenodd" d="M60.4018 26.1892C59.0661 26.2355 59.4207 25.926 59.3702 30.6633L63.5184 30.664C63.5478 26.1141 63.9109 26.1737 62.5148 26.2018L62.491 22.3607C62.3669 21.9284 61.9177 22.021 61.5112 22.0217C59.9631 22.0217 60.4334 22.1811 60.4018 26.1892Z" fill="white"/>
<path fill-rule="evenodd" clip-rule="evenodd" d="M45.2321 47.4848C44.1395 47.4785 43.047 47.4897 41.9551 47.4834C41.3075 47.4792 41.0664 47.4525 41.0552 48.1445C41.0461 48.7607 40.9228 49.2379 41.3482 49.5538L45.2251 49.6001C45.2419 50.9448 45.0184 50.584 49.6865 50.6325L49.6879 46.4805C49.0565 46.3738 47.699 46.4496 46.994 46.4496C45.675 46.4496 45.2083 46.1029 45.2321 47.4848Z" fill="white"/>
<path fill-rule="evenodd" clip-rule="evenodd" d="M79.311 44.5125C83.8972 44.542 83.7865 44.8957 83.7689 43.5096C84.4901 43.5096 85.2112 43.5089 85.9324 43.5089C86.5105 43.5089 87.4335 43.6886 87.8575 43.311C88.0404 42.8436 88.0685 41.7488 87.6501 41.4407L83.7752 41.3936C83.7507 40.0517 84.003 40.409 79.3124 40.3612L79.311 44.5125Z" fill="white"/>
<path fill-rule="evenodd" clip-rule="evenodd" d="M66.4836 22.6647V26.2019C65.1415 26.1745 65.4905 26.0692 65.452 30.6578L69.5882 30.6648L69.6239 26.4587C69.284 26.1163 69.1852 26.2096 68.5958 26.1892L68.5881 22.3102C68.3099 21.9888 68.2763 22.0232 67.8291 22.0218C66.9994 22.0204 66.4836 21.8197 66.4836 22.6647Z" fill="white"/>
<path fill-rule="evenodd" clip-rule="evenodd" d="M79.3101 50.5925L83.5108 50.6297C83.8444 50.2949 83.7659 50.1826 83.7736 49.5973L87.6484 49.5917C88.078 49.2422 87.9442 48.8379 87.942 48.2288C87.9406 47.5396 87.8236 47.4792 87.1305 47.482C86.0092 47.4869 84.8886 47.482 83.7673 47.4841C83.7911 46.1387 83.899 46.4883 79.3171 46.4511L79.3101 50.5925Z" fill="white"/>
</g>
<defs>
<clipPath id="clip0_19_98">
<rect width="47" height="47" fill="white" transform="translate(41 22)"/>
</clipPath>
</defs>
</svg>
