<svg width="26" height="134" viewBox="0 0 26 134" fill="none" xmlns="http://www.w3.org/2000/svg">
<path d="M13.728 13.729C13.7286 13.4528 13.5051 13.2286 13.229 13.228C12.9528 13.2275 12.7286 13.4509 12.728 13.7271L13.728 13.729ZM12.5 132.999C12.4995 133.275 12.7229 133.499 12.999 133.5C13.2752 133.501 13.4995 133.277 13.5 133.001L12.5 132.999ZM12.728 13.7271L12.7242 15.7149L13.7242 15.7168L13.728 13.729L12.728 13.7271ZM12.7166 19.6907L12.709 23.6664L13.709 23.6683L13.7166 19.6926L12.7166 19.6907ZM12.7014 27.6421L12.6938 31.6179L13.6938 31.6198L13.7014 27.644L12.7014 27.6421ZM12.6862 35.5936L12.6786 39.5693L13.6786 39.5712L13.6862 35.5955L12.6862 35.5936ZM12.671 43.5451L12.6634 47.5208L13.6634 47.5227L13.671 43.547L12.671 43.5451ZM12.6558 51.4965L12.6482 55.4723L13.6482 55.4742L13.6558 51.4984L12.6558 51.4965ZM12.6406 59.448L12.633 63.4237L13.633 63.4256L13.6406 59.4499L12.6406 59.448ZM12.6254 67.3995L12.6178 71.3752L13.6178 71.3771L13.6254 67.4014L12.6254 67.3995ZM12.6102 75.3509L12.6026 79.3266L13.6026 79.3286L13.6102 75.3528L12.6102 75.3509ZM12.595 83.3024L12.5874 87.2781L13.5874 87.28L13.595 83.3043L12.595 83.3024ZM12.5798 91.2538L12.5722 95.2296L13.5722 95.2315L13.5798 91.2558L12.5798 91.2538ZM12.5646 99.2053L12.557 103.181L13.557 103.183L13.5646 99.2072L12.5646 99.2053ZM12.5494 107.157L12.5418 111.133L13.5418 111.134L13.5494 107.159L12.5494 107.157ZM12.5342 115.108L12.5266 119.084L13.5266 119.086L13.5342 115.11L12.5342 115.108ZM12.519 123.06L12.5114 127.035L13.5114 127.037L13.519 123.062L12.519 123.06ZM12.5038 131.011L12.5 132.999L13.5 133.001L13.5038 131.013L12.5038 131.011Z" fill="black"/>
<rect y="12.728" width="18" height="18" transform="rotate(-45 0 12.728)" fill="#0048FF"/>
</svg>
