<svg width="74" height="74" viewBox="0 0 74 74" fill="none" xmlns="http://www.w3.org/2000/svg">
<path d="M37 74C57.4345 74 74 57.4345 74 37C74 16.5655 57.4345 0 37 0C16.5655 0 0 16.5655 0 37C0 57.4345 16.5655 74 37 74Z" fill="#2965FF"/>
<path fill-rule="evenodd" clip-rule="evenodd" d="M33.6555 57.5268L34.1271 57.21C34.6533 56.9605 35.1358 56.5381 35.6164 56.194C36.159 55.8099 36.5668 55.5459 37.1039 55.1453C37.9232 54.5354 42.617 51.1125 43.1978 51.0524H58.7992C63.7497 51.0524 63.2508 49.8726 63.2508 45.1679C63.2508 38.2712 63.2508 31.3762 63.2508 24.4795C63.2508 19.4234 63.1033 19.2432 58.162 19.2432H16.9434C15.0244 19.2414 13.8483 19.0411 12.8797 20.2555C12.0476 21.3006 12.3444 23.4217 12.3444 24.9565C12.3444 31.8533 12.3444 38.7482 12.3444 45.645C12.3444 50.7301 12.3571 51.0524 17.2621 51.0524C20.614 51.0524 24.2881 50.9086 27.5981 51.0688C27.7219 52.9696 27.2995 60.0939 27.8221 61.1772C28.8052 61.3848 30.1088 60.0885 30.8681 59.5714C31.4197 59.1963 33.366 57.9437 33.6555 57.5268Z" fill="white"/>
<path fill-rule="evenodd" clip-rule="evenodd" d="M33.6555 57.5268C34.1526 57.3629 33.9614 57.4157 34.1271 57.21L33.6555 57.5268Z" fill="white"/>
</svg>
