<svg width="110" height="91" viewBox="0 0 110 91" fill="none" xmlns="http://www.w3.org/2000/svg">
<rect y="45.2549" width="64" height="64" transform="rotate(-45 0 45.2549)" fill="#0048FF" fill-opacity="0.2"/>
<rect x="19.2549" y="45.2549" width="64" height="64" transform="rotate(-45 19.2549 45.2549)" fill="#0048FF" fill-opacity="0.8"/>
<path fill-rule="evenodd" clip-rule="evenodd" d="M60.6912 49.913L60.7973 50.0436L61.0259 50.0388L64.7236 49.6411C65.3726 49.5959 66.0951 49.5695 66.753 49.5662C67.3581 49.5638 68.2493 49.6468 68.7955 49.5935L70.2664 49.7071C71.1718 49.6732 74.0938 50.1345 75.1221 50.3103C76.6826 50.577 78.1521 50.9714 79.6663 51.2872L71.4098 25C71.1855 25.0877 71.3301 24.9812 71.1756 25.1767C71.0983 25.2747 71.0926 25.3049 71.004 25.3973C70.7957 25.614 70.7693 25.6409 70.6034 25.8473C69.9413 26.672 67.3133 29.3312 66.4914 30.0361C63.6674 32.4569 61.3143 34.413 57.7429 36.1938C57.4596 36.3352 56.8295 36.601 56.6104 36.7701L60.6912 49.913Z" fill="white"/>
<path fill-rule="evenodd" clip-rule="evenodd" d="M58.4771 50.8448L54.2939 37.4937C53.6096 37.6416 50.9025 38.5525 50.0391 38.8263C47.185 39.7297 44.9435 40.2202 43.5363 43.5001C41.6657 47.8576 44.9275 52.9508 49.6206 53.1496C51.3243 53.2222 52.7203 52.6383 54.1822 52.1794L58.4771 50.8448Z" fill="white"/>
<path fill-rule="evenodd" clip-rule="evenodd" d="M52.2065 55.1123C52.3065 55.3927 54.3396 58.1753 54.6704 58.6584C55.072 59.2436 55.4938 59.8068 55.8982 60.3718C58.5713 64.1078 57.9407 63.5668 63.6843 61.8143C64.4558 61.5791 65.3296 61.4132 65.3268 60.4349C65.3239 59.3308 64.3686 59.3073 63.5769 58.7748C62.8318 58.2734 62.5184 57.7804 61.9768 56.9751C61.5221 56.2989 61.0428 55.6363 60.6016 54.9507C60.365 54.5831 59.3683 53.0718 59.1698 52.9144L52.2065 55.1123Z" fill="white"/>
<path fill-rule="evenodd" clip-rule="evenodd" d="M79.2778 27.843C80.8633 28.4443 82.9077 30.4772 83.8936 31.9885C85.7218 34.7909 86.4169 38.3384 85.505 41.8553C85.2335 42.9019 84.8947 43.5484 84.5379 44.4188C84.7448 44.6224 86.8614 45.7138 87.2176 45.8509C87.5509 45.5229 88.1701 43.7473 88.3572 43.1352C88.6603 42.1432 88.8629 40.9962 88.9515 39.8902C89.371 34.6656 87.0617 29.7444 83.0368 26.5683C82.5467 26.1814 81.3308 25.3148 80.679 25.0839C80.4471 25.4915 79.3697 27.5197 79.2778 27.843Z" fill="white"/>
<path fill-rule="evenodd" clip-rule="evenodd" d="M83.4105 40.9599C83.4237 40.8355 83.4313 40.7181 83.4544 40.6116C83.4643 40.5641 83.4817 40.4854 83.501 40.4425C83.5698 40.2865 83.502 40.4128 83.5887 40.3232C83.575 39.8633 83.6801 39.3181 83.6829 38.7969C83.6853 38.2752 83.5679 37.6391 83.5981 37.1914C83.4463 37.0825 83.443 36.7607 83.4218 36.551C83.2781 35.2174 82.1838 33.3513 81.5296 32.5219C80.9 31.7241 79.1298 29.9729 78.1745 29.8123L76.853 32.4328C77.7211 33.0454 78.002 33.0723 78.824 33.9846C80.6233 35.9822 81.1992 38.8289 80.152 41.4038C80.0512 41.6526 79.9419 41.8237 79.8905 42.0692L82.4986 43.4122L82.6739 43.145C82.9303 42.6333 83.3851 41.4325 83.4105 40.9599Z" fill="white"/>
<path fill-rule="evenodd" clip-rule="evenodd" d="M70.2663 49.7071L68.7954 49.5935C69.057 49.6976 69.9977 49.7127 70.2663 49.7071Z" fill="#767676"/>
<path fill-rule="evenodd" clip-rule="evenodd" d="M83.4106 40.9599C83.4639 40.8812 83.4163 41.0221 83.4875 40.8209C83.4889 40.8162 83.52 40.6922 83.5256 40.6677C83.552 40.5532 83.5737 40.4321 83.5888 40.3232C83.5021 40.4128 83.5699 40.2865 83.5011 40.4425C83.4818 40.4853 83.4644 40.564 83.4545 40.6116C83.4314 40.7181 83.4238 40.8355 83.4106 40.9599Z" fill="#767676"/>
<path fill-rule="evenodd" clip-rule="evenodd" d="M83.5977 37.1913C83.5821 37.0919 83.5581 36.9675 83.534 36.8581C83.5293 36.836 83.5048 36.7205 83.4977 36.7003C83.4483 36.5608 83.4487 36.5952 83.4214 36.5509C83.4426 36.7606 83.4459 37.0825 83.5977 37.1913Z" fill="#767676"/>
<path fill-rule="evenodd" clip-rule="evenodd" d="M61.0255 50.0389L60.797 50.0436L60.6909 49.9131L60.788 50.1167L61.0255 50.0389Z" fill="#656565"/>
</svg>
