<?xml version="1.0" encoding="UTF-8"?>
<!DOCTYPE svg PUBLIC "-//W3C//DTD SVG 1.1//EN" "http://www.w3.org/Graphics/SVG/1.1/DTD/svg11.dtd">
<!-- Creator: CorelDRAW 2018 (64-Bit) -->
<svg xmlns="http://www.w3.org/2000/svg" xml:space="preserve" width="160px" height="235px" version="1.1" style="shape-rendering:geometricPrecision; text-rendering:geometricPrecision; image-rendering:optimizeQuality; fill-rule:evenodd; clip-rule:evenodd"
viewBox="0 0 9.48 13.93"
 xmlns:xlink="http://www.w3.org/1999/xlink">
 <defs>
  <style type="text/css">
   <![CDATA[
    .fil0 {fill:none}
    .fil3 {fill:#0048FF}
    .fil2 {fill:#0048FF}
    .fil4 {fill:#1F1B20}
    .fil1 {fill:#E80800}
    .fil5 {fill:#1F1B20;fill-rule:nonzero}
   ]]>
  </style>
 </defs>
 <g id="Слой_x0020_1">
  <metadata id="CorelCorpID_0Corel-Layer"/>
  <rect class="fil0" width="9.48" height="13.93"/>
  <path class="fil1" d="M2.39 3.31c0.58,-0.16 1.19,-0.44 1.82,-0.4 -0.35,0.27 -0.84,0.44 -1.12,0.81 1.01,-0.28 1.78,-0.47 2.92,-0.17 0.29,0.08 0.61,0.22 0.87,0.28l-0.1 0.36 -0.7 0.02 0.57 0.4 -0.17 0.67c0.85,-0.62 0.49,-0.2 0.53,-1.57 0,-0.09 0,-0.18 0.01,-0.28 0.03,-0.46 0.05,-0.91 0.07,-1.37 0.03,-0.59 0.14,-0.76 -0.47,-0.98 -1,-0.38 -2.86,-0.32 -3.83,0.16 -0.4,0.2 -0.71,0.31 -0.62,0.79 0.08,0.43 0.14,0.86 0.22,1.28z"/>
  <path class="fil2" d="M4.5 4.33l-0.71 0.07c0.13,0.15 0.41,0.29 0.6,0.36l-0.13 0.75 0.56 -0.48 0.64 0.36c-0.07,-0.24 -0.23,-0.46 -0.27,-0.7l0.52 -0.47 -0.72 0.05 -0.31 -0.66 -0.18 0.72z"/>
  <path class="fil2" d="M2.64 5.28l0.63 0.3 -0.33 -0.65c0.16,-0.14 0.42,-0.34 0.5,-0.5l-0.72 0.12 -0.28 -0.56 0.2 1.29z"/>
  <path class="fil3" d="M1.44 6.95c-0.11,-0.24 -0.26,-0.32 -0.21,-0.51 0.01,-0.08 0.01,-0.11 0.12,-0.16 1.08,-0.48 2.72,1.16 5.52,-0.32 0.35,-0.19 1.14,-0.91 1.47,-0.73 0.14,0.14 -0.05,0.3 -0.07,0.4 0.39,-0.09 0.56,-0.54 0.41,-0.78 -0.04,-0.09 -0.28,-0.15 -0.58,-0.06 -0.68,0.21 -2.4,2.02 -5.06,1.2 -0.51,-0.16 -2.22,-0.48 -2.34,0.18 -0.05,0.31 0.47,0.73 0.74,0.78z"/>
  <path class="fil4" d="M5.04 12.15l0 0.01 -0.01 -0.01c-0.14,0 -0.24,-0.12 -0.37,-0.15 0.03,0.07 0.03,0.24 0.06,0.32 0.01,0.01 0.03,0.01 0.05,0.02l0.04 -0.09 0.1 0.28c-0.01,0 -0.01,0 -0.02,0 0.04,0.06 0.08,0.12 0.12,0.18 0.08,0.09 0.06,0.12 0.18,0.19 0.07,-0.28 0.12,-0.42 0.13,-0.72l0.11 0.13c0.11,-0.05 0.06,-0.29 0.11,-0.41l-0.07 0.05c-0.16,0.05 -0.27,0.2 -0.43,0.2zm0.12 0.9c0,-0.01 0,-0.01 0,-0.02 0,0 -0.01,-0.01 -0.01,-0.01l0.01 0.03z"/>
  <path class="fil5" d="M3.02 9.06c0,0.42 0.59,0.37 0.59,0.5 0,0.04 -0.03,0.05 -0.14,0.05 -0.13,0.01 -0.29,-0.04 -0.44,-0.13l0.01 0.35c0.13,0.08 0.29,0.12 0.47,0.12 0.28,-0.01 0.51,-0.09 0.51,-0.4 0,-0.41 -0.59,-0.35 -0.59,-0.48 0,-0.03 0.03,-0.05 0.11,-0.05 0.13,-0.01 0.28,0.04 0.4,0.11l-0.01 -0.34c-0.11,-0.07 -0.28,-0.1 -0.44,-0.1 -0.26,0 -0.47,0.12 -0.47,0.37z"/>
  <path id="1" class="fil5" d="M4.41 9.91l0.05 -0.16 0.42 0 0.05 0.16 0.4 0 -0.45 -1.2 -0.43 0 -0.44 1.21 0.4 -0.01zm0.23 -0.7c0.01,-0.04 0.02,-0.09 0.03,-0.15 0.01,0.06 0.02,0.11 0.03,0.15l0.09 0.26 -0.24 0 0.09 -0.26z"/>
  <polygon id="2" class="fil5" points="6.44,8.7 6.1,9.23 5.77,8.71 5.41,8.71 5.42,9.91 5.81,9.91 5.8,9.36 6,9.66 6.21,9.66 6.41,9.36 6.41,9.9 6.8,9.9 6.79,8.7 "/>
  <path id="3" class="fil5" d="M2.83 10.18l0.01 0.71c0,0.12 -0.06,0.16 -0.17,0.16 -0.1,0 -0.16,-0.04 -0.16,-0.15l0 -0.72 -0.4 0 0.01 0.74c0,0.37 0.27,0.49 0.56,0.49 0.28,0 0.55,-0.13 0.55,-0.5l0 -0.73 -0.4 0z"/>
  <path id="4" class="fil5" d="M3.8 11.38l0 -0.36c0,-0.07 0,-0.14 -0.01,-0.21l0.41 0.56 0.33 0 0 -1.2 -0.4 0 0 0.36c0,0.07 0,0.14 0.01,0.21l-0.41 -0.57 -0.33 0.01 0 1.2 0.4 0z"/>
  <path id="5" class="fil5" d="M4.66 10.78c0,0.44 0.33,0.62 0.67,0.62 0.13,-0.01 0.25,-0.03 0.35,-0.08l0 -0.36c-0.06,0.05 -0.17,0.09 -0.3,0.09 -0.16,0 -0.31,-0.08 -0.31,-0.27 0,-0.21 0.15,-0.3 0.32,-0.3 0.11,0 0.22,0.04 0.28,0.08l0 -0.35c-0.11,-0.05 -0.23,-0.07 -0.35,-0.07 -0.33,0 -0.66,0.19 -0.66,0.64z"/>
  <polygon id="6" class="fil5" points="5.82,10.16 5.83,11.37 6.74,11.36 6.74,11.01 6.22,11.02 6.22,10.16 "/>
  <polygon id="7" class="fil5" points="6.84,10.16 6.85,11.36 7.77,11.36 7.77,11.04 7.25,11.04 7.25,10.9 7.7,10.9 7.7,10.61 7.24,10.61 7.24,10.47 7.76,10.47 7.75,10.16 "/>
  <path class="fil5" d="M2.34 7.6c0,0.03 -0.01,0.08 -0.02,0.14 -0.01,0.02 -0.01,0.03 -0.02,0.04 0,0 -0.01,0.01 -0.03,0.02 -0.03,0 -0.04,0.01 -0.05,0.01 -0.01,0 -0.01,-0.01 -0.01,-0.02 0,-0.01 0,-0.02 0,-0.03 0.02,-0.06 0.02,-0.11 0.02,-0.13 0,-0.02 0,-0.04 0.02,-0.05 0.03,-0.01 0.05,-0.02 0.06,-0.02 0.02,0 0.03,0.01 0.03,0.04zm-0.15 0.55c0,0.08 -0.04,0.13 -0.13,0.16 -0.01,0.03 -0.02,0.05 -0.03,0.06 -0.01,0.01 -0.03,0.02 -0.06,0.02 -0.02,0 -0.04,0 -0.06,0 -0.04,-0.01 -0.09,-0.01 -0.14,-0.02 -0.02,0 -0.03,-0.01 -0.03,-0.03 0,-0.02 0.02,-0.03 0.05,-0.03 0.05,0 0.12,-0.01 0.21,-0.02 0.03,-0.01 0.05,-0.03 0.07,-0.06 0,-0.02 0.01,-0.04 0.01,-0.06 0,-0.04 -0.02,-0.11 -0.06,-0.21 -0.04,-0.1 -0.06,-0.17 -0.06,-0.2 0.01,-0.08 0.08,-0.14 0.22,-0.17 0.02,0 0.02,0.01 0.02,0.02 0,0.01 0,0.01 -0.01,0.02 -0.07,0.03 -0.1,0.06 -0.1,0.11 0,0.02 0,0.04 0.01,0.06 0,0.03 0.02,0.09 0.05,0.19 0.03,0.07 0.04,0.13 0.04,0.16z"/>
  <path id="1" class="fil5" d="M3.1 7.67c-0.09,0.16 -0.15,0.35 -0.19,0.56 0.02,-0.03 0.04,-0.07 0.06,-0.12 0.01,-0.01 0.01,-0.01 0.02,-0.01 0.01,0 0.01,0 0.01,0.01 0,0.01 0,0.01 0,0.02 -0.04,0.09 -0.07,0.16 -0.08,0.21 -0.01,0.03 -0.02,0.05 -0.03,0.05 -0.01,0 -0.04,-0.01 -0.07,-0.04 -0.02,-0.01 -0.03,-0.04 -0.02,-0.07 0.02,-0.14 0.05,-0.26 0.09,-0.37 -0.12,0.2 -0.23,0.35 -0.31,0.45 -0.02,0.02 -0.04,0.03 -0.06,0.03 -0.02,0 -0.04,-0.01 -0.06,-0.02 -0.05,-0.01 -0.07,-0.03 -0.07,-0.07 0,-0.01 0,-0.02 0,-0.02 0.02,-0.19 0.05,-0.34 0.1,-0.46 -0.01,0.01 -0.02,0.03 -0.05,0.05 0,0 -0.01,0 -0.02,0 0,0 0,-0.01 0.01,-0.02 0.03,-0.05 0.05,-0.08 0.06,-0.1 0.02,-0.05 0.04,-0.09 0.06,-0.12 0.01,-0.01 0.02,-0.02 0.04,-0.02 0.01,0 0.04,0.01 0.07,0.03 0.01,0.01 0.02,0.01 0.02,0.02 0,0 -0.01,0.01 -0.03,0.03 -0.03,0.05 -0.06,0.14 -0.1,0.26 -0.03,0.13 -0.05,0.24 -0.05,0.32 0,0.03 0,0.05 0.01,0.05 0.01,0 0.03,-0.02 0.05,-0.04 0.05,-0.05 0.12,-0.15 0.22,-0.3 0.08,-0.13 0.13,-0.21 0.15,-0.25 0.02,-0.06 0.05,-0.1 0.06,-0.11 0.02,-0.01 0.03,-0.02 0.04,-0.02 0,0 0.02,0.01 0.05,0.02 0.02,0.02 0.04,0.03 0.04,0.03 0,0.01 -0.01,0.01 -0.01,0.01 -0.01,0.01 -0.01,0.01 -0.01,0.01z"/>
  <path id="2" class="fil5" d="M3.6 7.6c0,0.03 -0.01,0.08 -0.02,0.14 -0.01,0.02 -0.01,0.03 -0.02,0.04 0,0 -0.02,0.01 -0.03,0.02 -0.03,0 -0.04,0.01 -0.05,0.01 -0.01,0 -0.01,-0.01 -0.01,-0.02 0,-0.01 0,-0.02 0,-0.03 0.02,-0.06 0.02,-0.11 0.02,-0.13 -0.01,-0.02 0,-0.04 0.02,-0.05 0.03,-0.01 0.05,-0.02 0.06,-0.02 0.02,0 0.03,0.01 0.03,0.04zm-0.15 0.55c0,0.08 -0.04,0.13 -0.13,0.16 -0.01,0.03 -0.02,0.05 -0.03,0.06 -0.01,0.01 -0.04,0.02 -0.06,0.02 -0.02,0 -0.04,0 -0.06,0 -0.04,-0.01 -0.09,-0.01 -0.14,-0.02 -0.02,0 -0.03,-0.01 -0.03,-0.03 0,-0.02 0.02,-0.03 0.05,-0.03 0.05,0 0.12,-0.01 0.2,-0.02 0.04,-0.01 0.06,-0.03 0.08,-0.06 0,-0.02 0.01,-0.04 0.01,-0.06 0,-0.04 -0.02,-0.11 -0.06,-0.21 -0.04,-0.1 -0.06,-0.17 -0.06,-0.2 0.01,-0.08 0.08,-0.14 0.22,-0.17 0.02,0 0.02,0.01 0.02,0.02 0,0.01 0,0.01 -0.01,0.02 -0.07,0.03 -0.1,0.06 -0.1,0.11 0,0.02 0,0.04 0,0.06 0.01,0.03 0.03,0.09 0.06,0.19 0.03,0.07 0.04,0.13 0.04,0.16z"/>
  <path id="3" class="fil5" d="M4.39 6.88c0.01,0.01 0.02,0.01 0.02,0.02 0,0.01 -0.01,0.02 -0.03,0.02 0,0 -0.01,0 -0.02,-0.01 -0.03,-0.01 -0.05,-0.02 -0.06,-0.02 -0.04,0 -0.08,0.04 -0.13,0.12 -0.17,0.27 -0.3,0.63 -0.38,1.08 0.11,-0.2 0.23,-0.36 0.36,-0.48 0.03,-0.03 0.05,-0.04 0.06,-0.04 0.01,0 0.02,0.01 0.05,0.03 0.03,0.01 0.05,0.02 0.06,0.02 0.02,0.02 0.02,0.04 0.02,0.08 0,0.01 0,0.02 0,0.03 -0.01,0.12 -0.04,0.26 -0.1,0.42 0.02,-0.03 0.06,-0.07 0.1,-0.12 0.01,-0.01 0.02,-0.02 0.02,-0.02 0.01,0 0.01,0.01 0.01,0.02 0,0 0,0.02 -0.01,0.03 -0.03,0.05 -0.08,0.13 -0.15,0.23 0,0.01 -0.01,0.04 -0.03,0.09 -0.01,0.02 -0.02,0.03 -0.04,0.03 -0.01,0 -0.04,-0.02 -0.07,-0.04 -0.01,-0.01 -0.02,-0.02 -0.01,-0.04 0.11,-0.28 0.17,-0.48 0.18,-0.62 0,-0.04 -0.01,-0.06 -0.02,-0.06 -0.01,0 -0.02,0.01 -0.05,0.03 -0.05,0.04 -0.11,0.11 -0.18,0.22 -0.1,0.13 -0.17,0.26 -0.22,0.4 -0.02,0.04 -0.03,0.06 -0.04,0.06 -0.01,0 -0.03,-0.01 -0.07,-0.04 -0.01,-0.01 -0.02,-0.03 -0.01,-0.06 0.07,-0.41 0.17,-0.76 0.29,-1.04 0.09,-0.22 0.17,-0.36 0.24,-0.42 0.01,-0.02 0.03,-0.03 0.05,-0.03 0.02,0 0.04,0.01 0.07,0.03 0.03,0.03 0.06,0.05 0.09,0.08z"/>
  <path id="4" class="fil5" d="M4.85 7.3c0.01,0 0.02,0.01 0.02,0.02 0,0.02 -0.03,0.05 -0.08,0.09 -0.04,0.02 -0.08,0.03 -0.11,0.03 -0.02,-0.01 -0.04,-0.02 -0.05,-0.03 0,0 -0.01,0 -0.01,-0.01 0,0 0,-0.01 0,-0.01 0,0 0,0 0.01,0 0.06,-0.05 0.1,-0.09 0.12,-0.11 0.01,-0.02 0.02,-0.02 0.03,-0.02 0.01,0 0.03,0.01 0.07,0.04zm-0.13 0.42c-0.02,0.08 -0.06,0.23 -0.12,0.43 0.02,-0.02 0.04,-0.05 0.07,-0.09 0.01,-0.01 0.01,-0.01 0.02,-0.01 0.01,0 0.01,0.01 0,0.02 0,0.01 -0.03,0.05 -0.08,0.13 -0.04,0.07 -0.07,0.12 -0.08,0.17 -0.01,0.01 -0.02,0.02 -0.03,0.02 -0.02,0 -0.04,-0.01 -0.07,-0.02 -0.01,-0.01 -0.02,-0.02 -0.02,-0.02 0,-0.01 0,-0.01 0.01,-0.03 0.03,-0.06 0.07,-0.16 0.11,-0.3 0.04,-0.14 0.06,-0.24 0.07,-0.31 0,-0.03 0,-0.04 -0.01,-0.04 0,0 -0.01,0 -0.03,0.02l-0.06 0.05c-0.02,0.02 -0.03,0.02 -0.03,0.01 0,-0.01 0,-0.02 0.01,-0.02 0.03,-0.05 0.06,-0.09 0.1,-0.12 0.01,-0.01 0.02,-0.02 0.02,-0.02 0.02,0 0.03,0.01 0.05,0.02 0.03,0.01 0.05,0.01 0.05,0.02 0.01,0.01 0.02,0.02 0.02,0.05 0,0.01 0,0.02 0,0.04z"/>
  <path id="5" class="fil5" d="M5.98 6.93c0.01,0.01 0.02,0.01 0.02,0.02 0,0.02 -0.01,0.02 -0.03,0.02 -0.01,0 -0.01,0 -0.02,0 -0.04,-0.02 -0.07,-0.03 -0.1,-0.03 -0.02,0 -0.04,0 -0.05,0.01 -0.07,0.04 -0.17,0.26 -0.31,0.64 0.11,0.02 0.17,0.03 0.2,0.03 0.01,0 0.02,0 0.02,0.01 0,0.02 -0.01,0.02 -0.02,0.03 -0.08,0.01 -0.15,0.02 -0.23,0.02 -0.09,0.26 -0.16,0.5 -0.2,0.73 -0.04,0.18 -0.06,0.3 -0.06,0.38 0,0.01 0,0.02 0,0.03 0,0.01 0,0.02 0,0.03 0,0.01 0,0.02 -0.01,0.02 -0.01,0 -0.03,-0.02 -0.07,-0.04 -0.04,-0.02 -0.06,-0.05 -0.05,-0.09 0.05,-0.28 0.15,-0.63 0.28,-1.05 -0.05,0 -0.08,0 -0.09,0 -0.01,0 -0.02,-0.01 -0.03,-0.02 0,-0.02 -0.01,-0.03 -0.01,-0.03 0,-0.01 0.01,-0.02 0.03,-0.02 0.03,-0.01 0.06,-0.02 0.09,-0.02 0.03,-0.01 0.04,-0.02 0.05,-0.03 0.1,-0.3 0.18,-0.5 0.24,-0.61 0.05,-0.09 0.1,-0.14 0.14,-0.14 0.04,0 0.11,0.04 0.21,0.11z"/>
  <path id="6" class="fil5" d="M6.26 7.65c0,0.08 -0.01,0.16 -0.03,0.24 -0.01,0.02 -0.02,0.03 -0.03,0.03 -0.01,0 -0.03,-0.01 -0.06,-0.04 -0.02,-0.01 -0.02,-0.03 -0.01,-0.05 0.02,-0.06 0.02,-0.11 0.02,-0.14 0,-0.01 0,-0.02 0,-0.02 -0.01,0 -0.02,0.01 -0.04,0.03 -0.13,0.18 -0.23,0.37 -0.3,0.59 -0.02,0.07 -0.04,0.1 -0.05,0.1 -0.01,0 -0.03,-0.01 -0.08,-0.03 -0.02,-0.01 -0.03,-0.04 -0.02,-0.07 0.05,-0.22 0.1,-0.41 0.16,-0.56 -0.05,0.05 -0.08,0.09 -0.09,0.1 0,0.01 -0.01,0.02 -0.02,0.02 -0.01,0 -0.02,-0.01 -0.02,-0.02 0,0 0.01,-0.01 0.01,-0.02 0.03,-0.03 0.07,-0.09 0.13,-0.17 0.01,-0.03 0.03,-0.04 0.04,-0.04 0.02,0 0.04,0.01 0.07,0.03 0.02,0.01 0.03,0.02 0.01,0.04 -0.01,0.02 -0.04,0.08 -0.08,0.19 -0.03,0.11 -0.06,0.2 -0.07,0.26 0.08,-0.19 0.18,-0.36 0.3,-0.51 0.02,-0.03 0.03,-0.04 0.05,-0.04 0.01,0 0.02,0 0.04,0.02 0.03,0 0.05,0.01 0.05,0.01 0.02,0.01 0.02,0.02 0.02,0.05z"/>
  <path id="7" class="fil5" d="M6.89 7.76c-0.01,0.06 -0.02,0.13 -0.05,0.23 -0.04,0.15 -0.1,0.26 -0.17,0.34 -0.04,0.05 -0.09,0.07 -0.14,0.07 -0.02,0 -0.04,-0.01 -0.07,-0.01 -0.06,-0.01 -0.11,-0.03 -0.15,-0.06 -0.04,-0.04 -0.06,-0.09 -0.06,-0.14 0.01,-0.07 0.03,-0.17 0.07,-0.29 0.05,-0.13 0.1,-0.22 0.16,-0.28 0.02,-0.03 0.04,-0.04 0.06,-0.04 0.02,0 0.05,0.02 0.1,0.06 0.02,-0.01 0.04,-0.02 0.09,-0.03 0.02,-0.01 0.03,-0.02 0.04,-0.02 0.03,0 0.06,0.03 0.09,0.07 0.02,0.03 0.03,0.07 0.03,0.1zm-0.12 0.03c0.01,-0.04 0.01,-0.07 0.01,-0.08 0,-0.03 -0.01,-0.04 -0.02,-0.04 -0.01,0 -0.02,0 -0.03,0l-0.15 0.06c-0.01,0.01 -0.02,0.01 -0.03,0.01 0,0 -0.01,0 -0.01,-0.02 -0.04,0.05 -0.07,0.11 -0.11,0.2 -0.02,0.07 -0.04,0.13 -0.05,0.18 0,0.04 -0.01,0.07 -0.01,0.1 0,0.1 0.03,0.15 0.09,0.14 0.03,0 0.05,-0.01 0.08,-0.03 0.06,-0.03 0.11,-0.11 0.15,-0.21 0.05,-0.11 0.07,-0.21 0.08,-0.31z"/>
  <path id="8" class="fil5" d="M8.12 8.06c-0.05,0.06 -0.11,0.17 -0.19,0.33 -0.01,0.01 -0.01,0.02 -0.01,0.02 -0.01,0.01 -0.02,0 -0.05,0 -0.04,-0.02 -0.06,-0.03 -0.06,-0.04 0,-0.01 0,-0.02 0.01,-0.03 0.05,-0.11 0.09,-0.23 0.12,-0.36 0.04,-0.13 0.05,-0.22 0.05,-0.29 0,-0.02 -0.01,-0.03 -0.02,-0.03 -0.01,0 -0.03,0 -0.04,0.01 -0.06,0.05 -0.13,0.13 -0.21,0.26 -0.11,0.15 -0.18,0.3 -0.22,0.43 -0.01,0.02 -0.01,0.03 -0.01,0.03 -0.01,0 -0.02,0 -0.03,-0.01 -0.02,-0.01 -0.04,-0.02 -0.06,-0.03 -0.01,-0.01 -0.02,-0.01 -0.02,-0.02 0,0 0.01,-0.02 0.02,-0.04 0.08,-0.21 0.12,-0.41 0.12,-0.61 0,-0.02 -0.01,-0.03 -0.02,-0.03 -0.01,0 -0.02,0.01 -0.03,0.02 -0.07,0.06 -0.14,0.15 -0.23,0.3 -0.08,0.13 -0.14,0.26 -0.18,0.37 -0.01,0.03 -0.02,0.05 -0.03,0.05 -0.01,0 -0.04,-0.02 -0.08,-0.05 -0.01,0 -0.01,-0.01 -0.01,-0.01 0,-0.01 0.01,-0.02 0.02,-0.04 0.03,-0.05 0.06,-0.15 0.09,-0.28 0.04,-0.16 0.05,-0.27 0.05,-0.34 -0.01,0.01 -0.03,0.02 -0.05,0.05 -0.02,0.02 -0.04,0.03 -0.05,0.04 -0.01,0.01 -0.02,0.02 -0.03,0.02 0,0 -0.01,-0.01 -0.01,-0.02 0,-0.01 0,-0.02 0.01,-0.03 0.04,-0.04 0.07,-0.08 0.11,-0.13 0.01,-0.02 0.02,-0.03 0.03,-0.03 0.01,0 0.02,0.01 0.04,0.03 0.02,0.01 0.03,0.02 0.05,0.02 0.01,0.01 0.02,0.02 0.02,0.04 0,0 0,0.01 0,0.01 -0.02,0.13 -0.04,0.24 -0.07,0.35 0.11,-0.2 0.21,-0.35 0.31,-0.43 0.01,-0.02 0.03,-0.02 0.04,-0.02 0.01,0 0.03,0.01 0.06,0.02 0.03,0.01 0.04,0.03 0.05,0.03 0.01,0.02 0.02,0.03 0.02,0.06 0,0.13 -0.02,0.24 -0.05,0.35 0.13,-0.2 0.24,-0.35 0.34,-0.44 0.02,-0.02 0.03,-0.02 0.04,-0.02 0.02,0 0.05,0.01 0.08,0.04 0.05,0 0.07,0.03 0.07,0.09 -0.01,0.15 -0.04,0.3 -0.1,0.44 0.03,-0.03 0.05,-0.07 0.07,-0.1 0.01,-0.01 0.02,-0.02 0.03,-0.02 0.01,0 0.01,0.01 0.01,0.02 0,0.01 0,0.01 0,0.02z"/>
  <path class="fil2" d="M6.88 3.84l-0.1 0.35 -0.7 0.02 0.57 0.4 -0.17 0.67c0.82,-0.6 0.52,-0.23 0.53,-1.43l-0.01 -0.01c-0.05,0.01 -0.09,0.01 -0.12,0z"/>
 </g>
</svg>
