<svg width="101" height="151" viewBox="0 0 101 151" fill="none" xmlns="http://www.w3.org/2000/svg">
<path d="M0 2.16628H101V151H0V2.16628Z" fill="white"/>
<path fill-rule="evenodd" clip-rule="evenodd" d="M25.4757 35.2021C31.6941 33.502 38.1132 30.5018 44.8332 30.9018C41.1221 33.802 35.9067 35.6021 32.8977 39.5023C43.7299 36.6021 51.9543 34.602 64.0904 37.7022C67.0993 38.5023 70.5094 40.1024 73.3178 40.7024L72.2145 44.5026L64.7924 44.8026L70.8103 49.0029L69.005 56.1033C78.1321 49.5029 74.3207 53.9032 74.7219 39.4023C74.7219 38.5023 74.7219 37.5022 74.8222 36.5021C75.1231 31.6019 75.3237 26.7016 75.6246 21.8013C75.8252 15.7009 77.1291 13.8008 70.6097 11.4007C59.8778 7.50044 40.1192 8.10047 29.7885 13.2008C25.4757 15.3009 22.1658 16.401 23.1688 21.6013C23.9712 26.1015 24.6733 30.7018 25.4757 35.2021Z" fill="#C90000"/>
<path fill-rule="evenodd" clip-rule="evenodd" d="M47.9424 46.0027L40.4201 46.7027C41.7239 48.3028 44.7329 49.8029 46.8391 50.603L45.3347 58.5034L51.3525 53.4031L58.1728 57.2034C57.3704 54.7032 55.6653 52.4031 55.3644 49.9029L60.8808 44.8026L53.1579 45.4027L49.8481 38.3022L47.9424 46.0027Z" fill="#0048FF"/>
<path fill-rule="evenodd" clip-rule="evenodd" d="M28.1837 56.1033L34.9037 59.3035L31.3932 52.4031C32.998 50.903 35.8064 48.8029 36.6087 47.0028L28.9861 48.3028L26.0775 42.4025L28.1837 56.1033Z" fill="#0048FF"/>
<path fill-rule="evenodd" clip-rule="evenodd" d="M15.3456 73.8043C14.142 71.2042 12.6375 70.4041 13.0387 68.404C13.2393 67.504 13.2393 67.2039 14.4429 66.7039C25.8769 61.6036 43.3287 79.1046 73.2175 63.3037C76.9285 61.3036 85.3535 53.6031 88.8639 55.5033C90.3684 57.1033 88.2622 58.7034 88.1619 59.8035C92.2741 58.8034 94.0794 54.1032 92.575 51.503C92.0735 50.603 89.4657 49.9029 86.2562 50.903C79.0348 53.1031 60.7805 72.3042 32.3962 63.6037C26.9801 62.0036 8.72592 58.5034 7.52235 65.6038C6.92056 68.904 12.4369 73.4043 15.3456 73.8043Z" fill="#0048FF"/>
<path fill-rule="evenodd" clip-rule="evenodd" d="M53.6594 129.108V129.208L53.5591 129.108C52.1549 129.108 51.0516 127.807 49.6475 127.507C49.9484 128.208 50.0487 130.108 50.2493 130.908C50.4498 131.008 50.6504 131.008 50.851 131.108L51.2522 130.208L52.3555 133.108C52.2552 133.108 52.1549 133.108 52.0546 133.108C52.5561 133.708 52.9573 134.408 53.3585 135.108C54.1609 136.008 54.0606 136.308 55.3644 137.108C56.0665 134.108 56.568 132.608 56.6683 129.408L57.8719 130.808C59.0755 130.308 58.4737 127.707 59.0755 126.407L58.3734 127.007C56.568 127.507 55.4647 129.108 53.6594 129.108ZM54.9633 138.608L55.0636 138.508C54.9633 138.408 54.9633 138.408 54.863 138.408L54.9633 138.608Z" fill="#2B2A29"/>
<path d="M32.1956 96.3056C32.1956 100.806 38.4141 100.206 38.4141 101.506C38.4141 101.906 38.1132 102.206 37.0099 102.206C35.6058 102.206 33.9007 101.706 32.2959 100.706L32.3962 104.506C33.8004 105.306 35.5055 105.706 37.4111 105.706C40.4201 105.706 42.8272 104.806 42.8272 101.506C42.8272 97.1057 36.6087 97.7057 36.6087 96.4057C36.6087 96.0056 36.8093 95.8056 37.712 95.8056C39.1162 95.8056 40.7209 96.2056 41.9245 97.0057V93.4055C40.6207 92.7054 38.9156 92.3054 37.2105 92.3054C34.4022 92.3054 32.1956 93.6055 32.1956 96.3056Z" fill="#2B2A29"/>
<path d="M47.0397 105.306L47.5412 103.606H52.0546L52.5561 105.306H56.8689L52.0546 92.5054L47.4409 92.6054L42.7269 105.406L47.0397 105.306ZM49.4469 97.9057C49.5472 97.4057 49.6475 96.9057 49.7478 96.2056C49.8481 96.9057 49.9484 97.4057 50.149 97.9057L51.0516 100.606H48.5442L49.4469 97.9057Z" fill="#2B2A29"/>
<path d="M68.6038 92.5054L65.0933 98.1058L61.4826 92.5054H57.6713L57.7716 105.306H61.8838V99.4058L63.9901 102.706H66.1966L68.3029 99.4058V105.206H72.4151L72.3148 92.5054H68.6038Z" fill="#2B2A29"/>
<path d="M30.1897 108.206V115.807C30.29 116.907 29.5879 117.407 28.4846 117.407C27.3813 117.407 26.7795 117.007 26.7795 115.807V108.206H22.4667L22.567 116.007C22.567 119.907 25.4757 121.207 28.4846 121.207C31.5938 121.207 34.5025 119.907 34.4022 115.907V108.106L30.1897 108.206Z" fill="#2B2A29"/>
<path d="M40.5204 120.907V117.007C40.4201 116.407 40.4201 115.707 40.3198 114.907L44.7329 120.807H48.2433V108.106H44.0308V111.907C44.0308 112.607 44.0308 113.307 44.1311 114.107L39.8183 108.106H36.2075L36.3078 120.907H40.5204Z" fill="#2B2A29"/>
<path d="M49.6475 114.607C49.7478 119.207 53.1579 121.107 56.8689 121.107C58.1728 121.107 59.4767 120.807 60.5799 120.307V116.407C59.8779 117.007 58.6743 117.407 57.3704 117.407C55.6653 117.407 54.0606 116.607 54.0606 114.507C53.9603 112.307 55.6653 111.407 57.4707 111.407C58.574 111.407 59.7776 111.707 60.4797 112.207L60.3793 108.506C59.2761 108.006 57.9722 107.706 56.6683 107.706C53.1579 107.706 49.6475 109.706 49.6475 114.607Z" fill="#2B2A29"/>
<path d="M62.0844 108.006V120.807L71.8133 120.707V117.007L66.2969 117.107V108.006H62.0844Z" fill="#2B2A29"/>
<path d="M72.9166 107.906L73.0169 120.707H82.8461V117.307H77.2294V115.807H82.0437V112.707H77.2294V111.207H82.6455V107.906H72.9166Z" fill="#2B2A29"/>
<path d="M24.9742 80.8047C24.9742 81.1048 24.8739 81.6048 24.6733 82.2048C24.6733 82.5048 24.573 82.6048 24.4727 82.7048C24.4727 82.7048 24.3724 82.8048 24.1718 82.8048C23.8709 82.9049 23.7706 83.0049 23.6703 83.0049C23.57 83.0049 23.57 82.9049 23.57 82.8048C23.57 82.7048 23.57 82.6048 23.57 82.5048C23.7706 81.8048 23.7706 81.3048 23.7706 81.1048C23.6703 80.8047 23.7706 80.6047 23.9712 80.6047C24.2721 80.4047 24.573 80.3047 24.6733 80.3047C24.8739 80.3047 24.9742 80.5047 24.9742 80.8047ZM23.3694 86.6051C23.3694 87.4051 22.8679 88.0052 21.9652 88.3052C21.8649 88.6052 21.7646 88.8052 21.6644 88.9052C21.4638 89.0052 21.2632 89.1052 20.9623 89.2052C20.7617 89.2052 20.5611 89.2052 20.3605 89.1052C19.9593 89.1052 19.4578 89.0052 18.856 88.9052C18.6554 88.9052 18.5551 88.8052 18.5551 88.6052C18.5551 88.4052 18.7557 88.3052 19.1569 88.3052C19.5581 88.3052 20.3605 88.2052 21.2632 88.0052C21.6643 88.0052 21.8649 87.8051 22.0655 87.4051C22.0655 87.3051 22.1658 87.1051 22.1658 86.8051C22.1658 86.4051 21.9652 85.605 21.4638 84.605C21.0626 83.5049 20.862 82.8049 20.9623 82.5048C20.9623 81.6048 21.7646 81.0047 23.2691 80.7047C23.3694 80.6047 23.4697 80.7047 23.4697 80.8047C23.4697 80.9047 23.4697 81.0048 23.3694 81.0048C22.567 81.4048 22.2661 81.8048 22.2661 82.2048C22.2661 82.4048 22.2661 82.6048 22.3664 82.9049C22.3664 83.2049 22.567 83.8049 22.9682 84.905C23.1688 85.605 23.3694 86.205 23.3694 86.6051Z" fill="#2B2A29"/>
<path d="M32.998 81.5048C32.0953 83.2049 31.4935 85.205 30.9921 87.4051C31.1926 87.1051 31.3932 86.7051 31.6941 86.205C31.6941 86.105 31.7944 86.005 31.8947 86.005C31.995 86.005 31.995 86.105 31.995 86.205V86.3051C31.5938 87.3051 31.2929 88.1052 31.0924 88.6052C30.9921 89.0052 30.8918 89.1052 30.7915 89.1052C30.6912 89.1052 30.3903 89.0052 29.9891 88.7052C29.7885 88.6052 29.6882 88.3052 29.7885 88.0052C30.0894 86.5051 30.3903 85.205 30.7915 84.1049C29.4876 86.2051 28.3843 87.8051 27.4816 88.8052C27.281 89.0052 27.0804 89.1052 26.8798 89.1052C26.6792 89.1052 26.4786 89.1052 26.1777 88.9052C25.6763 88.8052 25.4757 88.6052 25.4757 88.2052C25.4757 88.1052 25.4757 88.0052 25.4757 87.9052C25.6763 86.005 26.0775 84.405 26.5789 83.1049C26.4786 83.2049 26.278 83.4049 26.0775 83.6049C25.9772 83.6049 25.8769 83.7049 25.8769 83.6049C25.7766 83.6049 25.7766 83.5049 25.8769 83.4049C26.278 82.9049 26.4786 82.5048 26.4786 82.3048C26.6792 81.8048 26.9801 81.4048 27.1807 81.1047C27.281 81.0047 27.3813 80.9047 27.5819 80.9047C27.7825 80.9047 27.9831 81.0047 28.3843 81.2048C28.4846 81.3048 28.4846 81.3048 28.4846 81.4048C28.4846 81.4048 28.4846 81.5048 28.284 81.7048C27.9831 82.2048 27.5819 83.1049 27.1807 84.505C26.7795 85.905 26.5789 87.0051 26.5789 87.9052C26.5789 88.2052 26.6792 88.4052 26.7795 88.4052C26.8798 88.4052 27.0804 88.2052 27.281 88.0052C27.7825 87.4051 28.5849 86.4051 29.5879 84.805C30.4906 83.4049 30.9921 82.6048 31.1926 82.1048C31.4935 81.5048 31.6941 81.0047 31.8947 80.9047C31.995 80.8047 32.1956 80.8047 32.1956 80.8047C32.2959 80.8047 32.4965 80.9047 32.7974 81.0047C33.0983 81.2048 33.1986 81.3048 33.1986 81.3048C33.1986 81.3048 33.1986 81.4048 33.0983 81.4048C33.0983 81.4048 33.0983 81.5048 32.998 81.5048Z" fill="#2B2A29"/>
<path d="M38.4141 80.8047C38.4141 81.1048 38.3138 81.6048 38.1132 82.2048C38.1132 82.5048 38.0129 82.6048 37.9126 82.7048C37.9126 82.7048 37.8123 82.8048 37.6117 82.8048C37.3108 82.9049 37.2105 83.0049 37.1102 83.0049C37.0099 83.0049 36.9096 82.9049 36.9096 82.8048C36.9096 82.7048 37.0099 82.6048 37.0099 82.5048C37.1102 81.8048 37.2105 81.3048 37.2105 81.1048C37.1102 80.8047 37.2105 80.6047 37.4111 80.6047C37.712 80.4047 37.9126 80.3047 38.0129 80.3047C38.3138 80.3047 38.4141 80.5047 38.4141 80.8047ZM36.8093 86.6051C36.8093 87.4051 36.3078 88.0052 35.4052 88.3052C35.3049 88.6052 35.2046 88.8052 35.1043 88.9052C34.9037 89.0052 34.7031 89.1052 34.4022 89.2052C34.2016 89.2052 34.001 89.2052 33.7001 89.1052C33.2989 89.1052 32.7974 89.0052 32.2959 88.9052C32.0953 88.9052 31.995 88.8052 31.995 88.6052C31.995 88.4052 32.1956 88.3052 32.4965 88.3052C32.998 88.3052 33.7001 88.2052 34.7031 88.0052C35.004 88.0052 35.3049 87.8051 35.4052 87.4051C35.5055 87.3051 35.6058 87.1051 35.6058 86.8051C35.6058 86.4051 35.3049 85.605 34.9037 84.605C34.5025 83.5049 34.3019 82.8049 34.3019 82.5048C34.4022 81.6048 35.2046 81.0047 36.709 80.7047C36.8093 80.6047 36.9096 80.7047 36.9096 80.8047C36.9096 80.9047 36.8093 81.0048 36.709 81.0048C36.007 81.4048 35.6058 81.8048 35.6058 82.2048C35.6058 82.4048 35.7061 82.6048 35.7061 82.9049C35.8064 83.2049 36.007 83.8049 36.4081 84.905C36.6087 85.605 36.709 86.205 36.8093 86.6051Z" fill="#2B2A29"/>
<path d="M46.8391 73.1043C46.9394 73.2043 46.9394 73.3043 46.9394 73.3043C46.9394 73.5043 46.8391 73.5043 46.7388 73.5043C46.6385 73.5043 46.5382 73.5043 46.5382 73.5043C46.2373 73.3043 45.9364 73.2043 45.8361 73.2043C45.3347 73.2043 44.9335 73.6043 44.432 74.5044C42.6266 77.4045 41.3227 81.2048 40.4201 85.905C41.5233 83.8049 42.8272 82.1048 44.2314 80.8047C44.5323 80.6047 44.7329 80.4047 44.9335 80.4047C44.9335 80.4047 45.1341 80.5047 45.435 80.7047C45.7358 80.9047 45.9364 81.0048 46.0367 81.0048C46.2373 81.1048 46.2373 81.4048 46.2373 81.8048C46.2373 81.9048 46.2373 82.0048 46.2373 82.2048C46.137 83.4049 45.8361 84.805 45.2344 86.6051C45.435 86.3051 45.7358 85.905 46.2373 85.305C46.3376 85.205 46.4379 85.105 46.5382 85.105C46.5382 85.105 46.6385 85.205 46.6385 85.305C46.6385 85.405 46.5382 85.505 46.4379 85.605C46.137 86.2051 45.5353 87.0051 44.9335 88.1052C44.8332 88.2052 44.7329 88.5052 44.5323 89.0052C44.432 89.2052 44.3317 89.3052 44.1311 89.3052C43.9305 89.3052 43.7299 89.2052 43.3287 89.0052C43.2284 88.9052 43.2284 88.7052 43.3287 88.5052C44.432 85.605 45.1341 83.4049 45.1341 81.9048C45.2344 81.5048 45.1341 81.3048 45.0338 81.3048C44.9335 81.3048 44.7329 81.4048 44.432 81.6048C43.9305 82.1048 43.2284 82.8049 42.5263 83.9049C41.5233 85.305 40.721 86.7051 40.1192 88.2052C40.0189 88.6052 39.8183 88.9052 39.718 88.9052C39.6177 88.9052 39.4171 88.7052 39.0159 88.4052C38.9156 88.3052 38.8153 88.1052 38.9156 87.7052C39.6177 83.4049 40.721 79.7047 41.9245 76.7045C42.9275 74.4044 43.7299 72.9043 44.5323 72.2042C44.7329 72.0042 44.9335 72.0042 45.0338 72.0042C45.2344 72.0042 45.5353 72.1042 45.8361 72.3042C46.137 72.6043 46.4379 72.8043 46.8391 73.1043Z" fill="#2B2A29"/>
<path d="M51.7537 77.5045C51.854 77.6046 51.854 77.7046 51.854 77.8046C51.854 78.0046 51.5531 78.3046 50.9513 78.7046C50.6504 79.0046 50.2493 79.1046 49.8481 79.0046C49.6475 79.0046 49.4469 78.9046 49.3466 78.8046C49.2463 78.7046 49.2463 78.7046 49.2463 78.6046C49.2463 78.6046 49.2463 78.6046 49.2463 78.5046C49.2463 78.5046 49.2463 78.5046 49.3466 78.5046C49.9484 78.0046 50.3496 77.6046 50.5501 77.3045C50.7507 77.2045 50.851 77.1045 50.9513 77.1045C51.0516 77.1045 51.2522 77.2045 51.7537 77.5045ZM50.2493 82.0048C50.149 82.9049 49.6475 84.4049 48.9454 86.6051C49.146 86.4051 49.4469 86.1051 49.8481 85.605C49.8481 85.505 49.9484 85.505 49.9484 85.505C50.0487 85.505 50.0487 85.605 49.9484 85.805C49.9484 85.905 49.6475 86.3051 49.146 87.2051C48.7448 87.8052 48.4439 88.4052 48.2433 88.9052C48.143 89.1052 48.0427 89.1052 47.9424 89.1052C47.7418 89.1052 47.5412 89.1052 47.2403 88.9052C47.0397 88.8052 46.9394 88.7052 46.9394 88.7052C46.9394 88.7052 47.0397 88.6052 47.0397 88.4052C47.4409 87.8052 47.8421 86.7051 48.3436 85.205C48.7448 83.7049 48.9454 82.6048 49.0457 81.9048C49.0457 81.6048 49.0457 81.5048 48.9454 81.5048C48.8451 81.5048 48.7448 81.5048 48.6445 81.7048L47.9424 82.3048C47.7418 82.5048 47.6415 82.5048 47.6415 82.3048C47.6415 82.2048 47.6415 82.2048 47.7418 82.1048C48.0427 81.6048 48.4439 81.2048 48.7448 80.8047C48.8451 80.7047 48.9454 80.7047 49.0457 80.7047C49.146 80.7047 49.3466 80.7047 49.5472 80.9047C49.8481 81.0048 50.0487 81.0048 50.0487 81.0048C50.2493 81.1048 50.3496 81.3048 50.3496 81.6048C50.3496 81.7048 50.2493 81.8048 50.2493 82.0048Z" fill="#2B2A29"/>
<path d="M63.6892 73.6043C63.7895 73.7043 63.8898 73.8043 63.8898 73.9043C63.8898 74.0043 63.7895 74.1043 63.5889 74.1043C63.5889 74.1043 63.4886 74.1043 63.3883 74.0043C62.9871 73.8043 62.6862 73.7043 62.3853 73.7043C62.1847 73.7043 61.9841 73.8043 61.7835 73.9043C61.0814 74.3044 59.9782 76.6045 58.574 80.7047C59.6773 80.8047 60.3793 80.9047 60.5799 80.9047C60.7805 80.9047 60.8808 81.0047 60.8808 81.1048C60.8808 81.2048 60.7805 81.3048 60.5799 81.3048C59.7776 81.5048 58.9752 81.6048 58.1728 81.6048C57.2701 84.4049 56.568 86.9051 55.9662 89.3052C55.565 91.2053 55.3645 92.6054 55.3645 93.4055C55.3645 93.5055 55.3645 93.6055 55.3645 93.7055C55.4648 93.8055 55.4648 94.0055 55.4648 94.0055C55.4648 94.1055 55.3645 94.2055 55.3645 94.2055C55.2642 94.2055 54.9633 94.1055 54.5621 93.8055C54.1609 93.6055 53.9603 93.3055 53.9603 92.9054C54.5621 89.9053 55.565 86.105 57.0695 81.7048C56.4677 81.7048 56.1668 81.7048 56.0665 81.7048C55.8659 81.7048 55.7656 81.6048 55.7656 81.5048C55.6653 81.3048 55.6653 81.2048 55.6653 81.2048C55.6653 81.1048 55.7656 81.0048 55.9662 80.9047C56.2671 80.9047 56.568 80.8047 56.8689 80.7047C57.1698 80.7047 57.3704 80.5047 57.3704 80.4047C58.4737 77.2045 59.3764 75.1044 59.9782 73.9043C60.4796 73.0043 60.9811 72.5042 61.4826 72.5042C61.9841 72.5042 62.6862 72.9043 63.6892 73.6043Z" fill="#2B2A29"/>
<path d="M66.6981 81.3048C66.6981 82.1048 66.5978 83.0049 66.3972 83.8049C66.2969 84.0049 66.1966 84.2049 66.0963 84.2049C65.996 84.2049 65.6951 84.0049 65.3942 83.8049C65.2939 83.6049 65.1936 83.4049 65.2939 83.2049C65.4945 82.6048 65.5948 82.1048 65.5948 81.7048C65.5948 81.6048 65.5948 81.5048 65.4945 81.5048C65.3942 81.5048 65.2939 81.6048 65.0933 81.9048C63.6892 83.7049 62.5859 85.805 61.8838 88.1052C61.6832 88.8052 61.4826 89.1052 61.3823 89.1052C61.282 89.1052 60.9811 89.0052 60.5799 88.8052C60.2791 88.7052 60.1788 88.4052 60.2791 88.1052C60.8808 85.805 61.3823 83.8049 61.9841 82.2048C61.4826 82.7049 61.1817 83.0049 61.0814 83.2049C60.9811 83.3049 60.9811 83.4049 60.8808 83.4049C60.6802 83.4049 60.6802 83.3049 60.6802 83.2049C60.6802 83.2049 60.6802 83.1049 60.7805 83.0049C61.0814 82.6049 61.4826 82.0048 62.0844 81.2048C62.285 80.9047 62.3853 80.7047 62.5859 80.7047C62.6862 80.7047 62.9871 80.8047 63.3883 81.0048C63.5889 81.1048 63.5889 81.3048 63.4886 81.5048C63.288 81.7048 62.9871 82.4048 62.5859 83.5049C62.1847 84.705 61.8838 85.605 61.7835 86.3051C62.6862 84.2049 63.7895 82.4048 64.993 80.8047C65.1936 80.5047 65.3942 80.4047 65.4945 80.4047C65.5948 80.4047 65.7954 80.5047 65.996 80.6047C66.2969 80.7047 66.4975 80.7047 66.4975 80.8047C66.6981 80.8047 66.6981 81.0048 66.6981 81.3048Z" fill="#2B2A29"/>
<path d="M73.4181 82.5048C73.3178 83.1049 73.2175 83.9049 72.9166 84.905C72.5154 86.4051 71.8133 87.7051 71.0109 88.5052C70.6097 89.0052 70.1082 89.2052 69.6068 89.2052C69.4062 89.2052 69.1053 89.2052 68.8044 89.1052C68.2026 89.1052 67.7011 88.9052 67.2999 88.5052C66.7984 88.1052 66.5978 87.6051 66.6981 87.0051C66.6981 86.3051 66.8987 85.305 67.4002 84.0049C67.9017 82.6048 68.5035 81.5048 69.005 80.9047C69.3059 80.6047 69.5065 80.5047 69.707 80.5047C69.9076 80.5047 70.3088 80.7047 70.8103 81.2048C70.9106 81.1048 71.2115 81.0047 71.713 80.8047C71.9136 80.7047 72.1142 80.7047 72.2145 80.7047C72.4151 80.7047 72.716 80.9047 73.1172 81.4048C73.3178 81.7048 73.4181 82.1048 73.4181 82.5048ZM72.2145 82.8048C72.2145 82.3048 72.2145 82.0048 72.2145 81.9048C72.2145 81.6048 72.2145 81.5048 72.0139 81.5048C71.9136 81.5048 71.8133 81.5048 71.713 81.5048L70.1082 82.1048C70.0079 82.2048 69.9076 82.3048 69.8074 82.3048C69.8074 82.3048 69.707 82.2048 69.707 82.1048C69.3059 82.5048 68.9047 83.2049 68.6038 84.2049C68.3029 84.905 68.1023 85.505 68.002 86.105C67.9017 86.5051 67.9017 86.8051 67.9017 87.1051C67.9017 88.2052 68.2026 88.7052 68.9047 88.6052C69.1053 88.6052 69.4062 88.5052 69.707 88.3052C70.3088 88.0052 70.8103 87.2051 71.3118 86.005C71.8133 84.905 72.1142 83.8049 72.2145 82.8048Z" fill="#2B2A29"/>
<path d="M86.4568 85.705C86.0556 86.3051 85.3535 87.5051 84.5511 89.2052C84.4508 89.3052 84.3505 89.4052 84.3505 89.4052C84.2502 89.4052 84.15 89.4052 83.9494 89.3052C83.4479 89.2052 83.2473 89.1052 83.2473 88.9052C83.2473 88.9052 83.2473 88.7052 83.3476 88.6052C83.8491 87.4051 84.2502 86.105 84.6514 84.805C84.9523 83.5049 85.1529 82.4048 85.1529 81.7048C85.1529 81.5048 85.0526 81.3048 84.9523 81.3048C84.7517 81.3048 84.6514 81.4048 84.4508 81.5048C83.9494 82.0048 83.147 82.9049 82.2443 84.3049C81.141 85.905 80.3386 87.4051 79.9374 88.8052C79.8371 89.0052 79.8371 89.1052 79.7368 89.1052C79.7368 89.1052 79.6365 89.1052 79.436 89.1052C79.2354 89.0052 79.0348 88.9052 78.8342 88.7052C78.7339 88.6052 78.6336 88.6052 78.6336 88.5052C78.6336 88.5052 78.7339 88.3052 78.8342 88.1052C79.7368 85.905 80.138 83.7049 80.138 81.6048C80.138 81.4048 80.0377 81.3048 79.9374 81.3048C79.8371 81.3048 79.7368 81.4048 79.6365 81.5048C78.9345 82.1048 78.1321 83.1049 77.2294 84.605C76.3267 86.105 75.7249 87.4051 75.3237 88.6052C75.1231 89.0052 75.0228 89.1052 74.9225 89.1052C74.8222 89.1052 74.5213 89.0052 74.1202 88.7052C74.0199 88.6052 73.9196 88.5052 73.9196 88.5052C73.9196 88.4052 74.0199 88.3052 74.1202 88.1052C74.421 87.5051 74.7219 86.5051 75.1231 85.105C75.5243 83.4049 75.7249 82.2048 75.6246 81.5048C75.5243 81.6048 75.3237 81.7048 75.1231 82.0048C74.8222 82.2048 74.7219 82.4048 74.5213 82.5048C74.5213 82.6048 74.4211 82.6049 74.3208 82.6049C74.2205 82.6049 74.2205 82.6048 74.2205 82.4048C74.2205 82.3048 74.2205 82.2048 74.3208 82.1048C74.6216 81.8048 75.0228 81.3048 75.424 80.7047C75.5243 80.6047 75.7249 80.5047 75.8252 80.5047C75.8252 80.5047 76.0258 80.6047 76.2264 80.8047C76.427 80.9047 76.5273 80.9047 76.7279 81.0048C76.9285 81.0048 76.9285 81.2048 76.9285 81.4048V81.5048C76.7279 82.8049 76.5273 84.1049 76.1261 85.205C77.3297 83.0049 78.433 81.5048 79.5362 80.6047C79.6365 80.5047 79.7368 80.4047 79.9374 80.4047C80.0377 80.4047 80.2383 80.5047 80.5392 80.7047C80.8401 80.8047 81.0407 80.9047 81.141 81.0048C81.2413 81.1048 81.2413 81.3048 81.2413 81.6048C81.2413 83.0049 81.141 84.2049 80.8401 85.305C82.144 83.2049 83.3476 81.6048 84.4508 80.6047C84.5511 80.5047 84.7517 80.4047 84.852 80.4047C85.0526 80.4047 85.3535 80.5047 85.6544 80.8047C86.1559 80.9047 86.4568 81.2048 86.3565 81.8048C86.3565 83.4049 85.9553 85.005 85.3535 86.5051C85.6544 86.105 85.9553 85.805 86.1559 85.505C86.2562 85.305 86.3565 85.305 86.4568 85.305C86.5571 85.305 86.5571 85.305 86.5571 85.405C86.5571 85.505 86.5571 85.605 86.4568 85.705Z" fill="#2B2A29"/>
<path fill-rule="evenodd" clip-rule="evenodd" d="M73.3178 40.8024L72.2145 44.5026L64.7924 44.8026L70.8103 49.0029L69.005 56.1033C77.8312 49.8029 74.5214 53.6031 74.6217 40.9024H74.5213C74.1202 40.9024 73.719 40.9024 73.3178 40.8024Z" fill="#0048FF"/>
</svg>
