<svg width="81" height="121" viewBox="0 0 81 121" fill="none" xmlns="http://www.w3.org/2000/svg">
<path d="M0 1.73589H81V121H0V1.73589Z" fill="white"/>
<path fill-rule="evenodd" clip-rule="evenodd" d="M20.431 28.2083C25.4181 26.8459 30.566 24.4418 35.9553 24.7624C32.9791 27.0864 28.7964 28.5288 26.3833 31.6542C35.0705 29.3302 41.6663 27.7275 51.3992 30.2117C53.8123 30.8528 56.5472 32.135 58.7994 32.6158L57.9146 35.661L51.9623 35.9014L56.7885 39.2672L55.3406 44.9569C62.6604 39.6679 59.6038 43.1939 59.9255 31.574C59.9255 30.8528 59.9255 30.0514 60.006 29.2501C60.2473 25.3233 60.4081 21.3966 60.6494 17.4699C60.8103 12.5815 61.856 11.0589 56.6276 9.13563C48.0208 6.01029 32.1748 6.49111 23.8898 10.5781C20.431 12.261 17.7766 13.1425 18.5809 17.3096C19.2244 20.9158 19.7875 24.6021 20.431 28.2083Z" fill="#C90000"/>
<path fill-rule="evenodd" clip-rule="evenodd" d="M38.4489 36.8631L32.4161 37.424C33.4618 38.7062 35.8749 39.9083 37.5641 40.5494L36.3575 46.8802L41.1837 42.7932L46.6534 45.8384C46.0099 43.835 44.6425 41.9919 44.4012 39.9884L48.8252 35.9014L42.6316 36.3823L39.9772 30.6925L38.4489 36.8631Z" fill="#0048FF"/>
<path fill-rule="evenodd" clip-rule="evenodd" d="M22.6028 44.9569L27.9921 47.5213L25.1768 41.9919C26.4638 40.7898 28.716 39.1069 29.3595 37.6645L23.2463 38.7062L20.9136 33.9781L22.6028 44.9569Z" fill="#0048FF"/>
<path fill-rule="evenodd" clip-rule="evenodd" d="M12.3069 59.1412C11.3416 57.0576 10.1351 56.4165 10.4568 54.8138C10.6177 54.0926 10.6177 53.8522 11.5829 53.4515C20.7527 49.3645 34.7488 63.3885 58.719 50.7268C61.6951 49.1241 68.4518 42.9535 71.2671 44.4761C72.4737 45.7583 70.7845 47.0405 70.7041 47.922C74.002 47.1206 75.4499 43.3542 74.2433 41.2706C73.8411 40.5494 71.7498 39.9884 69.1758 40.7898C63.3843 42.5528 48.7448 57.9392 25.9811 50.9672C21.6375 49.685 6.99802 46.8802 6.03277 52.57C5.55015 55.2145 9.97418 58.8207 12.3069 59.1412Z" fill="#0048FF"/>
<path fill-rule="evenodd" clip-rule="evenodd" d="M43.0338 103.457V103.537L42.9533 103.457C41.8272 103.457 40.9424 102.415 39.8163 102.175C40.0576 102.736 40.138 104.258 40.2989 104.9C40.4598 104.98 40.6207 104.98 40.7815 105.06L41.1033 104.339L41.9881 106.663C41.9076 106.663 41.8272 106.663 41.7468 106.663C42.149 107.143 42.4707 107.704 42.7925 108.265C43.436 108.987 43.3555 109.227 44.4012 109.868C44.9643 107.464 45.3664 106.262 45.4469 103.697L46.4121 104.819C47.3774 104.419 46.8947 102.335 47.3774 101.293L46.8143 101.774C45.3664 102.175 44.4816 103.457 43.0338 103.457ZM44.0794 111.07L44.1599 110.99C44.0794 110.91 44.0794 110.91 43.999 110.91L44.0794 111.07Z" fill="#2B2A29"/>
<path d="M25.8203 77.1721C25.8203 80.7782 30.8073 80.2974 30.8073 81.3392C30.8073 81.6597 30.566 81.9002 29.6812 81.9002C28.5551 81.9002 27.1877 81.4995 25.9007 80.6981L25.9811 83.7433C27.1072 84.3844 28.4747 84.705 30.003 84.705C32.4161 84.705 34.3466 83.9837 34.3466 81.3392C34.3466 77.8132 29.3595 78.294 29.3595 77.2522C29.3595 76.9317 29.5204 76.7714 30.2443 76.7714C31.3704 76.7714 32.6574 77.0919 33.6226 77.733V74.8481C32.577 74.2871 31.2095 73.9666 29.8421 73.9666C27.5899 73.9666 25.8203 75.0084 25.8203 77.1721Z" fill="#2B2A29"/>
<path d="M37.7249 84.3844L38.1271 83.0221H41.7468L42.149 84.3844H45.6077L41.7468 74.1269L38.0467 74.207L34.2661 84.4646L37.7249 84.3844ZM39.6554 78.4543C39.7358 78.0536 39.8163 77.6529 39.8967 77.0919C39.9772 77.6529 40.0576 78.0536 40.2185 78.4543L40.9424 80.618H38.9315L39.6554 78.4543Z" fill="#2B2A29"/>
<path d="M55.0189 74.1269L52.2036 78.6145L49.3079 74.1269H46.2512L46.3317 84.3844H49.6296V79.6563L51.3188 82.3008H53.0884L54.7776 79.6563V84.3043H58.0755L57.995 74.1269H55.0189Z" fill="#2B2A29"/>
<path d="M24.2115 86.7084V92.7988C24.292 93.6803 23.7289 94.081 22.8441 94.081C21.9593 94.081 21.4767 93.7605 21.4767 92.7988V86.7084H18.0179L18.0983 92.9591C18.0983 96.0844 20.431 97.1262 22.8441 97.1262C25.3376 97.1262 27.6703 96.0844 27.5899 92.8789V86.6283L24.2115 86.7084Z" fill="#2B2A29"/>
<path d="M32.4965 96.8858V93.7605C32.4161 93.2796 32.4161 92.7187 32.3357 92.0776L35.8749 96.8057H38.6902V86.6283H35.3118V89.6735C35.3118 90.2344 35.3118 90.7954 35.3923 91.4365L31.9335 86.6283H29.0377L29.1182 96.8858H32.4965Z" fill="#2B2A29"/>
<path d="M39.8163 91.8372C39.8967 95.5235 42.6316 97.0461 45.6078 97.0461C46.6534 97.0461 47.6991 96.8057 48.5839 96.405V93.2796C48.0209 93.7605 47.0556 94.081 46.0099 94.081C44.6425 94.081 43.3555 93.4399 43.3555 91.757C43.2751 89.994 44.6425 89.2728 46.0904 89.2728C46.9752 89.2728 47.9404 89.5132 48.5035 89.9139L48.423 86.9488C47.5382 86.5481 46.4926 86.3077 45.4469 86.3077C42.6316 86.3077 39.8163 87.9104 39.8163 91.8372Z" fill="#2B2A29"/>
<path d="M49.7905 86.5481V96.8057L57.5928 96.7255V93.7605L53.1688 93.8406V86.5481H49.7905Z" fill="#2B2A29"/>
<path d="M58.4777 86.468L58.5581 96.7255H66.4409V94.0009H61.9365V92.7988H65.7974V90.3146H61.9365V89.1125H66.28V86.468H58.4777Z" fill="#2B2A29"/>
<path d="M20.0288 64.7508C20.0288 64.9912 19.9484 65.3919 19.7875 65.8727C19.7875 66.1131 19.7071 66.1933 19.6266 66.2734C19.6266 66.2734 19.5462 66.3536 19.3853 66.3536C19.144 66.4337 19.0636 66.5138 18.9831 66.5138C18.9027 66.5138 18.9027 66.4337 18.9027 66.3536C18.9027 66.2734 18.9027 66.1933 18.9027 66.1131C19.0636 65.5522 19.0636 65.1515 19.0636 64.9912C18.9831 64.7508 19.0636 64.5905 19.2244 64.5905C19.4657 64.4303 19.7071 64.3501 19.7875 64.3501C19.9484 64.3501 20.0288 64.5104 20.0288 64.7508ZM18.7418 69.3988C18.7418 70.0399 18.3396 70.5207 17.6157 70.7611C17.5353 71.0015 17.4548 71.1618 17.3744 71.2419C17.2135 71.3221 17.0526 71.4022 16.8113 71.4823C16.6504 71.4823 16.4896 71.4823 16.3287 71.4022C16.007 71.4022 15.6048 71.3221 15.1221 71.2419C14.9613 71.2419 14.8808 71.1618 14.8808 71.0015C14.8808 70.8412 15.0417 70.7611 15.3635 70.7611C15.6852 70.7611 16.3287 70.681 17.0526 70.5207C17.3744 70.5207 17.5353 70.3604 17.6961 70.0399C17.6961 69.9597 17.7766 69.7995 17.7766 69.559C17.7766 69.2385 17.6157 68.5974 17.2135 67.796C16.8918 66.9145 16.7309 66.3536 16.8113 66.1131C16.8113 65.3919 17.4548 64.9111 18.6614 64.6707C18.7418 64.5905 18.8222 64.6707 18.8222 64.7508C18.8222 64.831 18.8222 64.9111 18.7418 64.9111C18.0983 65.2316 17.857 65.5522 17.857 65.8727C17.857 66.033 17.857 66.1933 17.9374 66.4337C17.9374 66.6741 18.0983 67.1549 18.4201 68.0364C18.5809 68.5974 18.7418 69.0782 18.7418 69.3988Z" fill="#2B2A29"/>
<path d="M26.4638 65.3118C25.7398 66.6741 25.2572 68.2768 24.855 70.0399C25.0159 69.7995 25.1768 69.4789 25.4181 69.0782C25.4181 68.9981 25.4985 68.9179 25.5789 68.9179C25.6594 68.9179 25.6594 68.9981 25.6594 69.0782V69.1584C25.3376 69.9597 25.0963 70.6008 24.9355 71.0015C24.855 71.3221 24.7746 71.4022 24.6941 71.4022C24.6137 71.4022 24.3724 71.3221 24.0506 71.0816C23.8898 71.0015 23.8093 70.7611 23.8898 70.5207C24.1311 69.3186 24.3724 68.2768 24.6941 67.3953C23.6485 69.0782 22.7637 70.3604 22.0397 71.1618C21.8788 71.3221 21.718 71.4022 21.5571 71.4022C21.3962 71.4022 21.2353 71.4022 20.994 71.2419C20.5919 71.1618 20.431 71.0015 20.431 70.681C20.431 70.6008 20.431 70.5207 20.431 70.4406C20.5919 68.9179 20.9136 67.6358 21.3158 66.594C21.2354 66.6741 21.0745 66.8344 20.9136 66.9947C20.8332 66.9947 20.7527 67.0748 20.7527 66.9947C20.6723 66.9947 20.6723 66.9145 20.7527 66.8344C21.0745 66.4337 21.2353 66.1131 21.2353 65.9529C21.3962 65.5522 21.6375 65.2316 21.7984 64.9912C21.8788 64.9111 21.9593 64.8309 22.1202 64.8309C22.281 64.8309 22.4419 64.9111 22.7637 65.0714C22.8441 65.1515 22.8441 65.1515 22.8441 65.2316C22.8441 65.2316 22.8441 65.3118 22.6832 65.472C22.4419 65.8727 22.1202 66.594 21.7984 67.7159C21.4767 68.8378 21.3158 69.7193 21.3158 70.4406C21.3158 70.681 21.3962 70.8412 21.4767 70.8412C21.5571 70.8412 21.718 70.681 21.8788 70.5207C22.281 70.0399 22.9245 69.2385 23.7289 67.9563C24.4528 66.8344 24.855 66.1933 25.0159 65.7926C25.2572 65.3118 25.4181 64.9111 25.5789 64.8309C25.6594 64.7508 25.8203 64.7508 25.8203 64.7508C25.9007 64.7508 26.0616 64.8309 26.3029 64.9111C26.5442 65.0714 26.6246 65.1515 26.6246 65.1515C26.6246 65.1515 26.6246 65.2316 26.5442 65.2316C26.5442 65.2316 26.5442 65.3118 26.4638 65.3118Z" fill="#2B2A29"/>
<path d="M30.8074 64.7508C30.8074 64.9912 30.7269 65.3919 30.566 65.8727C30.566 66.1131 30.4856 66.1933 30.4052 66.2734C30.4052 66.2734 30.3247 66.3536 30.1639 66.3536C29.9225 66.4337 29.8421 66.5138 29.7617 66.5138C29.6812 66.5138 29.6008 66.4337 29.6008 66.3536C29.6008 66.2734 29.6812 66.1933 29.6812 66.1131C29.7617 65.5522 29.8421 65.1515 29.8421 64.9912C29.7617 64.7508 29.8421 64.5905 30.003 64.5905C30.2443 64.4303 30.4052 64.3501 30.4856 64.3501C30.7269 64.3501 30.8074 64.5104 30.8074 64.7508ZM29.5204 69.3988C29.5204 70.0399 29.1182 70.5207 28.3942 70.7611C28.3138 71.0015 28.2334 71.1618 28.1529 71.2419C27.9921 71.3221 27.8312 71.4022 27.5899 71.4823C27.429 71.4823 27.2681 71.4823 27.0268 71.4022C26.7051 71.4022 26.3029 71.3221 25.9007 71.2419C25.7398 71.2419 25.6594 71.1618 25.6594 71.0015C25.6594 70.8412 25.8203 70.7611 26.0616 70.7611C26.4638 70.7611 27.0268 70.681 27.8312 70.5207C28.0725 70.5207 28.3138 70.3604 28.3942 70.0399C28.4747 69.9597 28.5551 69.7995 28.5551 69.559C28.5551 69.2385 28.3138 68.5974 27.9921 67.796C27.6703 66.9145 27.5094 66.3536 27.5094 66.1131C27.5899 65.3919 28.2334 64.9111 29.4399 64.6707C29.5204 64.5905 29.6008 64.6707 29.6008 64.7508C29.6008 64.831 29.5204 64.9111 29.4399 64.9111C28.8769 65.2316 28.5551 65.5522 28.5551 65.8727C28.5551 66.033 28.6356 66.1933 28.6356 66.4337C28.716 66.6741 28.8769 67.1549 29.1986 68.0364C29.3595 68.5974 29.4399 69.0782 29.5204 69.3988Z" fill="#2B2A29"/>
<path d="M37.5641 58.5803C37.6445 58.6604 37.6445 58.7405 37.6445 58.7405C37.6445 58.9008 37.5641 58.9008 37.4836 58.9008C37.4032 58.9008 37.3227 58.9008 37.3227 58.9008C37.0814 58.7405 36.8401 58.6604 36.7597 58.6604C36.3575 58.6604 36.0357 58.9809 35.6336 59.7022C34.1857 62.0262 33.14 65.0714 32.4161 68.8378C33.3009 67.1549 34.3466 65.7926 35.4727 64.7508C35.714 64.5905 35.8749 64.4303 36.0358 64.4303C36.0358 64.4303 36.1966 64.5104 36.4379 64.6707C36.6792 64.831 36.8401 64.9111 36.9206 64.9111C37.0814 64.9912 37.0814 65.2316 37.0814 65.5522C37.0814 65.6323 37.0814 65.7125 37.0814 65.8727C37.001 66.8344 36.7597 67.9563 36.2771 69.3988C36.4379 69.1584 36.6792 68.8378 37.0814 68.357C37.1619 68.2768 37.2423 68.1967 37.3227 68.1967C37.3227 68.1967 37.4032 68.2768 37.4032 68.357C37.4032 68.4371 37.3227 68.5173 37.2423 68.5974C37.001 69.0782 36.5184 69.7193 36.0358 70.6008C35.9553 70.681 35.8749 70.9214 35.714 71.3221C35.6336 71.4823 35.5531 71.5625 35.3923 71.5625C35.2314 71.5625 35.0705 71.4823 34.7488 71.3221C34.6683 71.2419 34.6683 71.0817 34.7488 70.9214C35.6336 68.5974 36.1966 66.8344 36.1966 65.6323C36.2771 65.3118 36.1966 65.1515 36.1162 65.1515C36.0357 65.1515 35.8749 65.2316 35.6336 65.3919C35.2314 65.7926 34.6683 66.3536 34.1053 67.2351C33.3009 68.357 32.6574 69.4789 32.1748 70.681C32.0943 71.0015 31.9335 71.2419 31.853 71.2419C31.7726 71.2419 31.6117 71.0817 31.29 70.8412C31.2095 70.7611 31.1291 70.6008 31.2095 70.2803C31.7726 66.8344 32.6574 63.8693 33.6226 61.4652C34.427 59.622 35.0705 58.42 35.714 57.859C35.8749 57.6987 36.0357 57.6987 36.1162 57.6987C36.2771 57.6987 36.5184 57.7789 36.7597 57.9392C37.001 58.1796 37.2423 58.3398 37.5641 58.5803Z" fill="#2B2A29"/>
<path d="M41.5055 62.1063C41.5859 62.1864 41.5859 62.2666 41.5859 62.3467C41.5859 62.507 41.3446 62.7474 40.862 63.0679C40.6207 63.3083 40.2989 63.3885 39.9772 63.3083C39.8163 63.3083 39.6554 63.2282 39.575 63.1481C39.4945 63.0679 39.4945 63.0679 39.4945 62.9878C39.4945 62.9878 39.4945 62.9878 39.4945 62.9077C39.4945 62.9077 39.4945 62.9077 39.575 62.9077C40.0576 62.507 40.3793 62.1864 40.5402 61.946C40.7011 61.8659 40.7815 61.7857 40.862 61.7857C40.9424 61.7857 41.1033 61.8659 41.5055 62.1063ZM40.2989 65.7125C40.2185 66.4337 39.8163 67.6358 39.2532 69.3988C39.4141 69.2385 39.6554 68.9981 39.9772 68.5974C39.9772 68.5173 40.0576 68.5173 40.0576 68.5173C40.138 68.5173 40.138 68.5974 40.0576 68.7577C40.0576 68.8378 39.8163 69.1584 39.4141 69.8796C39.0924 70.3604 38.851 70.8412 38.6902 71.2419C38.6097 71.4022 38.5293 71.4022 38.4489 71.4022C38.288 71.4022 38.1271 71.4022 37.8858 71.2419C37.7249 71.1618 37.6445 71.0817 37.6445 71.0817C37.6445 71.0817 37.7249 71.0015 37.7249 70.8412C38.0467 70.3604 38.3684 69.4789 38.7706 68.2769C39.0924 67.0748 39.2532 66.1933 39.3337 65.6323C39.3337 65.3919 39.3337 65.3118 39.2532 65.3118C39.1728 65.3118 39.0924 65.3118 39.0119 65.4721L38.4489 65.9529C38.288 66.1131 38.2076 66.1131 38.2076 65.9529C38.2076 65.8727 38.2075 65.8727 38.288 65.7926C38.5293 65.3919 38.851 65.0714 39.0924 64.7508C39.1728 64.6707 39.2532 64.6707 39.3337 64.6707C39.4141 64.6707 39.575 64.6707 39.7359 64.831C39.9772 64.9111 40.138 64.9111 40.138 64.9111C40.2989 64.9912 40.3793 65.1515 40.3793 65.3919C40.3793 65.472 40.2989 65.5522 40.2989 65.7125Z" fill="#2B2A29"/>
<path d="M51.0775 58.9809C51.1579 59.0611 51.2383 59.1412 51.2383 59.2213C51.2383 59.3015 51.1579 59.3816 50.997 59.3816C50.997 59.3816 50.9166 59.3816 50.8362 59.3015C50.5144 59.1412 50.2731 59.0611 50.0318 59.0611C49.8709 59.0611 49.71 59.1412 49.5492 59.2213C48.9861 59.5419 48.1013 61.3851 46.9752 64.6707C47.86 64.7508 48.423 64.831 48.5839 64.831C48.7448 64.831 48.8252 64.9111 48.8252 64.9912C48.8252 65.0714 48.7448 65.1515 48.5839 65.1515C47.9404 65.3118 47.2969 65.3919 46.6534 65.3919C45.9295 67.6357 45.3664 69.6392 44.8838 71.5625C44.5621 73.0851 44.4012 74.207 44.4012 74.8481C44.4012 74.9282 44.4012 75.0084 44.4012 75.0885C44.4816 75.1686 44.4816 75.3289 44.4816 75.3289C44.4816 75.4091 44.4012 75.4892 44.4012 75.4892C44.3208 75.4892 44.0794 75.4091 43.7577 75.1686C43.436 75.0084 43.2751 74.768 43.2751 74.4474C43.7577 72.0433 44.5621 68.9981 45.7686 65.4721C45.286 65.4721 45.0447 65.4721 44.9643 65.4721C44.8034 65.4721 44.7229 65.3919 44.7229 65.3118C44.6425 65.1515 44.6425 65.0714 44.6425 65.0714C44.6425 64.9912 44.7229 64.9111 44.8838 64.831C45.1251 64.831 45.3664 64.7508 45.6077 64.6707C45.8491 64.6707 46.0099 64.5104 46.0099 64.4303C46.8947 61.8659 47.6187 60.183 48.1013 59.2213C48.5035 58.5001 48.9057 58.0994 49.3078 58.0994C49.71 58.0994 50.2731 58.42 51.0775 58.9809Z" fill="#2B2A29"/>
<path d="M53.4906 65.1515C53.4906 65.7926 53.4101 66.5138 53.2493 67.1549C53.1688 67.3152 53.0884 67.4755 53.0079 67.4755C52.9275 67.4755 52.6862 67.3152 52.4449 67.1549C52.3645 66.9947 52.284 66.8344 52.3645 66.6741C52.5253 66.1933 52.6058 65.7926 52.6058 65.4721C52.6058 65.3919 52.6058 65.3118 52.5253 65.3118C52.4449 65.3118 52.3644 65.3919 52.2036 65.6323C51.0775 67.0748 50.1927 68.7577 49.6296 70.6008C49.4687 71.1618 49.3079 71.4022 49.2274 71.4022C49.147 71.4022 48.9057 71.3221 48.5839 71.1618C48.3426 71.0817 48.2622 70.8412 48.3426 70.6008C48.8252 68.7577 49.2274 67.1549 49.71 65.8727C49.3078 66.2734 49.0665 66.5138 48.9861 66.6741C48.9057 66.7542 48.9057 66.8344 48.8252 66.8344C48.6644 66.8344 48.6644 66.7542 48.6644 66.6741C48.6644 66.6741 48.6644 66.594 48.7448 66.5138C48.9861 66.1933 49.3079 65.7125 49.7905 65.0714C49.9513 64.831 50.0318 64.6707 50.1927 64.6707C50.2731 64.6707 50.5144 64.7508 50.8362 64.9111C50.997 64.9912 50.997 65.1515 50.9166 65.3118C50.7557 65.472 50.5144 66.033 50.1927 66.9145C49.8709 67.8762 49.6296 68.5974 49.5492 69.1584C50.2731 67.4755 51.1579 66.033 52.1231 64.7508C52.284 64.5104 52.4449 64.4303 52.5253 64.4303C52.6058 64.4303 52.7666 64.5104 52.9275 64.5905C53.1688 64.6707 53.3297 64.6707 53.3297 64.7508C53.4906 64.7508 53.4906 64.9111 53.4906 65.1515Z" fill="#2B2A29"/>
<path d="M58.8798 66.1131C58.7994 66.594 58.719 67.2351 58.4777 68.0364C58.1559 69.2385 57.5929 70.2803 56.9494 70.9214C56.6276 71.3221 56.2254 71.4823 55.8232 71.4823C55.6624 71.4823 55.4211 71.4823 55.1797 71.4022C54.6971 71.4022 54.2949 71.2419 53.9732 70.9214C53.571 70.6008 53.4101 70.2001 53.4906 69.7193C53.4906 69.1584 53.6514 68.357 54.0536 67.3152C54.4558 66.1933 54.9384 65.3118 55.3406 64.831C55.5819 64.5905 55.7428 64.5104 55.9037 64.5104C56.0645 64.5104 56.3863 64.6707 56.7885 65.0714C56.8689 64.9912 57.1102 64.9111 57.5124 64.7508C57.6733 64.6707 57.8342 64.6707 57.9146 64.6707C58.0755 64.6707 58.3168 64.831 58.6385 65.2316C58.7994 65.472 58.8798 65.7926 58.8798 66.1131ZM57.9146 66.3536C57.9146 65.9529 57.9146 65.7125 57.9146 65.6323C57.9146 65.3919 57.9146 65.3118 57.7537 65.3118C57.6733 65.3118 57.5929 65.3118 57.5124 65.3118L56.2254 65.7926C56.145 65.8727 56.0645 65.9529 55.9841 65.9529C55.9841 65.9529 55.9037 65.8727 55.9037 65.7926C55.5819 66.1131 55.2602 66.6741 55.0189 67.4755C54.7776 68.0364 54.6167 68.5173 54.5363 68.9981C54.4558 69.3186 54.4558 69.559 54.4558 69.7995C54.4558 70.681 54.6971 71.0816 55.2602 71.0015C55.4211 71.0015 55.6624 70.9214 55.9037 70.7611C56.3863 70.5207 56.7885 69.8796 57.1907 68.9179C57.5929 68.0364 57.8342 67.1549 57.9146 66.3536Z" fill="#2B2A29"/>
<path d="M69.3366 68.6775C69.0149 69.1584 68.4518 70.12 67.8083 71.4823C67.7279 71.5625 67.6475 71.6426 67.6475 71.6426C67.567 71.6426 67.4866 71.6426 67.3257 71.5625C66.9235 71.4823 66.7627 71.4022 66.7627 71.2419C66.7627 71.2419 66.7627 71.0816 66.8431 71.0015C67.2453 70.0399 67.567 68.9981 67.8888 67.9563C68.1301 66.9145 68.291 66.033 68.291 65.4721C68.291 65.3118 68.2105 65.1515 68.1301 65.1515C67.9692 65.1515 67.8888 65.2316 67.7279 65.3118C67.3257 65.7125 66.6822 66.4337 65.9583 67.5556C65.0735 68.8378 64.43 70.0399 64.1082 71.1618C64.0278 71.3221 64.0278 71.4022 63.9474 71.4022C63.9474 71.4022 63.8669 71.4022 63.7061 71.4022C63.5452 71.3221 63.3843 71.2419 63.2234 71.0816C63.143 71.0015 63.0626 71.0015 63.0626 70.9214C63.0626 70.9214 63.143 70.7611 63.2234 70.6008C63.9474 68.8378 64.2691 67.0748 64.2691 65.3919C64.2691 65.2316 64.1887 65.1515 64.1082 65.1515C64.0278 65.1515 63.9474 65.2316 63.8669 65.3118C63.3039 65.7926 62.6604 66.594 61.9364 67.796C61.2125 68.9981 60.7299 70.0399 60.4081 71.0015C60.2473 71.3221 60.1668 71.4022 60.0864 71.4022C60.006 71.4022 59.7646 71.3221 59.4429 71.0816C59.3625 71.0015 59.282 70.9214 59.282 70.9214C59.282 70.8412 59.3625 70.7611 59.4429 70.6008C59.6842 70.12 59.9255 69.3186 60.2473 68.1967C60.569 66.8344 60.7299 65.8727 60.6495 65.3118C60.569 65.3919 60.4081 65.4721 60.2473 65.7125C60.006 65.8727 59.9255 66.033 59.7647 66.1131C59.7647 66.1933 59.6842 66.1933 59.6038 66.1933C59.5233 66.1933 59.5233 66.1933 59.5233 66.033C59.5233 65.9529 59.5233 65.8727 59.6038 65.7926C59.8451 65.5522 60.1668 65.1515 60.4886 64.6707C60.569 64.5905 60.7299 64.5104 60.8103 64.5104C60.8103 64.5104 60.9712 64.5905 61.1321 64.7508C61.293 64.831 61.3734 64.831 61.5343 64.9111C61.6951 64.9111 61.6951 65.0714 61.6951 65.2316V65.3118C61.5343 66.3536 61.3734 67.3953 61.0516 68.2769C62.0169 66.5138 62.9017 65.3118 63.7865 64.5905C63.8669 64.5104 63.9474 64.4303 64.1082 64.4303C64.1887 64.4303 64.3496 64.5104 64.5909 64.6707C64.8322 64.7508 64.9931 64.831 65.0735 64.9111C65.1539 64.9912 65.1539 65.1515 65.1539 65.3919C65.1539 66.5138 65.0735 67.4755 64.8322 68.357C65.8779 66.6741 66.8431 65.3919 67.7279 64.5905C67.8083 64.5104 67.9692 64.4303 68.0497 64.4303C68.2105 64.4303 68.4518 64.5104 68.6932 64.7508C69.0953 64.831 69.3366 65.0714 69.2562 65.5522C69.2562 66.8344 68.9345 68.1166 68.4518 69.3186C68.6932 68.9981 68.9345 68.7577 69.0953 68.5173C69.1758 68.357 69.2562 68.357 69.3366 68.357C69.4171 68.357 69.4171 68.357 69.4171 68.4371C69.4171 68.5173 69.4171 68.5974 69.3366 68.6775Z" fill="#2B2A29"/>
<path fill-rule="evenodd" clip-rule="evenodd" d="M58.7994 32.696L57.9146 35.661L51.9623 35.9014L56.7885 39.2672L55.3406 44.9569C62.4191 39.9083 59.7647 42.9535 59.8451 32.7761H59.7647C59.4429 32.7761 59.1212 32.7761 58.7994 32.696Z" fill="#0048FF"/>
</svg>
