<svg width="137" height="202" viewBox="0 0 137 202" fill="none" xmlns="http://www.w3.org/2000/svg">
<rect width="137" height="202" fill="white"/>
<g clip-path="url(#clip0_71_1747)">
<path fill-rule="evenodd" clip-rule="evenodd" d="M34.5545 47.9986C42.9326 45.6784 51.744 41.6181 60.8444 42.1982C55.7886 46.1134 48.7106 48.5786 44.666 53.944C59.2554 49.8837 70.3781 47.1285 86.8454 51.4788C91.0344 52.6389 95.6568 54.6691 99.4125 55.5391L97.968 60.7595L87.8565 61.0495L96.0902 66.85L93.6345 76.5657C105.913 67.575 100.713 73.6655 101.29 53.799C101.29 52.4939 101.29 51.1888 101.435 49.7387C101.868 43.0682 102.157 36.5427 102.446 29.8722C102.879 21.3166 104.468 18.8514 95.6568 15.6612C81.2118 10.1508 54.3441 11.0208 40.3325 17.9814C34.5545 20.8816 30.0766 22.4767 31.3766 29.4372C32.5322 35.6727 33.3989 41.9081 34.5545 47.9986V47.9986Z" fill="#E80800"/>
<path fill-rule="evenodd" clip-rule="evenodd" d="M65.0333 62.7897L54.7773 63.8047C56.6552 65.9799 60.6998 68.01 63.4443 69.0251L61.5665 79.9009L69.6557 72.9404L78.9005 78.1608C77.8893 74.6805 75.5781 71.4903 75.0003 68.01L82.5117 61.1945L72.1113 61.9196L67.6334 52.3489L65.0333 62.7897V62.7897Z" fill="#0048FF"/>
<path fill-rule="evenodd" clip-rule="evenodd" d="M38.1654 76.5656L47.2657 80.916L42.4989 71.4903C44.8101 69.4601 48.5658 66.5599 49.7214 64.2397L39.321 65.9799L35.2764 57.8593L38.1654 76.5656V76.5656Z" fill="#0048FF"/>
<path fill-rule="evenodd" clip-rule="evenodd" d="M20.8316 100.782C19.2427 97.3022 17.0759 96.1422 17.7982 93.3869C17.9426 92.2269 17.9426 91.7918 19.5316 91.0668C35.1322 84.1063 58.8219 107.888 99.2679 86.4264C104.324 83.6712 115.735 73.2305 120.502 75.8406C122.524 77.8708 119.78 80.191 119.491 81.6411C125.124 80.336 127.58 73.8105 125.413 70.3302C124.836 69.0251 121.369 68.1551 117.035 69.4602C107.213 72.5054 82.3673 98.7523 43.9436 86.8615C36.5766 84.5413 11.8757 79.9009 10.1423 89.4717C9.42007 93.967 16.9315 100.057 20.8316 100.782V100.782Z" fill="#0048FF"/>
<path fill-rule="evenodd" clip-rule="evenodd" d="M72.8333 176.188V176.333L72.6889 176.188C70.6666 176.188 69.2221 174.448 67.3442 174.013C67.7776 175.028 67.7776 177.493 68.2109 178.653C68.3554 178.798 68.6443 178.798 68.9332 178.943L69.511 177.638L70.9555 181.699C70.811 181.699 70.811 181.699 70.6666 181.699C71.2444 182.569 71.8222 183.439 72.4 184.309C73.5556 185.614 73.2667 186.049 75.0001 187.064C76.0112 183.004 76.7335 180.973 76.8779 176.623L78.4669 178.508C80.0558 177.783 79.3336 174.303 80.0558 172.563L79.0447 173.288C76.7335 174.013 75.1445 176.188 72.8333 176.188V176.188ZM74.5667 189.239C74.5667 189.094 74.5667 189.094 74.5667 188.949L74.4223 188.804L74.5667 189.239Z" fill="#1F1B20"/>
<path d="M43.6548 131.38C43.6548 137.47 52.1773 136.745 52.1773 138.63C52.1773 139.21 51.744 139.355 50.155 139.355C48.2772 139.5 45.966 138.775 43.7992 137.47L43.9437 142.546C45.8215 143.706 48.1327 144.286 50.7328 144.286C54.7774 144.141 58.0998 142.981 58.0998 138.485C58.0998 132.54 49.5772 133.41 49.5772 131.525C49.5772 131.09 50.0106 130.8 51.1662 130.8C53.044 130.655 55.2108 131.38 56.9442 132.395L56.7997 127.464C55.2108 126.449 52.7551 126.014 50.4439 126.014C46.6882 126.014 43.6548 127.754 43.6548 131.38V131.38Z" fill="#1F1B20"/>
<path d="M63.7331 143.706L64.4553 141.386H70.5222L71.2445 143.706H77.0225L70.5222 126.304H64.3109L57.9551 143.851L63.7331 143.706V143.706ZM67.0554 133.555C67.1999 132.975 67.3443 132.25 67.4888 131.38C67.6332 132.25 67.7777 132.975 67.9221 133.555L69.2222 137.325H65.7554L67.0554 133.555Z" fill="#1F1B20"/>
<path d="M93.0566 126.159L88.1453 133.845L83.3784 126.304H78.1782L78.3227 143.706H83.9562L83.8118 135.73L86.7008 140.08H89.7342L92.6232 135.73V143.561H98.2568L98.1123 126.159H93.0566Z" fill="#1F1B20"/>
<path d="M40.9102 147.621L41.0546 157.917C41.0546 159.657 40.1879 160.237 38.599 160.237C37.1545 160.237 36.2878 159.657 36.2878 158.062V147.621H30.5098L30.6542 158.352C30.6542 163.717 34.5544 165.457 38.7434 165.457C42.788 165.457 46.6882 163.572 46.6882 158.207V147.621H40.9102V147.621Z" fill="#1F1B20"/>
<path d="M54.9215 165.022V159.802C54.9215 158.787 54.9215 157.772 54.7771 156.757L60.6995 164.877H65.4664V147.476H59.6884V152.696C59.6884 153.711 59.6884 154.726 59.8328 155.742L53.9104 147.476L49.1436 147.621V165.022H54.9215V165.022Z" fill="#1F1B20"/>
<path d="M67.3442 156.322C67.3442 162.702 72.1111 165.312 77.0224 165.312C78.9002 165.167 80.6336 164.877 82.0781 164.152V158.932C81.2114 159.657 79.6225 160.237 77.7446 160.237C75.4334 160.237 73.2667 159.077 73.2667 156.322C73.2667 153.276 75.4334 151.971 77.8891 151.971C79.478 151.971 81.067 152.551 81.9337 153.131V148.056C80.3447 147.331 78.6113 147.041 76.8779 147.041C72.1111 147.041 67.3442 149.796 67.3442 156.322V156.322Z" fill="#1F1B20"/>
<path d="M84.1006 147.331L84.245 164.877L97.39 164.732V159.657L89.8786 159.802V147.331H84.1006Z" fill="#1F1B20"/>
<path d="M98.8345 147.331L98.9789 164.732H112.268V160.092H104.757V158.062H111.257V153.856H104.612V151.826H112.124L111.979 147.331H98.8345Z" fill="#1F1B20"/>
<path d="M33.832 110.208C33.832 110.643 33.6876 111.368 33.5431 112.238C33.3987 112.528 33.3987 112.673 33.2542 112.818C33.2542 112.818 33.1098 112.963 32.8209 113.108C32.3875 113.108 32.2431 113.253 32.0986 113.253C31.9542 113.253 31.9542 113.108 31.9542 112.963C31.9542 112.818 31.9542 112.673 31.9542 112.528C32.2431 111.658 32.2431 110.933 32.2431 110.643C32.2431 110.353 32.2431 110.063 32.532 109.918C32.9653 109.773 33.2542 109.628 33.3987 109.628C33.6876 109.628 33.832 109.773 33.832 110.208V110.208ZM31.6653 118.184C31.6653 119.344 31.0875 120.069 29.7874 120.504C29.643 120.939 29.4985 121.229 29.3541 121.374C29.2096 121.519 28.9207 121.664 28.4874 121.664C28.1985 121.664 27.9096 121.664 27.6207 121.664C27.0429 121.519 26.3206 121.519 25.5984 121.374C25.3095 121.374 25.165 121.229 25.165 120.939C25.165 120.649 25.4539 120.504 25.8873 120.504C26.6095 120.504 27.6207 120.359 28.9207 120.214C29.3541 120.069 29.643 119.779 29.9319 119.344C29.9319 119.054 30.0763 118.764 30.0763 118.474C30.0763 117.894 29.7874 116.879 29.2096 115.429C28.6318 113.978 28.3429 112.963 28.3429 112.528C28.4874 111.368 29.4985 110.498 31.5208 110.063C31.8097 110.063 31.8097 110.208 31.8097 110.353C31.8097 110.498 31.8097 110.498 31.6653 110.643C30.6541 111.078 30.2208 111.513 30.2208 112.238C30.2208 112.528 30.2208 112.818 30.3652 113.108C30.3652 113.543 30.6541 114.414 31.0875 115.864C31.5208 116.879 31.6653 117.749 31.6653 118.184V118.184Z" fill="#1F1B20"/>
<path d="M44.8101 111.223C43.5101 113.543 42.6434 116.299 42.0656 119.344C42.3545 118.909 42.6434 118.329 42.9323 117.604C43.0767 117.459 43.0767 117.459 43.2212 117.459C43.3656 117.459 43.3656 117.459 43.3656 117.604C43.3656 117.749 43.3656 117.749 43.3656 117.894C42.7878 119.199 42.3545 120.214 42.21 120.939C42.0656 121.374 41.9211 121.664 41.7767 121.664C41.6322 121.664 41.1989 121.519 40.7655 121.084C40.4766 120.939 40.3322 120.504 40.4766 120.069C40.7655 118.039 41.1989 116.299 41.7767 114.703C40.0433 117.604 38.4543 119.779 37.2987 121.229C37.0098 121.519 36.7209 121.664 36.432 121.664C36.1431 121.664 35.8542 121.519 35.5653 121.374C34.8431 121.229 34.5542 120.939 34.5542 120.359C34.5542 120.214 34.5542 120.069 34.5542 120.069C34.8431 117.314 35.2764 115.138 35.9987 113.398C35.8542 113.543 35.7098 113.833 35.2764 114.123C35.2764 114.123 35.132 114.123 34.9875 114.123C34.9875 114.123 34.9875 113.978 35.132 113.833C35.5653 113.108 35.8542 112.673 35.9987 112.383C36.2876 111.658 36.5765 111.078 36.8654 110.643C37.0098 110.498 37.1543 110.353 37.4432 110.353C37.5876 110.353 38.021 110.498 38.4543 110.788C38.5988 110.933 38.7432 110.933 38.7432 111.078C38.7432 111.078 38.5988 111.223 38.3099 111.513C37.8765 112.238 37.4432 113.543 36.8654 115.284C36.432 117.169 36.1431 118.764 36.1431 119.924C36.1431 120.359 36.1431 120.649 36.2876 120.649C36.432 120.649 36.7209 120.359 37.0098 120.069C37.7321 119.344 38.7432 117.894 40.1877 115.719C41.3433 113.833 42.0656 112.673 42.3545 112.093C42.6434 111.223 43.0767 110.643 43.2212 110.498C43.5101 110.353 43.6545 110.208 43.799 110.208C43.799 110.208 44.0879 110.353 44.5212 110.498C44.8101 110.788 45.099 110.933 45.099 110.933C45.099 111.078 44.9546 111.078 44.9546 111.078C44.8101 111.223 44.8101 111.223 44.8101 111.223V111.223Z" fill="#1F1B20"/>
<path d="M52.0327 110.208C52.0327 110.643 51.8883 111.368 51.7438 112.238C51.5994 112.528 51.5994 112.673 51.4549 112.818C51.4549 112.818 51.166 112.963 51.0216 113.108C50.5882 113.108 50.4438 113.253 50.2993 113.253C50.1549 113.253 50.1549 113.108 50.1549 112.963C50.1549 112.818 50.1549 112.673 50.1549 112.528C50.4438 111.658 50.4438 110.933 50.4438 110.643C50.2993 110.353 50.4438 110.063 50.7327 109.918C51.166 109.773 51.4549 109.628 51.5994 109.628C51.8883 109.628 52.0327 109.773 52.0327 110.208V110.208ZM49.866 118.184C49.866 119.344 49.2882 120.069 47.9881 120.504C47.8437 120.939 47.6992 121.229 47.5548 121.374C47.4103 121.519 46.977 121.664 46.6881 121.664C46.3992 121.664 46.1103 121.664 45.8214 121.664C45.2436 121.519 44.5213 121.519 43.7991 121.374C43.5102 121.374 43.3657 121.229 43.3657 120.939C43.3657 120.649 43.6546 120.504 44.088 120.504C44.8102 120.504 45.8214 120.359 46.977 120.214C47.5548 120.069 47.8437 119.779 48.1326 119.344C48.1326 119.054 48.277 118.764 48.277 118.474C48.277 117.894 47.9881 116.879 47.4103 115.429C46.8325 113.978 46.5436 112.963 46.5436 112.528C46.6881 111.368 47.6992 110.498 49.7215 110.063C50.0104 110.063 50.0104 110.208 50.0104 110.353C50.0104 110.498 50.0104 110.498 49.866 110.643C48.8548 111.078 48.4215 111.513 48.4215 112.238C48.4215 112.528 48.4215 112.818 48.4215 113.108C48.5659 113.543 48.8548 114.414 49.2882 115.864C49.7215 116.879 49.866 117.749 49.866 118.184V118.184Z" fill="#1F1B20"/>
<path d="M63.4444 99.7674C63.5889 99.9124 63.7333 99.9124 63.7333 100.057C63.7333 100.202 63.5889 100.347 63.3 100.347C63.3 100.347 63.1555 100.347 63.0111 100.202C62.5777 100.057 62.2888 99.9124 62.1444 99.9124C61.5666 99.9124 60.9888 100.492 60.2665 101.653C57.8109 105.568 55.933 110.788 54.7774 117.314C56.3664 114.413 58.0998 112.093 59.9776 110.353C60.411 109.918 60.6999 109.773 60.8443 109.773C60.9888 109.773 61.1332 109.918 61.5666 110.208C61.9999 110.353 62.2888 110.498 62.4333 110.498C62.7222 110.788 62.7222 111.078 62.7222 111.658C62.7222 111.803 62.7222 111.948 62.7222 112.093C62.5777 113.833 62.1444 115.864 61.2777 118.184C61.5666 117.749 62.1444 117.169 62.7222 116.444C62.8666 116.299 63.0111 116.154 63.0111 116.154C63.1555 116.154 63.1555 116.299 63.1555 116.444C63.1555 116.444 63.1555 116.734 63.0111 116.879C62.5777 117.604 61.8555 118.764 60.8443 120.214C60.8443 120.359 60.6999 120.794 60.411 121.519C60.2665 121.809 60.1221 121.954 59.8332 121.954C59.6887 121.954 59.2554 121.664 58.822 121.374C58.6776 121.229 58.5331 121.084 58.6776 120.794C60.2665 116.734 61.1332 113.833 61.2777 111.803C61.2777 111.223 61.1332 110.933 60.9888 110.933C60.8443 110.933 60.6999 111.078 60.2665 111.368C59.5443 111.948 58.6776 112.963 57.6664 114.558C56.2219 116.444 55.2108 118.329 54.4885 120.359C54.1996 120.939 54.0552 121.229 53.9107 121.229C53.7663 121.229 53.4774 121.084 52.8996 120.649C52.7551 120.504 52.6107 120.214 52.7551 119.779C53.7663 113.833 55.2108 108.758 56.9442 104.698C58.2442 101.507 59.3998 99.4773 60.411 98.6073C60.5554 98.3173 60.8443 98.1722 61.1332 98.1722C61.4221 98.1722 61.711 98.3173 62.1444 98.6073C62.5777 99.0423 63.0111 99.3323 63.4444 99.7674V99.7674Z" fill="#1F1B20"/>
<path d="M70.0892 105.858C70.2336 105.858 70.3781 106.003 70.3781 106.148C70.3781 106.438 69.9447 106.873 69.2225 107.453C68.6447 107.743 68.0669 107.888 67.6335 107.888C67.3446 107.743 67.0558 107.598 66.9113 107.453C66.9113 107.453 66.7668 107.453 66.7668 107.308V107.163C66.7668 107.163 66.7669 107.163 66.9113 107.163C67.778 106.438 68.3558 105.858 68.6447 105.568C68.7891 105.278 68.9336 105.278 69.0781 105.278C69.2225 105.278 69.5114 105.423 70.0892 105.858ZM68.2113 111.948C67.9224 113.108 67.3446 115.284 66.4779 118.184C66.7668 117.894 67.0558 117.459 67.4891 116.879C67.6336 116.734 67.6336 116.734 67.778 116.734C67.9225 116.734 67.9225 116.879 67.778 117.024C67.778 117.169 67.3447 117.749 66.6224 118.909C66.0446 119.924 65.6113 120.649 65.4668 121.374C65.3224 121.519 65.1779 121.664 65.0335 121.664C64.7446 121.664 64.4556 121.519 64.0223 121.374C63.8778 121.229 63.7334 121.084 63.7334 121.084C63.7334 120.939 63.7334 120.939 63.8779 120.649C64.3112 119.779 64.889 118.329 65.4668 116.299C66.0446 114.268 66.3335 112.818 66.4779 111.803C66.4779 111.368 66.478 111.223 66.3335 111.223C66.3335 111.223 66.189 111.223 65.9001 111.513L65.0335 112.238C64.7446 112.528 64.6001 112.528 64.6001 112.383C64.6001 112.238 64.6001 112.093 64.7446 112.093C65.1779 111.368 65.6112 110.788 66.189 110.353C66.3335 110.208 66.4779 110.063 66.4779 110.063C66.7668 110.063 66.9113 110.208 67.2002 110.353C67.6336 110.498 67.9224 110.498 67.9224 110.643C68.0669 110.788 68.2113 110.933 68.2113 111.368C68.2113 111.513 68.2113 111.658 68.2113 111.948V111.948Z" fill="#1F1B20"/>
<path d="M86.4117 100.492C86.5562 100.637 86.7006 100.637 86.7006 100.782C86.7006 101.072 86.5562 101.072 86.2673 101.072C86.1228 101.072 86.1228 101.072 85.9784 101.072C85.4006 100.782 84.9672 100.637 84.5339 100.637C84.245 100.637 83.9561 100.637 83.8116 100.782C82.8005 101.363 81.356 104.553 79.3337 110.063C80.9226 110.353 81.7893 110.498 82.2227 110.498C82.3671 110.498 82.5116 110.498 82.5116 110.643C82.5116 110.933 82.3671 110.933 82.2227 111.078C81.0671 111.223 80.0559 111.368 78.9003 111.368C77.6003 115.139 76.5891 118.619 76.0113 121.954C75.4335 124.564 75.1446 126.304 75.1446 127.464C75.1446 127.609 75.1446 127.754 75.1446 127.899C75.1446 128.044 75.1446 128.19 75.1446 128.335C75.1446 128.48 75.1446 128.625 75.0002 128.625C74.8557 128.625 74.5668 128.335 73.989 128.044C73.4112 127.754 73.1223 127.319 73.2668 126.739C73.989 122.679 75.4335 117.604 77.3114 111.513C76.5891 111.513 76.1558 111.513 76.0113 111.513C75.8669 111.513 75.7224 111.368 75.578 111.223C75.578 110.933 75.4335 110.788 75.4335 110.788C75.4335 110.643 75.578 110.498 75.8669 110.498C76.3002 110.353 76.7336 110.208 77.1669 110.208C77.6003 110.063 77.7447 109.918 77.8892 109.773C79.3337 105.423 80.4893 102.523 81.356 100.927C82.0782 99.6224 82.8005 98.8973 83.3783 98.8973C83.9561 98.8973 84.9672 99.4774 86.4117 100.492V100.492Z" fill="#1F1B20"/>
<path d="M90.4566 110.933C90.4566 112.093 90.3121 113.253 90.0232 114.414C89.8788 114.704 89.7343 114.849 89.5899 114.849C89.4454 114.849 89.1565 114.704 88.7232 114.269C88.4343 114.124 88.4343 113.833 88.5787 113.543C88.8676 112.673 88.8676 111.948 88.8676 111.513C88.8676 111.368 88.8676 111.223 88.8676 111.223C88.7232 111.223 88.5787 111.368 88.2898 111.658C86.412 114.269 84.9675 117.024 83.9563 120.214C83.6674 121.229 83.3785 121.664 83.2341 121.664C83.0896 121.664 82.8007 121.519 82.0785 121.229C81.7896 121.084 81.6451 120.649 81.7896 120.214C82.5118 117.024 83.2341 114.269 84.1008 112.093C83.3785 112.818 82.9452 113.398 82.8007 113.543C82.8007 113.688 82.6563 113.833 82.5118 113.833C82.3674 113.833 82.2229 113.688 82.2229 113.543C82.2229 113.543 82.3674 113.398 82.3674 113.253C82.8007 112.818 83.3785 111.948 84.2452 110.788C84.3897 110.353 84.6786 110.208 84.823 110.208C85.1119 110.208 85.4008 110.353 85.8342 110.643C86.1231 110.788 86.2675 110.933 85.9786 111.223C85.8342 111.513 85.4008 112.383 84.823 113.979C84.3897 115.574 83.9563 116.879 83.8119 117.749C84.9675 114.994 86.412 112.528 88.1454 110.353C88.4343 109.918 88.5787 109.773 88.8676 109.773C89.0121 109.773 89.1565 109.773 89.4454 110.063C89.8788 110.063 90.1677 110.208 90.1677 110.208C90.4566 110.353 90.4566 110.498 90.4566 110.933V110.933Z" fill="#1F1B20"/>
<path d="M99.5568 112.528C99.4124 113.398 99.2679 114.414 98.8346 115.864C98.2568 118.039 97.3901 119.634 96.3789 120.794C95.8011 121.519 95.0789 121.809 94.3566 121.809C94.0677 121.809 93.7788 121.664 93.3455 121.664C92.4788 121.519 91.7565 121.229 91.1787 120.794C90.6009 120.214 90.312 119.489 90.312 118.764C90.4565 117.749 90.7454 116.299 91.3232 114.559C92.0454 112.673 92.7677 111.368 93.6344 110.498C93.9233 110.063 94.2122 109.918 94.5011 109.918C94.79 109.918 95.2233 110.208 95.9456 110.788C96.2345 110.643 96.5234 110.498 97.2456 110.353C97.5345 110.208 97.679 110.063 97.8234 110.063C98.2568 110.063 98.6901 110.498 99.1235 111.078C99.4124 111.513 99.5568 112.093 99.5568 112.528V112.528ZM97.8234 112.963C97.9679 112.383 97.9679 111.948 97.9679 111.803C97.9679 111.368 97.8234 111.223 97.679 111.223C97.5345 111.223 97.3901 111.223 97.2456 111.223L95.0789 112.093C94.9344 112.238 94.79 112.238 94.6455 112.238C94.6455 112.238 94.5011 112.238 94.5011 111.948C93.9233 112.673 93.4899 113.543 92.9121 114.849C92.6232 115.864 92.3343 116.734 92.1899 117.459C92.1899 118.039 92.0454 118.474 92.0454 118.909C92.0454 120.359 92.4788 121.084 93.3455 120.939C93.7788 120.939 94.0677 120.794 94.5011 120.504C95.3678 120.069 96.09 118.909 96.6678 117.459C97.3901 115.864 97.679 114.414 97.8234 112.963Z" fill="#1F1B20"/>
<path d="M117.324 116.879C116.602 117.749 115.735 119.344 114.579 121.664C114.435 121.809 114.435 121.954 114.435 121.954C114.29 122.099 114.146 121.954 113.713 121.954C113.135 121.664 112.846 121.519 112.846 121.374C112.846 121.229 112.846 121.084 112.99 120.939C113.713 119.344 114.29 117.604 114.724 115.719C115.302 113.833 115.446 112.528 115.446 111.513C115.446 111.223 115.302 111.078 115.157 111.078C115.013 111.078 114.724 111.078 114.579 111.223C113.713 111.948 112.701 113.108 111.546 114.994C109.957 117.169 108.946 119.344 108.368 121.229C108.224 121.519 108.224 121.664 108.224 121.664C108.079 121.664 107.935 121.664 107.79 121.519C107.501 121.374 107.212 121.229 106.924 121.084C106.779 120.939 106.635 120.939 106.635 120.794C106.635 120.794 106.779 120.504 106.924 120.214C108.079 117.169 108.657 114.269 108.657 111.368C108.657 111.078 108.512 110.933 108.368 110.933C108.224 110.933 108.079 111.078 107.935 111.223C106.924 112.093 105.912 113.398 104.612 115.574C103.457 117.459 102.59 119.344 102.012 120.939C101.868 121.374 101.723 121.664 101.579 121.664C101.434 121.664 101.001 121.374 100.423 120.939C100.279 120.939 100.279 120.794 100.279 120.794C100.279 120.649 100.423 120.504 100.568 120.214C101.001 119.489 101.434 118.039 101.868 116.154C102.446 113.833 102.59 112.238 102.59 111.223C102.446 111.368 102.157 111.513 101.868 111.948C101.579 112.238 101.29 112.383 101.146 112.528C101.001 112.673 100.857 112.818 100.712 112.818C100.712 112.818 100.568 112.673 100.568 112.528C100.568 112.383 100.568 112.238 100.712 112.093C101.29 111.513 101.723 110.933 102.301 110.208C102.446 109.918 102.59 109.773 102.734 109.773C102.879 109.773 103.023 109.918 103.312 110.208C103.601 110.353 103.746 110.498 104.035 110.498C104.179 110.643 104.323 110.788 104.323 111.078V111.223C104.035 113.108 103.746 114.704 103.312 116.299C104.901 113.398 106.346 111.223 107.79 110.063C107.935 109.773 108.224 109.773 108.368 109.773C108.512 109.773 108.801 109.918 109.235 110.063C109.668 110.208 109.813 110.498 109.957 110.498C110.101 110.788 110.246 110.933 110.246 111.368C110.246 113.253 109.957 114.849 109.524 116.444C111.401 113.543 112.99 111.368 114.435 110.063C114.724 109.773 114.868 109.773 115.013 109.773C115.302 109.773 115.735 109.918 116.168 110.353C116.891 110.353 117.179 110.788 117.179 111.658C117.035 113.833 116.602 116.009 115.735 118.039C116.168 117.604 116.457 117.024 116.746 116.589C116.891 116.444 117.035 116.299 117.179 116.299C117.324 116.299 117.324 116.444 117.324 116.589C117.324 116.734 117.324 116.734 117.324 116.879V116.879Z" fill="#1F1B20"/>
<path fill-rule="evenodd" clip-rule="evenodd" d="M99.4124 55.6841L97.9679 60.7595L87.8564 61.0495L96.0901 66.8499L93.6344 76.5656C105.479 67.865 101.146 73.2304 101.29 55.8291L101.146 55.6841C100.424 55.8291 99.8458 55.8291 99.4124 55.6841V55.6841Z" fill="#0048FF"/>
</g>
<defs>
<clipPath id="clip0_71_1747">
<rect width="137" height="202" fill="white"/>
</clipPath>
</defs>
</svg>
